{"glyphs":{"0":{"ha":854,"x_min":0,"x_max":0,"o":"m 426 -18 b 65 479 172 -18 65 207 b 426 978 65 751 172 978 b 789 479 681 978 789 751 b 426 -18 789 207 681 -18 m 171 479 b 426 71 171 261 238 71 b 683 479 617 71 683 261 b 426 889 683 699 617 889 b 171 479 238 889 171 699 "},"1":{"ha":429,"x_min":0,"x_max":0,"o":"m 217 757 b 17 701 171 708 103 701 l 17 786 b 236 960 185 790 225 843 l 317 960 l 317 0 l 217 0 l 217 757 "},"2":{"ha":763,"x_min":0,"x_max":0,"o":"m 43 0 b 326 407 43 178 153 310 b 597 694 501 507 597 549 b 404 889 597 789 551 889 b 175 636 238 889 175 772 l 71 636 b 406 978 71 822 179 978 b 703 696 569 978 703 875 b 419 351 703 514 560 431 b 164 92 303 285 182 219 l 164 89 l 693 89 l 693 0 l 43 0 "},"3":{"ha":813,"x_min":0,"x_max":0,"o":"m 419 -18 b 50 321 186 -18 50 108 l 156 321 b 413 71 156 174 228 71 b 646 265 579 71 646 146 b 436 457 646 411 535 457 l 333 457 l 333 546 l 431 546 b 610 718 535 546 610 603 b 418 889 610 804 556 889 b 182 676 225 889 182 779 l 76 676 b 418 978 76 849 189 978 b 715 718 575 978 715 883 b 565 508 715 611 663 547 l 565 506 b 751 265 694 465 751 379 b 419 -18 751 85 618 -18 "},"4":{"ha":779,"x_min":0,"x_max":0,"o":"m 504 233 l 35 233 l 35 322 l 504 960 l 604 960 l 604 322 l 740 322 l 740 233 l 604 233 l 604 0 l 504 0 m 504 322 l 504 817 l 139 322 "},"5":{"ha":774,"x_min":0,"x_max":0,"o":"m 386 -18 b 51 271 168 -18 56 122 l 156 271 b 382 71 165 164 228 71 b 615 325 518 71 615 156 b 394 550 615 483 524 550 b 174 449 293 550 217 507 l 65 449 l 167 960 l 671 960 l 671 871 l 249 871 l 183 550 l 183 547 b 417 639 236 607 315 639 b 721 325 600 639 721 503 b 386 -18 721 119 579 -18 "},"6":{"ha":804,"x_min":0,"x_max":0,"o":"m 418 -18 b 67 468 171 -18 67 167 b 426 978 67 790 194 978 b 718 721 593 978 706 865 l 614 721 b 426 889 603 825 538 889 b 168 482 228 889 168 704 l 168 454 l 169 453 b 436 624 214 568 324 624 b 744 308 619 624 744 496 b 418 -18 744 128 622 -18 m 189 293 b 418 71 189 169 269 71 b 639 303 561 71 639 164 b 428 535 639 447 557 535 b 189 293 294 535 189 446 "},"7":{"ha":696,"x_min":0,"x_max":0,"o":"m 163 0 b 549 868 163 304 333 685 l 549 871 l 11 871 l 11 960 l 664 960 l 664 882 b 268 0 408 675 268 293 l 163 0 "},"8":{"ha":819,"x_min":0,"x_max":0,"o":"m 410 -18 b 58 268 215 -18 58 79 b 243 513 58 401 144 472 l 243 515 b 106 724 169 551 106 615 b 410 978 106 885 233 978 b 714 724 586 978 714 885 b 576 515 714 615 650 551 l 576 513 b 761 268 674 472 761 401 b 410 -18 761 79 604 -18 m 164 272 b 410 71 164 143 264 71 b 656 272 556 71 656 143 b 410 469 656 397 556 469 b 164 272 264 469 164 397 m 211 724 b 410 558 211 613 290 558 b 608 724 529 558 608 613 b 410 889 608 835 529 889 b 211 724 290 889 211 835 "},"9":{"ha":806,"x_min":0,"x_max":0,"o":"m 378 -18 b 86 239 211 -18 99 94 l 190 239 b 378 71 203 136 267 71 b 638 478 576 71 638 256 l 638 506 l 635 507 b 368 336 590 392 482 336 b 60 651 185 336 60 464 b 386 978 60 832 182 978 b 738 492 635 978 738 793 b 378 -18 738 169 610 -18 m 165 657 b 376 426 165 513 249 426 b 615 667 510 426 615 514 b 386 889 615 790 535 889 b 165 657 243 889 165 796 "},"\r":{"ha":304,"x_min":0,"x_max":0,"o":""}," ":{"ha":304,"x_min":0,"x_max":0,"o":""},"!":{"ha":289,"x_min":0,"x_max":0,"o":"m 85 117 l 201 117 l 201 0 l 85 0 m 92 993 l 196 993 l 196 693 l 172 256 l 115 256 l 92 693 "},"\"":{"ha":415,"x_min":0,"x_max":0,"o":"m 67 993 l 160 993 l 149 664 l 78 664 m 350 993 l 339 664 l 268 664 l 257 993 "},"#":{"ha":785,"x_min":0,"x_max":0,"o":"m 440 296 l 258 296 l 201 0 l 119 0 l 176 296 l 44 296 l 58 376 l 192 376 l 236 603 l 89 603 l 103 682 l 251 682 l 304 957 l 385 957 l 332 682 l 515 682 l 568 957 l 649 957 l 596 682 l 744 682 l 729 603 l 581 603 l 538 376 l 700 376 l 686 296 l 522 296 l 465 0 l 383 0 m 456 376 l 500 603 l 317 603 l 274 376 "},"$":{"ha":811,"x_min":0,"x_max":0,"o":"m 382 -15 b 39 314 192 1 51 115 l 135 314 b 382 69 147 178 222 85 l 382 458 b 81 711 233 492 81 551 b 382 967 81 863 196 961 l 382 1069 l 451 1069 l 451 964 b 736 678 613 946 725 847 l 640 678 b 451 876 628 793 565 861 l 451 529 b 764 249 654 474 764 421 b 451 -18 764 106 661 -11 l 451 -140 l 382 -140 m 176 719 b 382 547 176 618 261 581 l 382 881 b 176 719 254 876 176 815 m 451 67 b 667 244 607 72 665 144 b 451 442 669 356 608 400 l 451 67 "},"%":{"ha":1088,"x_min":0,"x_max":0,"o":"m 771 957 l 863 957 l 318 0 l 225 0 m 33 703 b 251 972 33 850 101 972 b 468 703 399 972 468 850 b 251 435 468 557 401 435 b 33 703 103 435 33 557 m 117 703 b 251 511 117 596 157 511 b 385 703 344 511 385 596 b 251 896 385 811 344 896 b 117 703 157 896 117 811 m 621 251 b 839 521 621 397 689 521 b 1057 251 986 521 1057 397 b 839 -18 1057 106 989 -18 b 621 251 690 -18 621 106 m 706 251 b 839 58 706 143 744 58 b 972 251 933 58 972 143 b 839 443 972 358 933 443 b 706 251 744 443 706 358 "},"&":{"ha":825,"x_min":0,"x_max":0,"o":"m 340 -18 b 44 244 156 -18 44 94 b 281 547 44 401 167 483 b 161 794 211 633 161 704 b 385 1011 161 901 233 1011 b 608 793 529 1011 608 910 b 401 533 608 675 528 610 l 619 260 b 681 471 651 324 671 397 l 772 471 b 681 185 761 376 732 272 l 828 0 l 719 0 l 629 113 b 340 -18 561 35 467 -18 m 136 251 b 342 71 136 144 215 71 b 572 183 442 71 518 115 l 328 489 b 136 251 225 428 136 365 m 253 794 b 356 590 253 725 299 660 b 517 788 454 647 517 700 b 385 926 517 867 468 926 b 253 794 297 926 253 863 "},"'":{"ha":226,"x_min":0,"x_max":0,"o":"m 67 993 l 160 993 l 149 664 l 78 664 "},"(":{"ha":347,"x_min":0,"x_max":0,"o":"m 242 -162 b 51 440 140 -22 51 189 b 242 1049 51 700 140 908 l 324 1049 b 153 440 226 881 153 697 b 324 -162 153 189 226 6 l 242 -162 "},")":{"ha":347,"x_min":0,"x_max":0,"o":"m 24 -162 b 194 446 121 6 194 189 b 24 1049 194 697 121 881 l 106 1049 b 296 446 207 908 296 697 b 106 -162 296 186 207 -22 l 24 -162 "},"*":{"ha":611,"x_min":0,"x_max":0,"o":"m 124 579 l 244 733 l 56 794 l 81 856 l 268 797 l 267 993 l 343 993 l 342 797 l 531 856 l 556 794 l 367 733 l 488 579 l 429 538 l 306 699 l 182 538 "},"+":{"ha":753,"x_min":0,"x_max":0,"o":"m 332 408 l 69 408 l 69 497 l 332 497 l 331 768 l 422 768 l 422 497 l 685 497 l 685 408 l 422 408 l 422 136 l 331 136 "},",":{"ha":253,"x_min":0,"x_max":0,"o":"m 68 -108 b 125 0 113 -92 126 -67 l 68 0 l 68 117 l 185 117 l 185 0 b 68 -168 185 -78 163 -139 l 68 -108 "},"-":{"ha":488,"x_min":0,"x_max":0,"o":"m 57 399 l 429 399 l 429 310 l 57 310 "},".":{"ha":254,"x_min":0,"x_max":0,"o":"m 68 117 l 185 117 l 185 0 l 68 0 "},"/":{"ha":518,"x_min":0,"x_max":0,"o":"m 408 993 l 500 993 l 110 0 l 18 0 "},":":{"ha":267,"x_min":0,"x_max":0,"o":"m 75 540 l 192 540 l 192 424 l 75 424 m 75 117 l 192 117 l 192 0 l 75 0 "},";":{"ha":267,"x_min":0,"x_max":0,"o":"m 75 540 l 192 540 l 192 424 l 75 424 m 75 -108 b 132 0 119 -92 133 -67 l 75 0 l 75 117 l 192 117 l 192 0 b 75 -168 192 -78 169 -139 "},"<":{"ha":704,"x_min":0,"x_max":0,"o":"m 65 382 l 65 486 l 624 719 l 624 628 l 142 435 l 142 432 l 624 238 l 624 147 "},"=":{"ha":750,"x_min":0,"x_max":0,"o":"m 72 400 l 679 400 l 679 311 l 72 311 m 72 596 l 679 596 l 679 507 l 72 507 "},">":{"ha":704,"x_min":0,"x_max":0,"o":"m 79 238 l 561 431 l 561 433 l 79 628 l 79 719 l 639 485 l 639 381 l 79 147 "},"?":{"ha":663,"x_min":0,"x_max":0,"o":"m 239 117 l 356 117 l 356 0 l 239 0 m 22 682 b 344 1011 22 868 135 1011 b 636 763 519 1011 636 913 b 485 524 636 639 556 581 b 344 250 406 457 344 417 l 243 250 b 407 568 243 432 315 493 b 535 761 475 624 535 667 b 347 921 535 857 467 921 b 124 682 221 921 124 850 l 22 682 "},"@":{"ha":1204,"x_min":0,"x_max":0,"o":"m 592 -144 b 46 407 269 -144 46 69 b 610 988 46 739 286 988 b 1153 458 926 988 1153 768 b 910 114 1153 213 1025 114 b 749 250 814 114 767 171 b 543 115 711 171 647 115 b 311 400 410 115 311 225 b 574 718 311 583 422 718 b 771 583 668 718 746 663 l 774 583 l 789 708 l 868 708 l 822 346 b 915 194 810 253 839 194 b 1071 456 1011 194 1071 292 b 610 908 1071 731 878 908 b 128 407 322 908 128 679 b 593 -64 128 126 319 -64 b 847 -18 685 -64 769 -50 l 876 -83 b 592 -144 792 -126 696 -144 m 392 397 b 557 196 392 281 447 196 b 749 444 679 196 749 307 b 586 639 749 574 675 639 b 392 397 457 639 392 525 "},"A":{"ha":882,"x_min":0,"x_max":0,"o":"m 383 993 l 497 993 l 871 0 l 763 0 l 663 275 l 217 275 l 117 0 l 13 0 m 631 365 l 442 897 l 439 897 l 250 365 "},"B":{"ha":908,"x_min":0,"x_max":0,"o":"m 106 993 l 501 993 b 815 743 697 993 815 899 b 658 533 815 625 747 564 l 658 531 b 856 285 769 510 856 428 b 528 0 856 97 725 0 l 106 0 m 532 89 b 750 285 689 89 750 169 b 557 478 750 401 675 478 l 207 478 l 207 89 m 521 567 b 710 733 658 567 710 635 b 521 904 710 835 649 904 l 207 904 l 207 567 "},"C":{"ha":968,"x_min":0,"x_max":0,"o":"m 511 -18 b 56 496 242 -18 56 194 b 513 1011 56 796 240 1011 b 921 676 744 1011 896 863 l 815 676 b 511 922 796 788 714 922 b 161 496 271 922 161 718 b 511 71 161 274 272 71 b 819 353 721 71 808 215 l 925 353 b 511 -18 901 136 747 -18 "},"D":{"ha":954,"x_min":0,"x_max":0,"o":"m 106 993 l 465 993 b 897 494 743 993 897 801 b 461 0 897 188 739 0 l 106 0 m 461 89 b 792 494 710 89 792 275 b 464 904 792 715 714 904 l 207 904 l 207 89 "},"E":{"ha":838,"x_min":0,"x_max":0,"o":"m 106 993 l 779 993 l 779 904 l 207 904 l 207 563 l 718 563 l 718 474 l 207 474 l 207 89 l 794 89 l 794 0 l 106 0 "},"F":{"ha":788,"x_min":0,"x_max":0,"o":"m 106 993 l 769 993 l 769 904 l 207 904 l 207 553 l 671 553 l 671 464 l 207 464 l 207 0 l 106 0 "},"G":{"ha":1013,"x_min":0,"x_max":0,"o":"m 506 -18 b 57 496 214 -18 57 200 b 518 1011 57 790 236 1011 b 926 699 756 1011 892 886 l 822 699 b 518 922 793 843 678 922 b 163 496 269 922 163 703 b 506 71 163 288 249 71 b 842 419 699 71 842 211 l 513 419 l 513 510 l 943 510 l 943 0 l 874 0 l 843 176 l 840 176 b 506 -18 778 60 675 -18 "},"H":{"ha":976,"x_min":0,"x_max":0,"o":"m 106 993 l 207 993 l 207 564 l 769 564 l 769 993 l 869 993 l 869 0 l 769 0 l 769 475 l 207 475 l 207 0 l 106 0 "},"I":{"ha":313,"x_min":0,"x_max":0,"o":"m 106 993 l 207 993 l 207 0 l 106 0 "},"J":{"ha":689,"x_min":0,"x_max":0,"o":"m 307 -18 b 28 288 99 -18 28 129 l 28 319 l 129 319 l 129 288 b 307 71 129 161 168 71 b 488 288 447 71 488 161 l 488 993 l 589 993 l 589 288 b 307 -18 589 129 515 -18 "},"K":{"ha":874,"x_min":0,"x_max":0,"o":"m 106 993 l 207 993 l 207 432 l 743 993 l 858 993 l 463 581 l 890 0 l 772 0 l 397 513 l 207 314 l 207 0 l 106 0 "},"L":{"ha":763,"x_min":0,"x_max":0,"o":"m 106 993 l 207 993 l 207 89 l 743 89 l 743 0 l 106 0 "},"M":{"ha":1165,"x_min":0,"x_max":0,"o":"m 106 993 l 246 993 l 581 136 l 583 136 l 919 993 l 1060 993 l 1060 0 l 958 0 l 958 850 l 956 850 l 628 0 l 536 0 l 210 850 l 207 850 l 207 0 l 106 0 "},"N":{"ha":976,"x_min":0,"x_max":0,"o":"m 106 993 l 229 993 l 767 143 l 769 143 l 769 993 l 871 993 l 871 0 l 747 0 l 210 850 l 207 850 l 207 0 l 106 0 "},"O":{"ha":1065,"x_min":0,"x_max":0,"o":"m 533 -18 b 56 497 246 -18 56 199 b 533 1011 56 796 246 1011 b 1010 497 819 1011 1010 796 b 533 -18 1010 199 819 -18 m 161 497 b 533 71 161 263 288 71 b 904 497 778 71 904 263 b 533 922 904 732 778 922 b 161 497 288 922 161 732 "},"P":{"ha":840,"x_min":0,"x_max":0,"o":"m 106 993 l 488 993 b 808 707 671 993 808 915 b 488 419 808 499 671 419 l 207 419 l 207 0 l 106 0 m 497 508 b 703 707 632 508 703 571 b 497 904 703 842 632 904 l 207 904 l 207 508 "},"Q":{"ha":1065,"x_min":0,"x_max":0,"o":"m 533 -18 b 56 497 246 -18 56 199 b 533 1011 56 796 246 1011 b 1010 497 819 1011 1010 796 b 885 133 1010 351 964 225 l 1007 11 l 943 -53 l 818 72 b 533 -18 742 15 644 -18 m 161 497 b 533 71 161 263 288 71 b 751 139 622 71 694 96 l 618 274 l 682 336 l 815 203 b 904 497 874 279 904 383 b 533 922 904 732 778 922 b 161 497 288 922 161 732 "},"R":{"ha":889,"x_min":0,"x_max":0,"o":"m 106 993 l 494 993 b 821 713 706 993 821 894 b 636 463 821 581 744 490 l 636 460 b 839 8 864 414 785 25 l 839 0 l 731 0 b 510 413 685 42 775 413 l 207 413 l 207 0 l 106 0 m 469 501 b 719 711 628 501 719 572 b 476 904 719 838 647 904 l 207 904 l 207 501 "},"S":{"ha":856,"x_min":0,"x_max":0,"o":"m 463 -18 b 38 329 224 -18 51 106 l 143 329 b 458 71 157 175 251 71 b 704 268 642 71 704 158 b 399 486 706 415 603 440 b 79 756 236 524 79 574 b 410 1011 79 914 206 1011 b 776 707 625 1011 761 901 l 671 707 b 410 922 654 844 578 922 b 185 760 264 922 185 863 b 449 567 185 626 303 599 b 810 271 653 522 810 472 b 463 -18 810 110 699 -18 "},"T":{"ha":817,"x_min":0,"x_max":0,"o":"m 358 904 l 21 904 l 21 993 l 797 993 l 797 904 l 458 904 l 458 0 l 358 0 "},"U":{"ha":944,"x_min":0,"x_max":0,"o":"m 472 -18 b 99 335 213 -18 99 124 l 99 993 l 200 993 l 200 335 b 472 71 200 157 289 71 b 744 335 656 71 744 157 l 744 993 l 846 993 l 846 335 b 472 -18 846 124 732 -18 "},"V":{"ha":856,"x_min":0,"x_max":0,"o":"m 14 993 l 124 993 l 429 103 l 431 103 l 733 993 l 839 993 l 482 0 l 376 0 "},"W":{"ha":1251,"x_min":0,"x_max":0,"o":"m 24 993 l 131 993 l 333 144 l 336 144 l 569 993 l 682 993 l 915 144 l 919 144 l 1122 993 l 1228 993 l 979 0 l 867 0 l 628 874 l 624 874 l 385 0 l 274 0 "},"X":{"ha":796,"x_min":0,"x_max":0,"o":"m 342 510 l 22 993 l 136 993 l 400 582 l 401 582 l 665 993 l 778 993 l 457 508 l 794 0 l 675 0 l 394 435 l 393 435 l 119 0 l -1 0 "},"Y":{"ha":858,"x_min":0,"x_max":0,"o":"m 378 407 l 15 993 l 125 993 l 428 486 l 431 486 l 735 993 l 843 993 l 479 407 l 479 0 l 378 0 "},"Z":{"ha":817,"x_min":0,"x_max":0,"o":"m 25 89 l 649 901 l 649 904 l 53 904 l 53 993 l 772 993 l 772 904 l 149 92 l 149 89 l 786 89 l 786 0 l 25 0 "},"[":{"ha":367,"x_min":0,"x_max":0,"o":"m 99 1049 l 342 1049 l 342 960 l 199 960 l 199 -74 l 342 -74 l 342 -162 l 99 -162 "},"\\":{"ha":518,"x_min":0,"x_max":0,"o":"m 19 993 l 110 993 l 501 0 l 410 0 "},"]":{"ha":367,"x_min":0,"x_max":0,"o":"m 26 -74 l 168 -74 l 168 960 l 26 960 l 26 1049 l 269 1049 l 269 -162 l 26 -162 "},"^":{"ha":639,"x_min":0,"x_max":0,"o":"m 274 993 l 367 993 l 603 611 l 503 611 l 321 910 l 319 910 l 138 611 l 36 611 "},"_":{"ha":771,"x_min":0,"x_max":0,"o":"m 29 -106 l 743 -106 l 743 -194 l 29 -194 "},"`":{"ha":292,"x_min":0,"x_max":0,"o":"m 49 1007 l 158 1007 l 235 824 l 160 824 "},"a":{"ha":714,"x_min":0,"x_max":0,"o":"m 278 -18 b 46 179 136 -18 46 61 b 338 413 46 332 154 381 b 529 526 454 433 529 442 b 368 647 529 599 482 647 b 175 494 231 647 182 599 l 79 494 b 371 726 86 619 165 726 b 617 501 501 726 617 671 l 617 147 b 657 64 617 90 625 64 b 676 65 663 64 668 64 l 676 0 b 629 -6 661 -3 646 -6 b 529 107 569 -6 535 18 l 526 107 b 278 -18 478 26 393 -18 m 140 188 b 289 61 140 106 186 61 b 529 265 433 61 529 138 l 529 397 b 349 338 508 368 433 351 b 140 188 211 313 140 278 "},"b":{"ha":774,"x_min":0,"x_max":0,"o":"m 415 -17 b 176 121 292 -17 218 44 l 174 121 l 174 0 l 83 0 l 83 993 l 174 993 l 174 594 l 176 594 b 415 726 218 663 292 726 b 728 354 589 726 728 588 b 415 -17 728 122 589 -17 m 174 354 b 406 63 174 176 269 63 b 633 354 553 63 633 196 b 406 649 633 514 553 649 b 174 354 269 649 174 533 "},"c":{"ha":725,"x_min":0,"x_max":0,"o":"m 383 -18 b 44 354 181 -18 44 132 b 383 725 44 575 181 725 b 688 460 556 725 672 610 l 593 460 b 383 646 588 539 531 646 b 139 354 210 646 139 499 b 383 60 139 208 210 60 b 593 253 532 60 588 167 l 688 253 b 383 -18 678 100 556 -18 "},"d":{"ha":774,"x_min":0,"x_max":0,"o":"m 357 -18 b 46 354 185 -18 46 121 b 357 725 46 586 185 725 b 596 589 481 725 554 664 l 599 589 l 599 993 l 689 993 l 689 0 l 599 0 l 599 115 l 596 115 b 357 -18 556 46 481 -18 m 140 354 b 368 61 140 194 221 61 b 599 354 504 61 599 175 b 368 646 599 532 504 646 b 140 354 221 646 140 513 "},"e":{"ha":746,"x_min":0,"x_max":0,"o":"m 383 -19 b 46 354 167 -19 46 139 b 383 726 46 581 179 726 b 703 386 588 726 703 583 b 701 336 703 367 703 347 l 140 336 b 385 58 142 193 218 58 b 601 217 531 58 588 158 l 693 217 b 383 -19 658 88 561 -19 m 607 415 b 379 649 607 542 525 649 b 140 415 242 649 147 547 "},"f":{"ha":364,"x_min":0,"x_max":0,"o":"m 126 813 b 289 1001 126 967 188 1001 b 357 996 308 1001 325 1000 l 357 919 b 301 922 332 921 321 922 b 217 814 233 922 217 901 l 217 708 l 357 708 l 357 629 l 217 629 l 217 0 l 126 0 l 126 629 l 26 629 l 26 708 l 126 708 l 126 813 "},"g":{"ha":774,"x_min":0,"x_max":0,"o":"m 372 -254 b 68 -37 181 -254 79 -161 l 163 -37 b 374 -175 176 -112 236 -175 b 601 32 517 -175 601 -112 l 601 164 l 599 164 b 360 33 557 90 479 33 b 49 381 190 33 49 144 b 360 725 49 614 190 725 b 599 597 479 725 557 668 l 601 597 l 601 708 l 692 708 l 692 44 b 372 -254 692 -156 567 -254 m 143 381 b 372 113 143 218 226 113 b 601 381 503 113 601 199 b 372 646 601 560 503 646 b 143 381 226 646 143 540 "},"h":{"ha":729,"x_min":0,"x_max":0,"o":"m 561 478 b 397 646 561 568 519 646 b 174 447 263 646 174 551 l 174 0 l 83 0 l 83 993 l 174 993 l 174 607 l 176 607 b 419 725 217 665 293 725 b 651 497 546 725 651 654 l 651 0 l 561 0 l 561 478 "},"i":{"ha":257,"x_min":0,"x_max":0,"o":"m 83 708 l 174 708 l 174 0 l 83 0 m 69 967 l 186 967 l 186 850 l 69 850 "},"j":{"ha":257,"x_min":0,"x_max":0,"o":"m 35 -250 b -33 -244 11 -250 -6 -249 l -33 -167 b 19 -171 -12 -169 -1 -171 b 83 -61 65 -171 83 -144 l 83 708 l 174 708 l 174 -68 b 35 -250 174 -206 110 -250 m 69 967 l 186 967 l 186 850 l 69 850 "},"k":{"ha":653,"x_min":0,"x_max":0,"o":"m 83 993 l 174 993 l 174 375 l 525 708 l 636 708 l 357 449 l 671 0 l 564 0 l 296 392 l 174 278 l 174 0 l 83 0 "},"l":{"ha":257,"x_min":0,"x_max":0,"o":"m 83 993 l 174 993 l 174 0 l 83 0 "},"m":{"ha":1106,"x_min":0,"x_max":0,"o":"m 511 478 b 372 646 511 567 490 646 b 174 447 249 646 174 550 l 174 0 l 83 0 l 83 708 l 174 708 l 174 608 l 176 608 b 392 725 214 665 281 725 b 582 594 492 725 556 679 l 585 594 b 819 725 631 665 707 725 b 1028 497 954 725 1028 644 l 1028 0 l 938 0 l 938 478 b 800 646 938 567 917 646 b 601 447 675 646 601 550 l 601 0 l 511 0 l 511 478 "},"n":{"ha":729,"x_min":0,"x_max":0,"o":"m 561 478 b 397 646 561 568 519 646 b 174 447 263 646 174 551 l 174 0 l 83 0 l 83 708 l 174 708 l 174 607 l 176 607 b 419 725 217 665 293 725 b 651 497 546 725 651 654 l 651 0 l 561 0 l 561 478 "},"o":{"ha":769,"x_min":0,"x_max":0,"o":"m 385 -19 b 44 353 172 -19 44 133 b 385 726 44 574 172 726 b 725 353 597 726 725 574 b 385 -19 725 133 597 -19 m 139 353 b 385 60 139 190 219 60 b 631 353 550 60 631 190 b 385 647 631 517 550 647 b 139 353 219 647 139 517 "},"p":{"ha":774,"x_min":0,"x_max":0,"o":"m 415 -17 b 176 119 292 -17 218 44 l 174 119 l 174 -246 l 83 -246 l 83 708 l 174 708 l 174 594 l 176 594 b 415 726 218 663 292 726 b 728 354 589 726 728 588 b 415 -17 728 122 589 -17 m 174 354 b 406 63 174 176 269 63 b 633 354 553 63 633 196 b 406 647 633 514 553 647 b 174 354 269 647 174 533 "},"q":{"ha":772,"x_min":0,"x_max":0,"o":"m 357 -18 b 46 354 185 -18 46 121 b 357 725 46 586 185 725 b 596 589 481 725 554 664 l 599 589 l 599 708 l 689 708 l 689 -246 l 599 -246 l 599 115 l 596 115 b 357 -18 556 46 481 -18 m 140 354 b 368 61 140 194 221 61 b 599 354 504 61 599 175 b 368 646 599 532 504 646 b 140 354 221 646 140 513 "},"r":{"ha":451,"x_min":0,"x_max":0,"o":"m 174 0 l 83 0 l 83 708 l 174 708 l 174 564 l 176 564 b 378 725 213 657 278 725 b 439 721 403 725 422 724 l 439 632 b 396 636 425 635 410 636 b 174 396 268 636 174 533 "},"s":{"ha":656,"x_min":0,"x_max":0,"o":"m 344 -18 b 33 232 146 -18 38 90 l 128 232 b 346 61 133 135 197 61 b 526 193 481 61 526 124 b 322 332 526 297 421 308 b 60 535 192 365 60 397 b 311 725 60 650 151 725 b 594 510 496 725 582 626 l 500 510 b 313 646 488 572 450 646 b 154 540 211 646 154 607 b 357 413 154 451 250 439 b 622 196 490 381 622 343 b 344 -18 622 67 519 -18 "},"t":{"ha":389,"x_min":0,"x_max":0,"o":"m 289 -6 b 122 183 186 -6 122 29 l 122 629 l 18 629 l 18 708 l 122 708 l 122 944 l 213 944 l 213 708 l 356 708 l 356 629 l 213 629 l 213 182 b 301 74 213 94 232 74 b 356 76 324 74 335 75 l 356 0 b 289 -6 328 -4 311 -6 "},"u":{"ha":729,"x_min":0,"x_max":0,"o":"m 310 -17 b 78 211 183 -17 78 54 l 78 708 l 168 708 l 168 231 b 332 63 168 140 210 63 b 556 261 467 63 556 157 l 556 708 l 646 708 l 646 0 l 556 0 l 556 100 l 553 100 b 310 -17 513 42 436 -17 "},"v":{"ha":650,"x_min":0,"x_max":0,"o":"m 14 708 l 114 708 l 326 92 l 328 92 l 539 708 l 636 708 l 376 0 l 274 0 "},"w":{"ha":1024,"x_min":0,"x_max":0,"o":"m 18 708 l 118 708 l 294 103 l 297 103 l 463 708 l 564 708 l 729 103 l 732 103 l 910 708 l 1007 708 l 781 0 l 679 0 l 513 599 l 510 599 l 343 0 l 243 0 "},"x":{"ha":649,"x_min":0,"x_max":0,"o":"m 269 363 l 14 708 l 124 708 l 324 426 l 326 426 l 525 708 l 633 708 l 379 363 l 658 0 l 549 0 l 325 301 l 322 301 l 100 0 l -8 0 "},"y":{"ha":668,"x_min":0,"x_max":0,"o":"m 146 -249 b 78 -243 124 -249 107 -247 l 78 -165 b 132 -169 99 -168 110 -169 b 292 4 199 -169 253 -126 l 6 708 l 106 708 l 336 118 l 339 118 l 558 708 l 656 708 l 372 -21 b 146 -249 303 -197 240 -249 "},"z":{"ha":613,"x_min":0,"x_max":0,"o":"m 25 69 l 446 626 l 446 629 l 47 629 l 47 708 l 571 708 l 571 651 l 142 82 l 142 79 l 586 79 l 586 0 l 25 0 "},"{":{"ha":383,"x_min":0,"x_max":0,"o":"m 329 -162 b 124 100 181 -162 124 -106 l 124 264 b 33 399 124 343 99 399 l 33 488 b 124 621 99 486 124 542 l 124 792 b 329 1049 124 999 181 1049 l 353 1049 l 353 960 l 329 960 b 224 804 256 960 224 926 l 224 593 b 140 444 224 514 190 472 l 140 442 b 224 292 190 414 224 372 l 224 88 b 329 -74 224 -37 256 -74 l 353 -74 l 353 -162 l 329 -162 "},"|":{"ha":293,"x_min":0,"x_max":0,"o":"m 106 1033 l 188 1033 l 188 -178 l 106 -178 "},"}":{"ha":383,"x_min":0,"x_max":0,"o":"m 31 -74 l 53 -74 b 158 82 128 -74 158 -40 l 158 293 b 242 442 158 372 193 414 l 242 444 b 158 594 193 472 158 514 l 158 799 b 53 960 158 925 128 960 l 31 960 l 31 1049 l 53 1049 b 260 786 201 1049 260 993 l 260 622 b 349 488 260 543 285 488 l 349 399 b 260 265 285 400 260 344 l 260 94 b 53 -162 260 -111 201 -162 l 31 -162 "},"~":{"ha":593,"x_min":0,"x_max":0,"o":"m 78 383 b 197 536 79 474 124 536 b 379 467 281 536 329 467 b 436 535 421 467 435 503 l 518 535 b 399 382 515 446 472 382 b 215 451 315 382 267 451 b 158 383 174 451 160 415 l 78 383 "}," ":{"ha":304,"x_min":0,"x_max":0,"o":""},"¡":{"ha":285,"x_min":0,"x_max":0,"o":"m 90 119 l 114 557 l 171 557 l 194 119 l 194 -181 l 90 -181 m 83 813 l 200 813 l 200 696 l 83 696 "},"¢":{"ha":768,"x_min":0,"x_max":0,"o":"m 368 128 b 69 499 188 147 69 292 b 368 868 69 704 188 849 l 368 981 l 439 981 l 439 868 b 713 604 594 856 699 744 l 618 604 b 439 789 613 678 564 775 l 439 206 b 618 397 565 219 613 317 l 713 397 b 439 128 703 254 594 140 l 439 7 l 368 7 m 164 499 b 368 207 164 365 224 228 l 368 788 b 164 499 224 767 164 632 "},"£":{"ha":786,"x_min":0,"x_max":0,"o":"m 558 -18 b 290 67 442 -18 383 67 b 113 0 231 67 183 46 l 57 75 b 189 353 135 129 189 231 b 185 397 189 368 188 383 l 67 397 l 67 481 l 154 481 b 93 696 126 540 93 604 b 407 969 93 810 179 969 b 722 653 629 969 722 829 l 622 653 b 407 881 622 796 551 881 b 194 686 279 881 194 806 b 258 481 194 604 231 544 l 489 481 l 489 397 l 285 397 b 289 349 288 382 289 365 b 182 108 289 250 247 161 l 183 106 b 319 149 215 124 261 149 b 549 79 421 149 468 79 b 701 147 613 79 654 107 l 746 67 b 558 -18 697 26 646 -18 "},"¤":{"ha":725,"x_min":0,"x_max":0,"o":"m 363 203 b 197 258 304 203 244 222 l 110 171 l 60 221 l 147 310 b 96 478 115 353 96 410 b 149 647 96 547 115 603 l 60 736 l 110 786 l 197 697 b 363 753 244 733 304 753 b 528 696 421 753 481 733 l 615 785 l 665 736 l 576 646 b 628 478 608 603 628 546 b 578 311 628 410 608 354 l 665 222 l 615 171 l 528 260 b 363 203 481 222 421 203 m 188 478 b 363 282 188 346 265 282 b 536 478 458 282 536 346 b 363 674 536 610 458 674 b 188 478 265 674 188 610 "},"¥":{"ha":813,"x_min":0,"x_max":0,"o":"m 356 185 l 100 185 l 100 254 l 356 254 l 356 347 l 100 347 l 100 418 l 342 418 l 38 953 l 146 953 l 404 478 l 407 478 l 667 953 l 775 953 l 471 418 l 711 418 l 711 347 l 457 347 l 457 254 l 711 254 l 711 185 l 457 185 l 457 0 l 356 0 "},"¦":{"ha":293,"x_min":0,"x_max":0,"o":"m 106 340 l 188 340 l 188 -178 l 106 -178 m 106 1033 l 188 1033 l 188 533 l 106 533 "},"§":{"ha":810,"x_min":0,"x_max":0,"o":"m 411 -261 b 142 -26 221 -261 147 -154 l 232 -26 b 410 -182 235 -107 271 -182 b 575 -60 528 -182 575 -131 b 386 139 575 40 482 85 l 317 181 b 64 447 176 263 64 317 b 213 635 64 550 122 613 b 143 792 171 675 143 725 b 397 1003 143 907 222 1003 b 668 768 589 1003 663 894 l 576 768 b 399 924 571 842 550 924 b 233 800 281 924 233 872 b 428 599 233 696 331 653 l 499 560 b 746 294 639 481 746 425 b 599 107 746 192 689 129 b 667 -50 640 67 667 18 b 411 -261 667 -165 586 -261 m 154 463 b 368 254 154 371 246 322 l 450 208 b 529 161 478 193 504 178 b 654 279 613 171 654 214 b 446 488 654 371 557 426 l 365 533 b 285 581 338 549 310 564 b 154 463 197 572 154 529 "},"¨":{"ha":444,"x_min":0,"x_max":0,"o":"m 57 967 l 174 967 l 174 850 l 57 850 m 263 967 l 379 967 l 379 850 l 263 850 "},"©":{"ha":1175,"x_min":0,"x_max":0,"o":"m 589 -18 b 71 496 276 -18 71 185 b 589 1011 71 808 276 1011 b 1106 496 900 1011 1106 808 b 589 -18 1106 185 900 -18 m 154 496 b 589 56 154 229 328 56 b 1021 496 849 56 1021 229 b 589 938 1021 764 849 938 b 154 496 328 938 154 764 m 308 496 b 592 811 308 679 413 811 b 853 597 744 811 838 715 l 772 597 b 594 732 763 646 719 732 b 393 496 447 732 393 622 b 594 261 393 369 447 261 b 774 406 722 261 767 347 l 854 406 b 599 182 846 278 750 182 b 308 496 417 182 308 311 "},"ª":{"ha":588,"x_min":0,"x_max":0,"o":"m 222 432 b 49 588 115 432 49 492 b 268 756 49 697 133 732 b 408 850 349 771 408 782 b 290 935 408 900 372 935 b 158 819 199 935 163 892 l 72 819 b 297 1003 76 917 140 1003 b 492 825 407 1003 492 958 l 492 561 b 519 504 492 525 496 504 l 536 504 l 536 449 b 489 442 518 444 503 442 b 410 528 438 442 414 467 l 406 528 b 222 432 368 467 301 432 m 136 592 b 244 504 136 536 171 504 b 408 653 342 504 408 565 l 408 746 b 281 696 394 722 353 710 b 136 592 197 681 136 657 "},"«":{"ha":640,"x_min":0,"x_max":0,"o":"m 294 307 l 294 415 l 565 638 l 565 533 l 347 363 l 347 360 l 565 189 l 565 83 m 61 415 l 333 638 l 333 533 l 115 363 l 115 360 l 333 189 l 333 83 l 61 307 "},"¬":{"ha":711,"x_min":0,"x_max":0,"o":"m 522 457 l 60 457 l 60 547 l 624 547 l 624 201 l 522 201 "},"­":{"ha":488,"x_min":0,"x_max":0,"o":"m 57 399 l 429 399 l 429 310 l 57 310 "},"®":{"ha":794,"x_min":0,"x_max":0,"o":"m 397 346 b 68 681 214 346 68 488 b 397 1015 68 872 214 1015 b 726 681 581 1015 726 872 b 397 346 726 488 581 346 m 122 681 b 397 394 122 513 246 394 b 672 681 550 394 672 513 b 397 967 672 847 550 967 b 122 681 246 967 122 847 m 264 867 l 413 867 b 540 760 496 867 540 828 b 460 668 540 710 510 679 l 460 665 b 547 503 551 649 522 513 l 547 499 l 472 499 b 390 638 446 518 482 638 l 338 638 l 338 499 l 264 499 m 394 699 b 469 754 439 699 469 710 b 396 806 469 797 438 806 l 338 806 l 338 699 "},"¯":{"ha":457,"x_min":0,"x_max":0,"o":"m 56 938 l 401 938 l 401 858 l 56 858 "},"°":{"ha":532,"x_min":0,"x_max":0,"o":"m 265 594 b 54 803 119 594 54 710 b 265 1011 54 896 119 1011 b 478 803 410 1011 478 896 b 265 594 478 710 410 594 m 128 803 b 265 665 128 725 181 665 b 403 803 351 665 403 725 b 265 942 403 882 351 942 b 128 803 181 942 128 882 "},"±":{"ha":753,"x_min":0,"x_max":0,"o":"m 332 443 l 69 443 l 69 532 l 332 532 l 331 803 l 422 803 l 422 532 l 685 532 l 685 443 l 422 443 l 422 171 l 331 171 m 69 82 l 685 82 l 685 -7 l 69 -7 "},"²":{"ha":474,"x_min":0,"x_max":0,"o":"m 29 504 b 169 726 29 606 85 669 b 343 910 261 788 343 821 b 246 1007 343 961 317 1007 b 129 874 165 1007 129 953 l 43 874 b 249 1081 43 986 110 1081 b 435 915 358 1081 435 1021 b 275 706 435 808 356 758 b 146 579 218 671 160 636 l 146 576 l 431 576 l 431 504 l 29 504 "},"³":{"ha":501,"x_min":0,"x_max":0,"o":"m 258 503 b 32 707 114 503 32 578 l 119 707 b 253 575 119 626 158 575 b 369 674 333 575 369 613 b 254 774 369 747 315 774 l 206 774 l 206 842 l 251 842 b 351 928 313 842 351 869 b 253 1017 351 979 321 1017 b 136 910 167 1017 136 969 l 49 910 b 257 1090 49 1013 121 1090 b 442 936 354 1090 442 1035 b 356 813 442 878 413 836 l 356 811 b 461 671 429 788 461 738 b 258 503 461 563 378 503 "},"´":{"ha":292,"x_min":0,"x_max":0,"o":"m 133 1007 l 242 1007 l 122 824 l 47 824 "},"µ":{"ha":763,"x_min":0,"x_max":0,"o":"m 97 708 l 188 708 l 188 231 b 353 63 188 140 228 63 b 575 261 485 63 575 157 l 575 708 l 665 708 l 665 0 l 575 0 l 575 100 l 572 100 b 340 -17 533 42 460 -17 b 188 35 282 -17 228 0 l 188 -246 l 97 -246 "},"¶":{"ha":726,"x_min":0,"x_max":0,"o":"m 344 486 l 283 486 b 26 736 118 486 26 569 b 283 993 26 903 118 993 l 617 993 l 617 0 l 536 0 l 536 904 l 426 904 l 426 0 l 344 0 "},"·":{"ha":264,"x_min":0,"x_max":0,"o":"m 72 407 l 189 407 l 189 290 l 72 290 "},"¸":{"ha":394,"x_min":0,"x_max":0,"o":"m 199 -269 b 56 -228 144 -269 93 -251 l 82 -197 b 182 -219 114 -211 144 -219 b 258 -164 232 -219 258 -199 b 200 -118 258 -131 236 -118 b 142 -129 181 -118 156 -122 l 125 -104 l 210 0 l 271 0 l 208 -75 l 208 -78 b 339 -165 271 -67 339 -92 b 199 -269 339 -239 272 -269 "},"¹":{"ha":292,"x_min":0,"x_max":0,"o":"m 135 926 b 17 899 108 901 63 899 l 17 969 b 150 1069 104 971 147 1000 l 224 1069 l 224 506 l 135 506 l 135 926 "},"º":{"ha":613,"x_min":0,"x_max":0,"o":"m 307 432 b 44 718 143 432 44 550 b 307 1003 44 885 144 1003 b 568 718 469 1003 568 886 b 307 432 568 550 469 432 m 129 718 b 307 506 129 600 186 506 b 483 718 426 506 483 600 b 307 929 483 836 426 929 b 129 718 186 929 129 836 "},"»":{"ha":640,"x_min":0,"x_max":0,"o":"m 307 188 l 525 360 l 525 363 l 307 533 l 307 638 l 579 415 l 579 306 l 307 83 m 74 188 l 292 360 l 292 363 l 74 533 l 74 638 l 346 415 l 346 306 l 74 83 "},"¼":{"ha":997,"x_min":0,"x_max":0,"o":"m 144 850 b 26 822 118 825 72 822 l 26 893 b 160 993 114 894 157 924 l 233 993 l 233 429 l 144 429 l 144 850 m 708 993 l 811 993 l 182 0 l 79 0 m 536 214 l 804 564 l 892 564 l 892 204 l 974 204 l 974 131 l 892 131 l 892 0 l 804 0 l 804 131 l 536 131 m 804 204 l 804 458 l 611 204 "},"½":{"ha":1060,"x_min":0,"x_max":0,"o":"m 150 850 b 32 822 124 825 78 822 l 32 893 b 165 993 119 894 163 924 l 239 993 l 239 429 l 150 429 l 150 850 m 714 993 l 817 993 l 188 0 l 85 0 m 604 0 b 744 222 604 101 660 165 b 918 406 836 283 918 317 b 821 503 918 457 892 503 b 704 369 740 503 704 449 l 618 369 b 824 576 618 482 685 576 b 1010 411 933 576 1010 517 b 850 201 1010 304 931 254 b 721 75 793 167 735 132 l 721 72 l 1006 72 l 1006 0 l 604 0 "},"¾":{"ha":1215,"x_min":0,"x_max":0,"o":"m 269 419 b 43 624 125 419 43 494 l 131 624 b 264 492 131 543 169 492 b 381 590 344 492 381 529 b 265 690 381 664 326 690 l 217 690 l 217 758 l 263 758 b 363 844 324 758 363 786 b 264 933 363 896 332 933 b 147 826 178 933 147 886 l 60 826 b 268 1007 60 929 132 1007 b 453 853 365 1007 453 951 b 367 729 453 794 424 753 l 367 728 b 472 588 440 704 472 654 b 269 419 472 479 389 419 m 935 993 l 1038 993 l 408 0 l 306 0 m 749 214 l 1017 564 l 1104 564 l 1104 204 l 1186 204 l 1186 131 l 1104 131 l 1104 0 l 1017 0 l 1017 131 l 749 131 m 1017 204 l 1017 458 l 824 204 "},"¿":{"ha":664,"x_min":0,"x_max":0,"o":"m 318 -200 b 26 49 143 -200 26 -101 b 178 288 26 172 108 231 b 319 561 257 354 319 394 l 419 561 b 256 243 419 381 347 318 b 128 50 189 188 128 144 b 315 -110 128 -46 196 -110 b 539 129 442 -110 539 -39 l 640 129 b 318 -200 640 -57 528 -200 m 307 811 l 424 811 l 424 694 l 307 694 "},"À":{"ha":882,"x_min":0,"x_max":0,"o":"m 383 993 l 497 993 l 871 0 l 763 0 l 663 275 l 217 275 l 117 0 l 13 0 m 631 365 l 442 897 l 439 897 l 250 365 m 396 1292 l 472 1108 l 397 1108 l 286 1292 "},"Á":{"ha":882,"x_min":0,"x_max":0,"o":"m 383 993 l 497 993 l 871 0 l 763 0 l 663 275 l 217 275 l 117 0 l 13 0 m 631 365 l 442 897 l 439 897 l 250 365 m 479 1292 l 588 1292 l 468 1108 l 393 1108 "},"Â":{"ha":882,"x_min":0,"x_max":0,"o":"m 383 993 l 497 993 l 871 0 l 763 0 l 663 275 l 217 275 l 117 0 l 13 0 m 631 365 l 442 897 l 439 897 l 250 365 m 389 1292 l 492 1292 l 617 1111 l 522 1111 l 440 1240 l 439 1240 l 357 1111 l 263 1111 "},"Ã":{"ha":882,"x_min":0,"x_max":0,"o":"m 383 993 l 497 993 l 871 0 l 763 0 l 663 275 l 217 275 l 117 0 l 13 0 m 249 1118 b 349 1243 250 1206 296 1243 b 521 1186 419 1243 478 1186 b 558 1240 550 1186 557 1213 l 629 1240 b 529 1117 628 1151 582 1117 b 357 1174 460 1117 400 1174 b 319 1118 328 1174 321 1144 l 249 1118 m 631 365 l 442 897 l 439 897 l 250 365 "},"Ä":{"ha":882,"x_min":0,"x_max":0,"o":"m 383 993 l 497 993 l 871 0 l 763 0 l 663 275 l 217 275 l 117 0 l 13 0 m 631 365 l 442 897 l 439 897 l 250 365 m 278 1251 l 394 1251 l 394 1135 l 278 1135 m 485 1251 l 601 1251 l 601 1135 l 485 1135 "},"Å":{"ha":882,"x_min":0,"x_max":0,"o":"m 383 993 l 497 993 l 871 0 l 763 0 l 663 275 l 217 275 l 117 0 l 13 0 m 631 365 l 442 897 l 439 897 l 250 365 m 319 1182 b 439 1300 319 1253 369 1300 b 558 1182 508 1300 558 1253 b 439 1064 558 1113 508 1064 b 319 1182 369 1064 319 1113 m 371 1182 b 439 1111 371 1140 397 1111 b 508 1182 481 1111 508 1140 b 439 1253 508 1222 481 1253 b 371 1182 397 1253 371 1222 "},"Æ":{"ha":1328,"x_min":0,"x_max":0,"o":"m 383 993 l 1271 993 l 1271 904 l 699 904 l 699 563 l 1210 563 l 1210 474 l 699 474 l 699 89 l 1286 89 l 1286 0 l 597 0 l 597 275 l 217 275 l 117 0 l 13 0 m 597 365 l 597 901 l 439 901 l 250 365 "},"Ç":{"ha":968,"x_min":0,"x_max":0,"o":"m 478 -269 b 335 -228 424 -269 372 -251 l 361 -197 b 461 -219 393 -211 424 -219 b 538 -164 511 -219 538 -199 b 479 -118 538 -131 515 -118 b 421 -129 460 -118 435 -122 l 404 -104 l 475 -17 b 56 496 225 1 56 208 b 513 1011 56 796 240 1011 b 921 676 744 1011 896 863 l 815 676 b 511 922 796 788 714 922 b 161 496 271 922 161 718 b 511 71 161 274 272 71 b 819 353 721 71 808 215 l 925 353 b 535 -18 903 143 758 -7 l 488 -75 l 488 -78 b 618 -165 550 -67 618 -92 b 478 -269 618 -239 551 -269 "},"È":{"ha":838,"x_min":0,"x_max":0,"o":"m 106 993 l 779 993 l 779 904 l 207 904 l 207 563 l 718 563 l 718 474 l 207 474 l 207 89 l 794 89 l 794 0 l 106 0 m 404 1292 l 481 1108 l 406 1108 l 294 1292 "},"É":{"ha":838,"x_min":0,"x_max":0,"o":"m 106 993 l 779 993 l 779 904 l 207 904 l 207 563 l 718 563 l 718 474 l 207 474 l 207 89 l 794 89 l 794 0 l 106 0 m 488 1292 l 596 1292 l 476 1108 l 401 1108 "},"Ê":{"ha":838,"x_min":0,"x_max":0,"o":"m 106 993 l 779 993 l 779 904 l 207 904 l 207 563 l 718 563 l 718 474 l 207 474 l 207 89 l 794 89 l 794 0 l 106 0 m 397 1292 l 500 1292 l 625 1111 l 531 1111 l 449 1240 l 447 1240 l 365 1111 l 271 1111 "},"Ë":{"ha":838,"x_min":0,"x_max":0,"o":"m 106 993 l 779 993 l 779 904 l 207 904 l 207 563 l 718 563 l 718 474 l 207 474 l 207 89 l 794 89 l 794 0 l 106 0 m 286 1251 l 403 1251 l 403 1135 l 286 1135 m 493 1251 l 610 1251 l 610 1135 l 493 1135 "},"Ì":{"ha":313,"x_min":0,"x_max":0,"o":"m 106 993 l 207 993 l 207 0 l 106 0 m 113 1292 l 189 1108 l 114 1108 l 3 1292 "},"Í":{"ha":313,"x_min":0,"x_max":0,"o":"m 106 993 l 207 993 l 207 0 l 106 0 m 196 1292 l 304 1292 l 185 1108 l 110 1108 "},"Î":{"ha":313,"x_min":0,"x_max":0,"o":"m 106 993 l 207 993 l 207 0 l 106 0 m 106 1292 l 208 1292 l 333 1111 l 239 1111 l 157 1240 l 156 1240 l 74 1111 l -21 1111 "},"Ï":{"ha":313,"x_min":0,"x_max":0,"o":"m 106 993 l 207 993 l 207 0 l 106 0 m -6 1251 l 111 1251 l 111 1135 l -6 1135 m 201 1251 l 318 1251 l 318 1135 l 201 1135 "},"Ð":{"ha":985,"x_min":0,"x_max":0,"o":"m 136 474 l 19 474 l 19 554 l 136 554 l 136 993 l 496 993 b 928 494 774 993 928 801 b 492 0 928 188 769 0 l 136 0 m 492 89 b 822 494 740 89 822 275 b 494 904 822 715 744 904 l 238 904 l 238 554 l 547 554 l 547 474 l 238 474 l 238 89 "},"Ñ":{"ha":976,"x_min":0,"x_max":0,"o":"m 106 993 l 229 993 l 767 143 l 769 143 l 769 993 l 871 993 l 871 0 l 747 0 l 210 850 l 207 850 l 207 0 l 106 0 m 297 1118 b 397 1243 299 1206 344 1243 b 569 1186 468 1243 526 1186 b 607 1240 599 1186 606 1213 l 678 1240 b 578 1117 676 1151 631 1117 b 406 1174 508 1117 449 1174 b 368 1118 376 1174 369 1144 l 297 1118 "},"Ò":{"ha":1065,"x_min":0,"x_max":0,"o":"m 533 -18 b 56 497 246 -18 56 199 b 533 1011 56 796 246 1011 b 1010 497 819 1011 1010 796 b 533 -18 1010 199 819 -18 m 161 497 b 533 71 161 263 288 71 b 904 497 778 71 904 263 b 533 922 904 732 778 922 b 161 497 288 922 161 732 m 489 1292 l 565 1108 l 490 1108 l 379 1292 "},"Ó":{"ha":1065,"x_min":0,"x_max":0,"o":"m 533 -18 b 56 497 246 -18 56 199 b 533 1011 56 796 246 1011 b 1010 497 819 1011 1010 796 b 533 -18 1010 199 819 -18 m 161 497 b 533 71 161 263 288 71 b 904 497 778 71 904 263 b 533 922 904 732 778 922 b 161 497 288 922 161 732 m 572 1292 l 681 1292 l 561 1108 l 486 1108 "},"Ô":{"ha":1065,"x_min":0,"x_max":0,"o":"m 533 -18 b 56 497 246 -18 56 199 b 533 1011 56 796 246 1011 b 1010 497 819 1011 1010 796 b 533 -18 1010 199 819 -18 m 161 497 b 533 71 161 263 288 71 b 904 497 778 71 904 263 b 533 922 904 732 778 922 b 161 497 288 922 161 732 m 482 1292 l 585 1292 l 710 1111 l 615 1111 l 533 1240 l 532 1240 l 450 1111 l 356 1111 "},"Õ":{"ha":1065,"x_min":0,"x_max":0,"o":"m 533 -18 b 56 497 246 -18 56 199 b 533 1011 56 796 246 1011 b 1010 497 819 1011 1010 796 b 533 -18 1010 199 819 -18 m 161 497 b 533 71 161 263 288 71 b 904 497 778 71 904 263 b 533 922 904 732 778 922 b 161 497 288 922 161 732 m 342 1118 b 442 1243 343 1206 389 1243 b 614 1186 513 1243 571 1186 b 651 1240 643 1186 650 1213 l 722 1240 b 622 1117 721 1151 675 1117 b 450 1174 553 1117 493 1174 b 413 1118 421 1174 414 1144 l 342 1118 "},"Ö":{"ha":1065,"x_min":0,"x_max":0,"o":"m 533 -18 b 56 497 246 -18 56 199 b 533 1011 56 796 246 1011 b 1010 497 819 1011 1010 796 b 533 -18 1010 199 819 -18 m 161 497 b 533 71 161 263 288 71 b 904 497 778 71 904 263 b 533 922 904 732 778 922 b 161 497 288 922 161 732 m 371 1251 l 488 1251 l 488 1135 l 371 1135 m 578 1251 l 694 1251 l 694 1135 l 578 1135 "},"×":{"ha":753,"x_min":0,"x_max":0,"o":"m 99 238 l 313 451 l 99 665 l 164 729 l 376 515 l 590 729 l 654 665 l 440 451 l 654 238 l 590 174 l 376 388 l 164 174 "},"Ø":{"ha":1075,"x_min":0,"x_max":0,"o":"m 53 50 l 163 161 b 60 497 97 250 60 365 b 538 1011 60 796 250 1011 b 869 879 674 1011 788 963 l 976 988 l 1021 946 l 910 833 b 1014 497 976 746 1014 629 b 538 -18 1014 199 824 -18 b 201 115 400 -18 285 32 l 94 7 m 165 497 b 233 233 165 397 188 306 l 803 811 b 538 922 742 881 653 922 b 165 497 292 922 165 732 m 269 185 b 538 71 332 114 421 71 b 908 497 782 71 908 263 b 840 763 908 597 885 690 l 269 185 "},"Ù":{"ha":944,"x_min":0,"x_max":0,"o":"m 472 -18 b 99 335 213 -18 99 124 l 99 993 l 200 993 l 200 335 b 472 71 200 157 289 71 b 744 335 656 71 744 157 l 744 993 l 846 993 l 846 335 b 472 -18 846 124 732 -18 m 428 1292 l 504 1108 l 429 1108 l 318 1292 "},"Ú":{"ha":944,"x_min":0,"x_max":0,"o":"m 472 -18 b 99 335 213 -18 99 124 l 99 993 l 200 993 l 200 335 b 472 71 200 157 289 71 b 744 335 656 71 744 157 l 744 993 l 846 993 l 846 335 b 472 -18 846 124 732 -18 m 511 1292 l 619 1292 l 500 1108 l 425 1108 "},"Û":{"ha":944,"x_min":0,"x_max":0,"o":"m 472 -18 b 99 335 213 -18 99 124 l 99 993 l 200 993 l 200 335 b 472 71 200 157 289 71 b 744 335 656 71 744 157 l 744 993 l 846 993 l 846 335 b 472 -18 846 124 732 -18 m 421 1292 l 524 1292 l 649 1111 l 554 1111 l 472 1240 l 471 1240 l 389 1111 l 294 1111 "},"Ü":{"ha":944,"x_min":0,"x_max":0,"o":"m 472 -18 b 99 335 213 -18 99 124 l 99 993 l 200 993 l 200 335 b 472 71 200 157 289 71 b 744 335 656 71 744 157 l 744 993 l 846 993 l 846 335 b 472 -18 846 124 732 -18 m 311 1251 l 428 1251 l 428 1135 l 311 1135 m 518 1251 l 635 1251 l 635 1135 l 518 1135 "},"Ý":{"ha":858,"x_min":0,"x_max":0,"o":"m 378 407 l 15 993 l 125 993 l 428 486 l 431 486 l 735 993 l 843 993 l 479 407 l 479 0 l 378 0 m 469 1292 l 578 1292 l 458 1108 l 383 1108 "},"Þ":{"ha":843,"x_min":0,"x_max":0,"o":"m 106 993 l 207 993 l 207 831 l 488 831 b 808 544 671 831 808 753 b 488 257 808 336 671 257 l 207 257 l 207 0 l 106 0 m 501 346 b 707 544 635 346 707 408 b 501 742 707 679 635 742 l 207 742 l 207 346 "},"ß":{"ha":708,"x_min":0,"x_max":0,"o":"m 404 -18 b 274 1 357 -18 315 -11 l 274 81 b 382 60 313 65 349 60 b 571 275 507 60 571 153 b 328 511 571 449 440 511 l 286 511 l 286 589 l 324 589 b 522 769 421 589 522 643 b 356 932 522 854 476 932 b 174 700 210 932 174 831 l 174 0 l 83 0 l 83 728 b 356 1011 83 904 182 1011 b 617 772 504 1011 617 925 b 460 551 617 654 550 590 l 460 549 b 665 267 581 510 665 428 b 404 -18 665 100 569 -18 "},"à":{"ha":714,"x_min":0,"x_max":0,"o":"m 278 -18 b 46 179 136 -18 46 61 b 338 413 46 332 154 381 b 529 526 454 433 529 442 b 368 647 529 599 482 647 b 175 494 231 647 182 599 l 79 494 b 371 726 86 619 165 726 b 617 501 501 726 617 671 l 617 147 b 657 64 617 90 625 64 b 676 65 663 64 668 64 l 676 0 b 629 -6 661 -3 646 -6 b 529 107 569 -6 535 18 l 526 107 b 278 -18 478 26 393 -18 m 140 188 b 289 61 140 106 186 61 b 529 265 433 61 529 138 l 529 397 b 349 338 508 368 433 351 b 140 188 211 313 140 278 m 322 1007 l 399 824 l 324 824 l 213 1007 "},"á":{"ha":714,"x_min":0,"x_max":0,"o":"m 278 -18 b 46 179 136 -18 46 61 b 338 413 46 332 154 381 b 529 526 454 433 529 442 b 368 647 529 599 482 647 b 175 494 231 647 182 599 l 79 494 b 371 726 86 619 165 726 b 617 501 501 726 617 671 l 617 147 b 657 64 617 90 625 64 b 676 65 663 64 668 64 l 676 0 b 629 -6 661 -3 646 -6 b 529 107 569 -6 535 18 l 526 107 b 278 -18 478 26 393 -18 m 140 188 b 289 61 140 106 186 61 b 529 265 433 61 529 138 l 529 397 b 349 338 508 368 433 351 b 140 188 211 313 140 278 m 406 1007 l 514 1007 l 394 824 l 319 824 "},"â":{"ha":714,"x_min":0,"x_max":0,"o":"m 278 -18 b 46 179 136 -18 46 61 b 338 413 46 332 154 381 b 529 526 454 433 529 442 b 368 647 529 599 482 647 b 175 494 231 647 182 599 l 79 494 b 371 726 86 619 165 726 b 617 501 501 726 617 671 l 617 147 b 657 64 617 90 625 64 b 676 65 663 64 668 64 l 676 0 b 629 -6 661 -3 646 -6 b 529 107 569 -6 535 18 l 526 107 b 278 -18 478 26 393 -18 m 140 188 b 289 61 140 106 186 61 b 529 265 433 61 529 138 l 529 397 b 349 338 508 368 433 351 b 140 188 211 313 140 278 m 315 1007 l 418 1007 l 543 826 l 449 826 l 367 956 l 365 956 l 283 826 l 189 826 "},"ã":{"ha":714,"x_min":0,"x_max":0,"o":"m 278 -18 b 46 179 136 -18 46 61 b 338 413 46 332 154 381 b 529 526 454 433 529 442 b 368 647 529 599 482 647 b 175 494 231 647 182 599 l 79 494 b 371 726 86 619 165 726 b 617 501 501 726 617 671 l 617 147 b 657 64 617 90 625 64 b 676 65 663 64 668 64 l 676 0 b 629 -6 661 -3 646 -6 b 529 107 569 -6 535 18 l 526 107 b 278 -18 478 26 393 -18 m 140 188 b 289 61 140 106 186 61 b 529 265 433 61 529 138 l 529 397 b 349 338 508 368 433 351 b 140 188 211 313 140 278 m 175 833 b 275 958 176 921 222 958 b 447 901 346 958 404 901 b 485 956 476 901 483 928 l 556 956 b 456 832 554 867 508 832 b 283 889 386 832 326 889 b 246 833 254 889 247 860 l 175 833 "},"ä":{"ha":714,"x_min":0,"x_max":0,"o":"m 278 -18 b 46 179 136 -18 46 61 b 338 413 46 332 154 381 b 529 526 454 433 529 442 b 368 647 529 599 482 647 b 175 494 231 647 182 599 l 79 494 b 371 726 86 619 165 726 b 617 501 501 726 617 671 l 617 147 b 657 64 617 90 625 64 b 676 65 663 64 668 64 l 676 0 b 629 -6 661 -3 646 -6 b 529 107 569 -6 535 18 l 526 107 b 278 -18 478 26 393 -18 m 140 188 b 289 61 140 106 186 61 b 529 265 433 61 529 138 l 529 397 b 349 338 508 368 433 351 b 140 188 211 313 140 278 m 206 967 l 322 967 l 322 850 l 206 850 m 413 967 l 529 967 l 529 850 l 413 850 "},"å":{"ha":714,"x_min":0,"x_max":0,"o":"m 278 -18 b 46 179 136 -18 46 61 b 338 413 46 332 154 381 b 529 526 454 433 529 442 b 368 647 529 599 482 647 b 175 494 231 647 182 599 l 79 494 b 371 726 86 619 165 726 b 617 501 501 726 617 671 l 617 147 b 657 64 617 90 625 64 b 676 65 663 64 668 64 l 676 0 b 629 -6 661 -3 646 -6 b 529 107 569 -6 535 18 l 526 107 b 278 -18 478 26 393 -18 m 140 188 b 289 61 140 106 186 61 b 529 265 433 61 529 138 l 529 397 b 349 338 508 368 433 351 b 140 188 211 313 140 278 m 246 897 b 365 1015 246 968 296 1015 b 485 897 435 1015 485 968 b 365 779 485 828 435 779 b 246 897 296 779 246 828 m 297 897 b 365 826 297 856 324 826 b 435 897 407 826 435 856 b 365 968 435 938 407 968 b 297 897 324 968 297 938 "},"æ":{"ha":1229,"x_min":0,"x_max":0,"o":"m 278 -18 b 46 179 136 -18 46 61 b 338 413 46 332 154 381 b 529 526 454 433 529 442 b 368 647 529 599 482 647 b 175 494 231 647 182 600 l 79 494 b 368 726 86 621 164 726 b 600 600 469 726 563 692 b 865 726 658 681 750 726 b 1185 386 1069 726 1185 583 b 1183 336 1185 367 1185 347 l 622 336 b 867 58 624 193 700 58 b 1083 217 1013 58 1069 158 l 1175 217 b 865 -19 1140 88 1043 -19 b 576 143 729 -19 631 43 b 278 -18 514 24 389 -18 m 140 188 b 289 61 139 106 186 61 b 529 265 453 61 529 150 l 529 315 b 528 354 528 328 528 340 b 529 393 528 368 528 381 l 529 397 b 349 338 508 368 433 351 b 140 188 211 313 139 278 m 1089 415 b 861 649 1089 542 1007 649 b 622 415 724 649 629 547 "},"ç":{"ha":725,"x_min":0,"x_max":0,"o":"m 358 -269 b 215 -228 304 -269 253 -251 l 242 -197 b 342 -219 274 -211 304 -219 b 418 -164 392 -219 418 -199 b 360 -118 418 -131 396 -118 b 301 -129 340 -118 315 -122 l 285 -104 l 356 -17 b 44 354 168 -4 44 142 b 383 725 44 575 181 725 b 688 460 556 725 672 610 l 593 460 b 383 646 588 539 531 646 b 139 354 210 646 139 499 b 383 60 139 208 210 60 b 593 253 532 60 588 167 l 688 253 b 417 -17 678 110 571 -3 l 368 -75 l 368 -78 b 499 -165 431 -67 499 -92 b 358 -269 499 -239 432 -269 "},"è":{"ha":746,"x_min":0,"x_max":0,"o":"m 383 -19 b 46 354 167 -19 46 139 b 383 726 46 581 179 726 b 703 386 588 726 703 583 b 701 336 703 367 703 347 l 140 336 b 385 58 142 193 218 58 b 601 217 531 58 588 158 l 693 217 b 383 -19 658 88 561 -19 m 607 415 b 379 649 607 542 525 649 b 140 415 242 649 147 547 m 333 1010 l 410 826 l 335 826 l 224 1010 "},"é":{"ha":746,"x_min":0,"x_max":0,"o":"m 383 -19 b 46 354 167 -19 46 139 b 383 726 46 581 179 726 b 703 386 588 726 703 583 b 701 336 703 367 703 347 l 140 336 b 385 58 142 193 218 58 b 601 217 531 58 588 158 l 693 217 b 383 -19 658 88 561 -19 m 607 415 b 379 649 607 542 525 649 b 140 415 242 649 147 547 m 417 1010 l 525 1010 l 406 826 l 331 826 "},"ê":{"ha":746,"x_min":0,"x_max":0,"o":"m 383 -19 b 46 354 167 -19 46 139 b 383 726 46 581 179 726 b 703 386 588 726 703 583 b 701 336 703 367 703 347 l 140 336 b 385 58 142 193 218 58 b 601 217 531 58 588 158 l 693 217 b 383 -19 658 88 561 -19 m 607 415 b 379 649 607 542 525 649 b 140 415 242 649 147 547 m 326 1010 l 429 1010 l 554 829 l 460 829 l 378 958 l 376 958 l 294 829 l 200 829 "},"ë":{"ha":746,"x_min":0,"x_max":0,"o":"m 383 -19 b 46 354 167 -19 46 139 b 383 726 46 581 179 726 b 703 386 588 726 703 583 b 701 336 703 367 703 347 l 140 336 b 385 58 142 193 218 58 b 601 217 531 58 588 158 l 693 217 b 383 -19 658 88 561 -19 m 607 415 b 379 649 607 542 525 649 b 140 415 242 649 147 547 m 215 969 l 332 969 l 332 853 l 215 853 m 422 969 l 539 969 l 539 853 l 422 853 "},"ì":{"ha":257,"x_min":0,"x_max":0,"o":"m 83 708 l 174 708 l 174 0 l 83 0 m 85 1007 l 161 824 l 86 824 l -25 1007 "},"í":{"ha":257,"x_min":0,"x_max":0,"o":"m 83 708 l 174 708 l 174 0 l 83 0 m 168 1007 l 276 1007 l 157 824 l 82 824 "},"î":{"ha":257,"x_min":0,"x_max":0,"o":"m 83 708 l 174 708 l 174 0 l 83 0 m 78 1007 l 181 1007 l 306 826 l 211 826 l 129 956 l 128 956 l 46 826 l -49 826 "},"ï":{"ha":257,"x_min":0,"x_max":0,"o":"m 83 708 l 174 708 l 174 0 l 83 0 m -33 967 l 83 967 l 83 850 l -33 850 m 174 967 l 290 967 l 290 850 l 174 850 "},"ð":{"ha":774,"x_min":0,"x_max":0,"o":"m 381 -19 b 44 356 168 -19 44 136 b 378 725 44 581 189 725 b 611 594 474 725 563 674 b 457 835 588 676 531 760 l 229 774 l 214 843 l 396 892 b 260 993 353 929 307 964 l 383 993 b 485 915 411 975 447 949 l 682 968 l 699 899 l 543 857 b 725 399 638 756 725 606 b 381 -19 725 188 624 -19 m 135 356 b 381 60 135 199 221 60 b 633 360 542 60 633 200 b 378 650 633 517 538 650 b 135 356 218 650 135 513 "},"ñ":{"ha":729,"x_min":0,"x_max":0,"o":"m 561 478 b 397 646 561 568 519 646 b 174 447 263 646 174 551 l 174 0 l 83 0 l 83 708 l 174 708 l 174 607 l 176 607 b 419 725 217 665 293 725 b 651 497 546 725 651 654 l 651 0 l 561 0 l 561 478 m 181 835 b 281 960 182 922 228 960 b 453 903 351 960 410 903 b 490 957 482 903 489 929 l 561 957 b 461 833 560 868 514 833 b 289 890 392 833 332 890 b 251 835 260 890 253 861 l 181 835 "},"ò":{"ha":769,"x_min":0,"x_max":0,"o":"m 385 -19 b 44 353 172 -19 44 133 b 385 726 44 574 172 726 b 725 353 597 726 725 574 b 385 -19 725 133 597 -19 m 139 353 b 385 60 139 190 219 60 b 631 353 550 60 631 190 b 385 647 631 517 550 647 b 139 353 219 647 139 517 m 342 1008 l 418 825 l 343 825 l 232 1008 "},"ó":{"ha":769,"x_min":0,"x_max":0,"o":"m 385 -19 b 44 353 172 -19 44 133 b 385 726 44 574 172 726 b 725 353 597 726 725 574 b 385 -19 725 133 597 -19 m 139 353 b 385 60 139 190 219 60 b 631 353 550 60 631 190 b 385 647 631 517 550 647 b 139 353 219 647 139 517 m 425 1008 l 533 1008 l 414 825 l 339 825 "},"ô":{"ha":769,"x_min":0,"x_max":0,"o":"m 385 -19 b 44 353 172 -19 44 133 b 385 726 44 574 172 726 b 725 353 597 726 725 574 b 385 -19 725 133 597 -19 m 139 353 b 385 60 139 190 219 60 b 631 353 550 60 631 190 b 385 647 631 517 550 647 b 139 353 219 647 139 517 m 335 1008 l 438 1008 l 563 828 l 468 828 l 386 957 l 385 957 l 303 828 l 208 828 "},"õ":{"ha":769,"x_min":0,"x_max":0,"o":"m 385 -19 b 44 353 172 -19 44 133 b 385 726 44 574 172 726 b 725 353 597 726 725 574 b 385 -19 725 133 597 -19 m 139 353 b 385 60 139 190 219 60 b 631 353 550 60 631 190 b 385 647 631 517 550 647 b 139 353 219 647 139 517 m 194 835 b 294 960 196 922 242 960 b 467 903 365 960 424 903 b 504 957 496 903 503 929 l 575 957 b 475 833 574 868 528 833 b 303 890 406 833 346 890 b 265 835 274 890 267 861 l 194 835 "},"ö":{"ha":769,"x_min":0,"x_max":0,"o":"m 385 -19 b 44 353 172 -19 44 133 b 385 726 44 574 172 726 b 725 353 597 726 725 574 b 385 -19 725 133 597 -19 m 139 353 b 385 60 139 190 219 60 b 631 353 550 60 631 190 b 385 647 631 517 550 647 b 139 353 219 647 139 517 m 224 968 l 340 968 l 340 851 l 224 851 m 431 968 l 547 968 l 547 851 l 431 851 "},"÷":{"ha":753,"x_min":0,"x_max":0,"o":"m 318 742 l 435 742 l 435 625 l 318 625 m 69 497 l 685 497 l 685 408 l 69 408 m 318 286 l 435 286 l 435 169 l 318 169 "},"ø":{"ha":785,"x_min":0,"x_max":0,"o":"m 32 29 l 118 117 b 53 353 75 179 53 260 b 393 726 53 574 181 726 b 628 638 490 726 571 694 l 711 722 l 753 679 l 667 592 b 733 353 710 529 733 447 b 393 -19 733 133 606 -19 b 157 71 294 -19 214 14 l 74 -14 m 147 353 b 183 185 147 290 160 232 l 567 575 b 393 647 526 619 468 647 b 147 353 228 647 147 517 m 218 133 b 393 60 258 88 317 60 b 639 353 558 60 639 190 b 601 525 639 417 626 476 l 218 133 "},"ù":{"ha":729,"x_min":0,"x_max":0,"o":"m 310 -17 b 78 211 183 -17 78 54 l 78 708 l 168 708 l 168 231 b 332 63 168 140 210 63 b 556 261 467 63 556 157 l 556 708 l 646 708 l 646 0 l 556 0 l 556 100 l 553 100 b 310 -17 513 42 436 -17 m 307 1007 l 383 824 l 308 824 l 197 1007 "},"ú":{"ha":729,"x_min":0,"x_max":0,"o":"m 310 -17 b 78 211 183 -17 78 54 l 78 708 l 168 708 l 168 231 b 332 63 168 140 210 63 b 556 261 467 63 556 157 l 556 708 l 646 708 l 646 0 l 556 0 l 556 100 l 553 100 b 310 -17 513 42 436 -17 m 390 1007 l 499 1007 l 379 824 l 304 824 "},"û":{"ha":729,"x_min":0,"x_max":0,"o":"m 310 -17 b 78 211 183 -17 78 54 l 78 708 l 168 708 l 168 231 b 332 63 168 140 210 63 b 556 261 467 63 556 157 l 556 708 l 646 708 l 646 0 l 556 0 l 556 100 l 553 100 b 310 -17 513 42 436 -17 m 300 1007 l 403 1007 l 528 826 l 433 826 l 351 956 l 350 956 l 268 826 l 174 826 "},"ü":{"ha":729,"x_min":0,"x_max":0,"o":"m 310 -17 b 78 211 183 -17 78 54 l 78 708 l 168 708 l 168 231 b 332 63 168 140 210 63 b 556 261 467 63 556 157 l 556 708 l 646 708 l 646 0 l 556 0 l 556 100 l 553 100 b 310 -17 513 42 436 -17 m 190 967 l 307 967 l 307 850 l 190 850 m 397 967 l 514 967 l 514 850 l 397 850 "},"ý":{"ha":668,"x_min":0,"x_max":0,"o":"m 146 -249 b 78 -243 124 -249 107 -247 l 78 -165 b 132 -169 99 -168 110 -169 b 292 4 199 -169 253 -126 l 6 708 l 106 708 l 336 118 l 339 118 l 558 708 l 656 708 l 372 -21 b 146 -249 303 -197 240 -249 m 371 1007 l 479 1007 l 360 824 l 285 824 "},"þ":{"ha":774,"x_min":0,"x_max":0,"o":"m 415 -17 b 176 119 292 -17 218 44 l 174 119 l 174 -246 l 83 -246 l 83 993 l 174 993 l 174 594 l 176 594 b 415 726 218 663 292 726 b 728 354 589 726 728 588 b 415 -17 728 122 589 -17 m 174 354 b 406 63 174 176 269 63 b 633 354 553 63 633 196 b 406 647 633 514 553 647 b 174 354 269 647 174 533 "},"ÿ":{"ha":668,"x_min":0,"x_max":0,"o":"m 146 -249 b 78 -243 124 -249 107 -247 l 78 -165 b 132 -169 99 -168 110 -169 b 292 4 199 -169 253 -126 l 6 708 l 106 708 l 336 118 l 339 118 l 558 708 l 656 708 l 372 -21 b 146 -249 303 -197 240 -249 m 169 967 l 286 967 l 286 850 l 169 850 m 376 967 l 493 967 l 493 850 l 376 850 "},"Ā":{"ha":882,"x_min":0,"x_max":0,"o":"m 383 993 l 497 993 l 871 0 l 763 0 l 663 275 l 217 275 l 117 0 l 13 0 m 631 365 l 442 897 l 439 897 l 250 365 m 267 1221 l 613 1221 l 613 1142 l 267 1142 "},"ā":{"ha":714,"x_min":0,"x_max":0,"o":"m 278 -18 b 46 179 136 -18 46 61 b 338 413 46 332 154 381 b 529 526 454 433 529 442 b 368 647 529 599 482 647 b 175 494 231 647 182 599 l 79 494 b 371 726 86 619 165 726 b 617 501 501 726 617 671 l 617 147 b 657 64 617 90 625 64 b 676 65 663 64 668 64 l 676 0 b 629 -6 661 -3 646 -6 b 529 107 569 -6 535 18 l 526 107 b 278 -18 478 26 393 -18 m 140 188 b 289 61 140 106 186 61 b 529 265 433 61 529 138 l 529 397 b 349 338 508 368 433 351 b 140 188 211 313 140 278 m 194 936 l 540 936 l 540 857 l 194 857 "},"Ă":{"ha":882,"x_min":0,"x_max":0,"o":"m 383 993 l 497 993 l 871 0 l 763 0 l 663 275 l 217 275 l 117 0 l 13 0 m 631 365 l 442 897 l 439 897 l 250 365 m 338 1278 b 440 1169 344 1208 376 1169 b 542 1278 504 1169 536 1208 l 613 1278 b 440 1101 607 1165 540 1101 b 268 1278 342 1101 272 1163 "},"ă":{"ha":714,"x_min":0,"x_max":0,"o":"m 278 -18 b 46 179 136 -18 46 61 b 338 413 46 332 154 381 b 529 526 454 433 529 442 b 368 647 529 599 482 647 b 175 494 231 647 182 599 l 79 494 b 371 726 86 619 165 726 b 617 501 501 726 617 671 l 617 147 b 657 64 617 90 625 64 b 676 65 663 64 668 64 l 676 0 b 629 -6 661 -3 646 -6 b 529 107 569 -6 535 18 l 526 107 b 278 -18 478 26 393 -18 m 140 188 b 289 61 140 106 186 61 b 529 265 433 61 529 138 l 529 397 b 349 338 508 368 433 351 b 140 188 211 313 140 278 m 264 993 b 367 885 271 924 303 885 b 468 993 431 885 463 924 l 539 993 b 367 817 533 881 467 817 b 194 993 268 817 199 878 "},"Ą":{"ha":882,"x_min":0,"x_max":0,"o":"m 383 993 l 497 993 l 871 0 l 853 0 b 753 -124 788 -46 753 -87 b 815 -175 753 -156 778 -175 b 885 -161 842 -175 863 -171 l 885 -229 b 799 -244 861 -237 831 -244 b 672 -140 714 -244 672 -201 b 782 0 672 -78 729 -25 l 763 0 l 663 275 l 217 275 l 117 0 l 13 0 m 631 365 l 442 897 l 439 897 l 250 365 "},"ą":{"ha":714,"x_min":0,"x_max":0,"o":"m 278 -18 b 46 179 136 -18 46 61 b 338 413 46 332 154 381 b 529 526 454 433 529 442 b 368 647 529 599 482 647 b 175 494 231 647 182 599 l 79 494 b 371 726 86 619 165 726 b 617 501 501 726 617 671 l 617 147 b 657 64 617 90 625 64 b 676 65 663 64 668 64 l 676 0 b 576 -124 611 -46 576 -87 b 639 -175 576 -156 601 -175 b 708 -161 665 -175 686 -171 l 708 -229 b 622 -244 685 -237 654 -244 b 496 -140 538 -244 496 -201 b 600 -3 496 -81 549 -29 b 529 107 558 6 533 35 l 526 107 b 278 -18 478 26 393 -18 m 140 188 b 289 61 140 106 186 61 b 529 265 433 61 529 138 l 529 397 b 349 338 508 368 433 351 b 140 188 211 313 140 278 "},"Ć":{"ha":968,"x_min":0,"x_max":0,"o":"m 511 -18 b 56 496 242 -18 56 194 b 513 1011 56 796 240 1011 b 921 676 744 1011 896 863 l 815 676 b 511 922 796 788 714 922 b 161 496 271 922 161 718 b 511 71 161 274 272 71 b 819 353 721 71 808 215 l 925 353 b 511 -18 901 136 747 -18 m 553 1292 l 661 1292 l 542 1108 l 467 1108 "},"ć":{"ha":725,"x_min":0,"x_max":0,"o":"m 383 -18 b 44 354 181 -18 44 132 b 383 725 44 575 181 725 b 688 460 556 725 672 610 l 593 460 b 383 646 588 539 531 646 b 139 354 210 646 139 499 b 383 60 139 208 210 60 b 593 253 532 60 588 167 l 688 253 b 383 -18 678 100 556 -18 m 424 1007 l 532 1007 l 413 824 l 338 824 "},"Ĉ":{"ha":968,"x_min":0,"x_max":0,"o":"m 511 -18 b 56 496 242 -18 56 194 b 513 1011 56 796 240 1011 b 921 676 744 1011 896 863 l 815 676 b 511 922 796 788 714 922 b 161 496 271 922 161 718 b 511 71 161 274 272 71 b 819 353 721 71 808 215 l 925 353 b 511 -18 901 136 747 -18 m 463 1292 l 565 1292 l 690 1111 l 596 1111 l 514 1240 l 513 1240 l 431 1111 l 336 1111 "},"ĉ":{"ha":725,"x_min":0,"x_max":0,"o":"m 383 -18 b 44 354 181 -18 44 132 b 383 725 44 575 181 725 b 688 460 556 725 672 610 l 593 460 b 383 646 588 539 531 646 b 139 354 210 646 139 499 b 383 60 139 208 210 60 b 593 253 532 60 588 167 l 688 253 b 383 -18 678 100 556 -18 m 333 1007 l 436 1007 l 561 826 l 467 826 l 385 956 l 383 956 l 301 826 l 207 826 "},"Ċ":{"ha":968,"x_min":0,"x_max":0,"o":"m 511 -18 b 56 496 242 -18 56 194 b 513 1011 56 796 240 1011 b 921 676 744 1011 896 863 l 815 676 b 511 922 796 788 714 922 b 161 496 271 922 161 718 b 511 71 161 274 272 71 b 819 353 721 71 808 215 l 925 353 b 511 -18 901 136 747 -18 m 454 1251 l 571 1251 l 571 1135 l 454 1135 "},"ċ":{"ha":725,"x_min":0,"x_max":0,"o":"m 383 -18 b 44 354 181 -18 44 132 b 383 725 44 575 181 725 b 688 460 556 725 672 610 l 593 460 b 383 646 588 539 531 646 b 139 354 210 646 139 499 b 383 60 139 208 210 60 b 593 253 532 60 588 167 l 688 253 b 383 -18 678 100 556 -18 m 325 967 l 442 967 l 442 850 l 325 850 "},"Č":{"ha":968,"x_min":0,"x_max":0,"o":"m 511 -18 b 56 496 242 -18 56 194 b 513 1011 56 796 240 1011 b 921 676 744 1011 896 863 l 815 676 b 511 922 796 788 714 922 b 161 496 271 922 161 718 b 511 71 161 274 272 71 b 819 353 721 71 808 215 l 925 353 b 511 -18 901 136 747 -18 m 431 1290 l 513 1161 l 515 1161 l 597 1290 l 690 1290 l 565 1110 l 463 1110 l 336 1290 "},"č":{"ha":725,"x_min":0,"x_max":0,"o":"m 383 -18 b 44 354 181 -18 44 132 b 383 725 44 575 181 725 b 688 460 556 725 672 610 l 593 460 b 383 646 588 539 531 646 b 139 354 210 646 139 499 b 383 60 139 208 210 60 b 593 253 532 60 588 167 l 688 253 b 383 -18 678 100 556 -18 m 301 1006 l 383 876 l 386 876 l 468 1006 l 561 1006 l 436 825 l 333 825 l 207 1006 "},"Ď":{"ha":954,"x_min":0,"x_max":0,"o":"m 106 993 l 465 993 b 897 494 743 993 897 801 b 461 0 897 188 739 0 l 106 0 m 299 1290 l 381 1161 l 383 1161 l 465 1290 l 558 1290 l 433 1110 l 331 1110 l 204 1290 m 461 89 b 792 494 710 89 792 275 b 464 904 792 715 714 904 l 207 904 l 207 89 "},"ď":{"ha":788,"x_min":0,"x_max":0,"o":"m 357 -18 b 46 354 185 -18 46 121 b 357 725 46 586 185 725 b 596 589 481 725 554 664 l 599 589 l 599 993 l 689 993 l 689 0 l 599 0 l 599 115 l 596 115 b 357 -18 556 46 481 -18 m 140 354 b 368 61 140 194 221 61 b 599 354 504 61 599 175 b 368 646 599 532 504 646 b 140 354 221 646 140 513 m 779 993 l 886 993 l 817 732 l 746 732 "},"Đ":{"ha":985,"x_min":0,"x_max":0,"o":"m 136 474 l 19 474 l 19 554 l 136 554 l 136 993 l 496 993 b 928 494 774 993 928 801 b 492 0 928 188 769 0 l 136 0 m 492 89 b 822 494 740 89 822 275 b 494 904 822 715 744 904 l 238 904 l 238 554 l 547 554 l 547 474 l 238 474 l 238 89 "},"đ":{"ha":774,"x_min":0,"x_max":0,"o":"m 401 893 l 599 893 l 599 993 l 689 993 l 689 893 l 789 893 l 789 824 l 689 824 l 689 0 l 599 0 l 599 115 l 596 115 b 357 -18 556 46 481 -18 b 46 354 185 -18 46 121 b 357 725 46 586 185 725 b 596 589 481 725 554 664 l 599 589 l 599 824 l 401 824 m 140 354 b 368 61 140 194 221 61 b 599 354 504 61 599 175 b 368 646 599 532 504 646 b 140 354 221 646 140 513 "},"Ē":{"ha":838,"x_min":0,"x_max":0,"o":"m 106 993 l 779 993 l 779 904 l 207 904 l 207 563 l 718 563 l 718 474 l 207 474 l 207 89 l 794 89 l 794 0 l 106 0 m 275 1221 l 621 1221 l 621 1142 l 275 1142 "},"ē":{"ha":746,"x_min":0,"x_max":0,"o":"m 383 -19 b 46 354 167 -19 46 139 b 383 726 46 581 179 726 b 703 386 588 726 703 583 b 701 336 703 367 703 347 l 140 336 b 385 58 142 193 218 58 b 601 217 531 58 588 158 l 693 217 b 383 -19 658 88 561 -19 m 607 415 b 379 649 607 542 525 649 b 140 415 242 649 147 547 m 204 939 l 550 939 l 550 860 l 204 860 "},"Ė":{"ha":838,"x_min":0,"x_max":0,"o":"m 106 993 l 779 993 l 779 904 l 207 904 l 207 563 l 718 563 l 718 474 l 207 474 l 207 89 l 794 89 l 794 0 l 106 0 m 389 1251 l 506 1251 l 506 1135 l 389 1135 "},"ė":{"ha":746,"x_min":0,"x_max":0,"o":"m 383 -19 b 46 354 167 -19 46 139 b 383 726 46 581 179 726 b 703 386 588 726 703 583 b 701 336 703 367 703 347 l 140 336 b 385 58 142 193 218 58 b 601 217 531 58 588 158 l 693 217 b 383 -19 658 88 561 -19 m 607 415 b 379 649 607 542 525 649 b 140 415 242 649 147 547 m 318 969 l 435 969 l 435 853 l 318 853 "},"Ę":{"ha":838,"x_min":0,"x_max":0,"o":"m 106 993 l 779 993 l 779 904 l 207 904 l 207 563 l 718 563 l 718 474 l 207 474 l 207 89 l 794 89 l 794 0 l 778 0 b 678 -124 713 -46 678 -87 b 740 -175 678 -156 703 -175 b 810 -161 767 -175 788 -171 l 810 -229 b 724 -244 786 -237 756 -244 b 597 -140 639 -244 597 -201 b 707 0 597 -78 654 -25 l 106 0 "},"ę":{"ha":746,"x_min":0,"x_max":0,"o":"m 383 -19 b 46 354 167 -19 46 139 b 383 726 46 581 179 726 b 703 386 588 726 703 583 b 701 336 703 367 703 347 l 140 336 b 385 58 142 193 218 58 b 601 217 531 58 588 158 l 693 217 b 478 -8 665 113 596 22 b 389 -124 419 -51 389 -90 b 451 -175 389 -156 414 -175 b 521 -161 478 -175 499 -171 l 521 -229 b 435 -244 497 -237 467 -244 b 308 -140 350 -244 308 -201 b 385 -19 308 -92 343 -47 l 383 -19 m 607 415 b 379 649 607 542 525 649 b 140 415 242 649 147 547 "},"Ě":{"ha":838,"x_min":0,"x_max":0,"o":"m 106 993 l 779 993 l 779 904 l 207 904 l 207 563 l 718 563 l 718 474 l 207 474 l 207 89 l 794 89 l 794 0 l 106 0 m 365 1290 l 447 1161 l 450 1161 l 532 1290 l 625 1290 l 500 1110 l 397 1110 l 271 1290 "},"ě":{"ha":746,"x_min":0,"x_max":0,"o":"m 383 -19 b 46 354 167 -19 46 139 b 383 726 46 581 179 726 b 703 386 588 726 703 583 b 701 336 703 367 703 347 l 140 336 b 385 58 142 193 218 58 b 601 217 531 58 588 158 l 693 217 b 383 -19 658 88 561 -19 m 607 415 b 379 649 607 542 525 649 b 140 415 242 649 147 547 m 294 1008 l 376 879 l 379 879 l 461 1008 l 554 1008 l 429 828 l 326 828 l 200 1008 "},"Ĝ":{"ha":1013,"x_min":0,"x_max":0,"o":"m 506 -18 b 57 496 214 -18 57 200 b 518 1011 57 790 236 1011 b 926 699 756 1011 892 886 l 822 699 b 518 922 793 843 678 922 b 163 496 269 922 163 703 b 506 71 163 288 249 71 b 842 419 699 71 842 211 l 513 419 l 513 510 l 943 510 l 943 0 l 874 0 l 843 176 l 840 176 b 506 -18 778 60 675 -18 m 461 1292 l 564 1292 l 689 1111 l 594 1111 l 513 1240 l 511 1240 l 429 1111 l 335 1111 "},"ĝ":{"ha":774,"x_min":0,"x_max":0,"o":"m 372 -254 b 68 -37 181 -254 79 -161 l 163 -37 b 374 -175 176 -112 236 -175 b 601 32 517 -175 601 -112 l 601 164 l 599 164 b 360 33 557 90 479 33 b 49 381 190 33 49 144 b 360 725 49 614 190 725 b 599 597 479 725 557 668 l 601 597 l 601 708 l 692 708 l 692 44 b 372 -254 692 -156 567 -254 m 143 381 b 372 113 143 218 226 113 b 601 381 503 113 601 199 b 372 646 601 560 503 646 b 143 381 226 646 143 540 m 322 1007 l 425 1007 l 550 826 l 456 826 l 374 956 l 372 956 l 290 826 l 196 826 "},"Ğ":{"ha":1013,"x_min":0,"x_max":0,"o":"m 506 -18 b 57 496 214 -18 57 200 b 518 1011 57 790 236 1011 b 926 699 756 1011 892 886 l 822 699 b 518 922 793 843 678 922 b 163 496 269 922 163 703 b 506 71 163 288 249 71 b 842 419 699 71 842 211 l 513 419 l 513 510 l 943 510 l 943 0 l 874 0 l 843 176 l 840 176 b 506 -18 778 60 675 -18 m 410 1278 b 513 1169 417 1208 449 1169 b 614 1278 576 1169 608 1208 l 685 1278 b 513 1101 679 1165 613 1101 b 340 1278 414 1101 344 1163 "},"ğ":{"ha":774,"x_min":0,"x_max":0,"o":"m 372 -254 b 68 -37 181 -254 79 -161 l 163 -37 b 374 -175 176 -112 236 -175 b 601 32 517 -175 601 -112 l 601 164 l 599 164 b 360 33 557 90 479 33 b 49 381 190 33 49 144 b 360 725 49 614 190 725 b 599 597 479 725 557 668 l 601 597 l 601 708 l 692 708 l 692 44 b 372 -254 692 -156 567 -254 m 143 381 b 372 113 143 218 226 113 b 601 381 503 113 601 199 b 372 646 601 560 503 646 b 143 381 226 646 143 540 m 271 993 b 374 885 278 924 310 885 b 475 993 438 885 469 924 l 546 993 b 374 817 540 881 474 817 b 201 993 275 817 206 878 "},"Ġ":{"ha":1013,"x_min":0,"x_max":0,"o":"m 506 -18 b 57 496 214 -18 57 200 b 518 1011 57 790 236 1011 b 926 699 756 1011 892 886 l 822 699 b 518 922 793 843 678 922 b 163 496 269 922 163 703 b 506 71 163 288 249 71 b 842 419 699 71 842 211 l 513 419 l 513 510 l 943 510 l 943 0 l 874 0 l 843 176 l 840 176 b 506 -18 778 60 675 -18 m 454 1251 l 571 1251 l 571 1135 l 454 1135 "},"ġ":{"ha":774,"x_min":0,"x_max":0,"o":"m 372 -254 b 68 -37 181 -254 79 -161 l 163 -37 b 374 -175 176 -112 236 -175 b 601 32 517 -175 601 -112 l 601 164 l 599 164 b 360 33 557 90 479 33 b 49 381 190 33 49 144 b 360 725 49 614 190 725 b 599 597 479 725 557 668 l 601 597 l 601 708 l 692 708 l 692 44 b 372 -254 692 -156 567 -254 m 143 381 b 372 113 143 218 226 113 b 601 381 503 113 601 199 b 372 646 601 560 503 646 b 143 381 226 646 143 540 m 315 967 l 432 967 l 432 850 l 315 850 "},"Ģ":{"ha":1013,"x_min":0,"x_max":0,"o":"m 506 -18 b 57 496 214 -18 57 200 b 518 1011 57 790 236 1011 b 926 699 756 1011 892 886 l 822 699 b 518 922 793 843 678 922 b 163 496 269 922 163 703 b 506 71 163 288 249 71 b 842 419 699 71 842 211 l 513 419 l 513 510 l 943 510 l 943 0 l 874 0 l 843 176 l 840 176 b 506 -18 778 60 675 -18 m 469 -260 b 526 -165 514 -246 526 -224 l 469 -165 l 469 -67 l 586 -67 l 586 -165 b 469 -310 586 -233 564 -285 "},"ģ":{"ha":774,"x_min":0,"x_max":0,"o":"m 372 -254 b 68 -37 181 -254 79 -161 l 163 -37 b 374 -175 176 -112 236 -175 b 601 32 517 -175 601 -112 l 601 164 l 599 164 b 360 33 557 90 479 33 b 49 381 190 33 49 144 b 360 725 49 614 190 725 b 599 597 479 725 557 668 l 601 597 l 601 708 l 692 708 l 692 44 b 372 -254 692 -156 567 -254 m 143 381 b 372 113 143 218 226 113 b 601 381 503 113 601 199 b 372 646 601 560 503 646 b 143 381 226 646 143 540 m 315 936 b 432 1089 315 1006 338 1061 l 432 1033 b 375 936 388 1018 374 994 l 432 936 l 432 828 l 315 828 "},"Ĥ":{"ha":976,"x_min":0,"x_max":0,"o":"m 106 993 l 207 993 l 207 564 l 769 564 l 769 993 l 869 993 l 869 0 l 769 0 l 769 475 l 207 475 l 207 0 l 106 0 m 438 1292 l 540 1292 l 665 1111 l 571 1111 l 489 1240 l 488 1240 l 406 1111 l 311 1111 "},"ĥ":{"ha":729,"x_min":0,"x_max":0,"o":"m 561 478 b 397 646 561 568 519 646 b 174 447 263 646 174 551 l 174 0 l 83 0 l 83 993 l 174 993 l 174 607 l 176 607 b 419 725 217 665 293 725 b 651 497 546 725 651 654 l 651 0 l 561 0 l 561 478 m 78 1229 l 181 1229 l 306 1049 l 211 1049 l 129 1178 l 128 1178 l 46 1049 l -49 1049 "},"Ħ":{"ha":1007,"x_min":0,"x_max":0,"o":"m 22 832 l 129 832 l 129 993 l 231 993 l 231 832 l 793 832 l 793 993 l 893 993 l 893 832 l 979 832 l 979 751 l 893 751 l 893 0 l 793 0 l 793 475 l 231 475 l 231 0 l 129 0 l 129 751 l 22 751 m 793 564 l 793 751 l 231 751 l 231 564 "},"ħ":{"ha":729,"x_min":0,"x_max":0,"o":"m -4 893 l 83 893 l 83 993 l 174 993 l 174 893 l 393 893 l 393 824 l 174 824 l 174 607 l 176 607 b 419 725 217 665 293 725 b 651 497 546 725 651 654 l 651 0 l 561 0 l 561 478 b 397 646 561 568 519 646 b 174 447 263 646 174 551 l 174 0 l 83 0 l 83 824 l -4 824 "},"Ĩ":{"ha":313,"x_min":0,"x_max":0,"o":"m 106 993 l 207 993 l 207 0 l 106 0 m -35 1118 b 65 1243 -33 1206 13 1243 b 238 1186 136 1243 194 1186 b 275 1240 267 1186 274 1213 l 346 1240 b 246 1117 344 1151 299 1117 b 74 1174 176 1117 117 1174 b 36 1118 44 1174 38 1144 l -35 1118 "},"ĩ":{"ha":257,"x_min":0,"x_max":0,"o":"m 83 708 l 174 708 l 174 0 l 83 0 m -62 833 b 38 958 -61 921 -15 958 b 210 901 108 958 167 901 b 247 956 239 901 246 928 l 318 956 b 218 832 317 867 271 832 b 46 889 149 832 89 889 b 8 833 17 889 10 860 l -62 833 "},"Ī":{"ha":313,"x_min":0,"x_max":0,"o":"m 106 993 l 207 993 l 207 0 l 106 0 m -17 1221 l 329 1221 l 329 1142 l -17 1142 "},"ī":{"ha":257,"x_min":0,"x_max":0,"o":"m 83 708 l 174 708 l 174 0 l 83 0 m -44 936 l 301 936 l 301 857 l -44 857 "},"Į":{"ha":313,"x_min":0,"x_max":0,"o":"m 106 993 l 207 993 l 207 0 l 197 0 b 97 -124 132 -46 97 -87 b 160 -175 97 -156 122 -175 b 229 -161 186 -175 207 -171 l 229 -229 b 143 -244 206 -237 175 -244 b 17 -140 58 -244 17 -201 b 126 0 17 -78 74 -25 l 106 0 "},"į":{"ha":257,"x_min":0,"x_max":0,"o":"m 83 708 l 174 708 l 174 0 l 164 0 b 64 -124 99 -46 64 -87 b 126 -175 64 -156 89 -175 b 196 -161 153 -175 174 -171 l 196 -229 b 110 -244 172 -237 142 -244 b -17 -140 25 -244 -17 -201 b 93 0 -17 -78 40 -25 l 83 0 m 69 967 l 186 967 l 186 850 l 69 850 "},"İ":{"ha":313,"x_min":0,"x_max":0,"o":"m 106 993 l 207 993 l 207 0 l 106 0 m 97 1251 l 214 1251 l 214 1135 l 97 1135 "},"ı":{"ha":257,"x_min":0,"x_max":0,"o":"m 83 708 l 174 708 l 174 0 l 83 0 "},"Ĵ":{"ha":689,"x_min":0,"x_max":0,"o":"m 307 -18 b 28 288 99 -18 28 129 l 28 319 l 129 319 l 129 288 b 307 71 129 161 168 71 b 488 288 447 71 488 161 l 488 993 l 589 993 l 589 288 b 307 -18 589 129 515 -18 m 488 1292 l 590 1292 l 715 1111 l 621 1111 l 539 1240 l 538 1240 l 456 1111 l 361 1111 "},"ĵ":{"ha":257,"x_min":0,"x_max":0,"o":"m 35 -250 b -33 -244 11 -250 -6 -249 l -33 -167 b 19 -171 -12 -169 -1 -171 b 83 -61 65 -171 83 -144 l 83 708 l 174 708 l 174 -68 b 35 -250 174 -206 110 -250 m 78 1007 l 181 1007 l 306 826 l 211 826 l 129 956 l 128 956 l 46 826 l -49 826 "},"Ķ":{"ha":874,"x_min":0,"x_max":0,"o":"m 106 993 l 207 993 l 207 432 l 743 993 l 858 993 l 463 581 l 890 0 l 772 0 l 397 513 l 207 314 l 207 0 l 106 0 m 411 -260 b 468 -165 456 -246 468 -224 l 411 -165 l 411 -67 l 528 -67 l 528 -165 b 411 -310 528 -233 506 -285 "},"ķ":{"ha":653,"x_min":0,"x_max":0,"o":"m 83 993 l 174 993 l 174 375 l 525 708 l 636 708 l 357 449 l 671 0 l 564 0 l 296 392 l 174 278 l 174 0 l 83 0 m 303 -260 b 360 -165 347 -246 360 -224 l 303 -165 l 303 -67 l 419 -67 l 419 -165 b 303 -310 419 -233 397 -285 "},"ĸ":{"ha":661,"x_min":0,"x_max":0,"o":"m 83 708 l 174 708 l 174 357 l 547 708 l 660 708 l 365 436 l 671 0 l 564 0 l 306 379 l 174 257 l 174 0 l 83 0 "},"Ĺ":{"ha":763,"x_min":0,"x_max":0,"o":"m 106 993 l 207 993 l 207 89 l 743 89 l 743 0 l 106 0 m 197 1292 l 306 1292 l 186 1108 l 111 1108 "},"ĺ":{"ha":257,"x_min":0,"x_max":0,"o":"m 83 993 l 174 993 l 174 0 l 83 0 m 168 1229 l 276 1229 l 157 1046 l 82 1046 "},"Ļ":{"ha":763,"x_min":0,"x_max":0,"o":"m 106 993 l 207 993 l 207 89 l 743 89 l 743 0 l 106 0 m 367 -260 b 424 -165 411 -246 424 -224 l 367 -165 l 367 -67 l 483 -67 l 483 -165 b 367 -310 483 -233 461 -285 "},"ļ":{"ha":257,"x_min":0,"x_max":0,"o":"m 83 993 l 174 993 l 174 0 l 83 0 m 71 -260 b 128 -165 115 -246 128 -224 l 71 -165 l 71 -67 l 188 -67 l 188 -165 b 71 -310 188 -233 165 -285 "},"Ľ":{"ha":763,"x_min":0,"x_max":0,"o":"m 106 993 l 207 993 l 207 89 l 743 89 l 743 0 l 106 0 m 418 993 l 525 993 l 456 732 l 385 732 "},"ľ":{"ha":272,"x_min":0,"x_max":0,"o":"m 83 993 l 174 993 l 174 0 l 83 0 m 253 993 l 360 993 l 290 732 l 219 732 "},"Ł":{"ha":817,"x_min":0,"x_max":0,"o":"m 35 368 l 160 451 l 160 993 l 261 993 l 261 519 l 521 694 l 521 606 l 261 431 l 261 89 l 797 89 l 797 0 l 160 0 l 160 363 l 35 279 "},"ł":{"ha":358,"x_min":0,"x_max":0,"o":"m 33 456 l 135 531 l 135 993 l 225 993 l 225 599 l 328 675 l 328 586 l 225 510 l 225 0 l 135 0 l 135 442 l 33 367 "},"Ń":{"ha":976,"x_min":0,"x_max":0,"o":"m 106 993 l 229 993 l 767 143 l 769 143 l 769 993 l 871 993 l 871 0 l 747 0 l 210 850 l 207 850 l 207 0 l 106 0 m 528 1292 l 636 1292 l 517 1108 l 442 1108 "},"ń":{"ha":729,"x_min":0,"x_max":0,"o":"m 561 478 b 397 646 561 568 519 646 b 174 447 263 646 174 551 l 174 0 l 83 0 l 83 708 l 174 708 l 174 607 l 176 607 b 419 725 217 665 293 725 b 651 497 546 725 651 654 l 651 0 l 561 0 l 561 478 m 411 1008 l 519 1008 l 400 825 l 325 825 "},"Ņ":{"ha":976,"x_min":0,"x_max":0,"o":"m 106 993 l 229 993 l 767 143 l 769 143 l 769 993 l 871 993 l 871 0 l 747 0 l 210 850 l 207 850 l 207 0 l 106 0 m 426 -260 b 483 -165 471 -246 483 -224 l 426 -165 l 426 -67 l 543 -67 l 543 -165 b 426 -310 543 -233 521 -285 "},"ņ":{"ha":729,"x_min":0,"x_max":0,"o":"m 561 478 b 397 646 561 568 519 646 b 174 447 263 646 174 551 l 174 0 l 83 0 l 83 708 l 174 708 l 174 607 l 176 607 b 419 725 217 665 293 725 b 651 497 546 725 651 654 l 651 0 l 561 0 l 561 478 m 310 -260 b 367 -165 354 -246 367 -224 l 310 -165 l 310 -67 l 426 -67 l 426 -165 b 310 -310 426 -233 404 -285 "},"Ň":{"ha":976,"x_min":0,"x_max":0,"o":"m 106 993 l 229 993 l 767 143 l 769 143 l 769 993 l 871 993 l 871 0 l 747 0 l 210 850 l 207 850 l 207 0 l 106 0 m 406 1290 l 488 1161 l 490 1161 l 572 1290 l 665 1290 l 540 1110 l 438 1110 l 311 1290 "},"ň":{"ha":729,"x_min":0,"x_max":0,"o":"m 561 478 b 397 646 561 568 519 646 b 174 447 263 646 174 551 l 174 0 l 83 0 l 83 708 l 174 708 l 174 607 l 176 607 b 419 725 217 665 293 725 b 651 497 546 725 651 654 l 651 0 l 561 0 l 561 478 m 289 1007 l 371 878 l 374 878 l 456 1007 l 549 1007 l 424 826 l 321 826 l 194 1007 "},"Ŋ":{"ha":976,"x_min":0,"x_max":0,"o":"m 626 -247 b 543 -236 594 -247 568 -244 l 543 -158 b 758 -18 676 -176 757 -137 l 210 849 l 207 849 l 207 0 l 106 0 l 106 993 l 229 993 l 767 142 l 769 142 l 769 993 l 871 993 l 871 8 b 626 -247 871 -176 763 -247 "},"ŋ":{"ha":729,"x_min":0,"x_max":0,"o":"m 501 -226 b 426 -219 476 -226 449 -224 l 426 -140 b 561 -50 524 -150 561 -132 l 561 478 b 397 646 561 568 519 646 b 174 447 263 646 174 551 l 174 0 l 83 0 l 83 708 l 174 708 l 174 607 l 176 607 b 419 725 217 665 293 725 b 651 497 546 725 651 654 l 651 -53 b 501 -226 651 -189 589 -226 "},"Ō":{"ha":1065,"x_min":0,"x_max":0,"o":"m 533 -18 b 56 497 246 -18 56 199 b 533 1011 56 796 246 1011 b 1010 497 819 1011 1010 796 b 533 -18 1010 199 819 -18 m 161 497 b 533 71 161 263 288 71 b 904 497 778 71 904 263 b 533 922 904 732 778 922 b 161 497 288 922 161 732 m 360 1221 l 706 1221 l 706 1142 l 360 1142 "},"ō":{"ha":769,"x_min":0,"x_max":0,"o":"m 385 -19 b 44 353 172 -19 44 133 b 385 726 44 574 172 726 b 725 353 597 726 725 574 b 385 -19 725 133 597 -19 m 139 353 b 385 60 139 190 219 60 b 631 353 550 60 631 190 b 385 647 631 517 550 647 b 139 353 219 647 139 517 m 213 938 l 558 938 l 558 858 l 213 858 "},"Ő":{"ha":1065,"x_min":0,"x_max":0,"o":"m 533 -18 b 56 497 246 -18 56 199 b 533 1011 56 796 246 1011 b 1010 497 819 1011 1010 796 b 533 -18 1010 199 819 -18 m 161 497 b 533 71 161 263 288 71 b 904 497 778 71 904 263 b 533 922 904 732 778 922 b 161 497 288 922 161 732 m 481 1290 l 589 1290 l 469 1107 l 394 1107 m 671 1290 l 781 1290 l 660 1107 l 585 1107 "},"ő":{"ha":769,"x_min":0,"x_max":0,"o":"m 385 -19 b 44 353 172 -19 44 133 b 385 726 44 574 172 726 b 725 353 597 726 725 574 b 385 -19 725 133 597 -19 m 139 353 b 385 60 139 190 219 60 b 631 353 550 60 631 190 b 385 647 631 517 550 647 b 139 353 219 647 139 517 m 333 1007 l 442 1007 l 322 824 l 247 824 m 524 1007 l 633 1007 l 513 824 l 438 824 "},"Œ":{"ha":1525,"x_min":0,"x_max":0,"o":"m 458 -18 b 57 497 224 -18 57 199 b 458 1011 57 796 224 1011 b 794 771 607 1011 732 936 l 794 993 l 1468 993 l 1468 904 l 896 904 l 896 563 l 1407 563 l 1407 474 l 896 474 l 896 89 l 1483 89 l 1483 0 l 794 0 l 794 224 b 458 -18 732 58 607 -18 m 161 497 b 478 71 161 263 264 71 b 785 497 643 71 785 214 b 478 922 785 781 643 922 b 161 497 264 922 161 732 "},"œ":{"ha":1331,"x_min":0,"x_max":0,"o":"m 385 -18 b 44 354 172 -18 44 133 b 385 725 44 574 172 725 b 678 560 519 725 622 663 b 968 726 733 665 836 726 b 1288 386 1172 726 1288 583 b 1286 336 1288 367 1288 347 l 725 336 b 969 58 726 193 803 58 b 1186 217 1115 58 1172 158 l 1278 217 b 968 -19 1243 88 1146 -19 b 678 147 831 -19 731 44 b 385 -18 622 44 519 -18 m 139 354 b 385 61 139 190 219 61 b 631 354 550 61 631 190 b 385 646 631 517 550 646 b 139 354 219 646 139 517 m 1192 415 b 964 649 1192 542 1110 649 b 725 415 826 649 732 547 "},"Ŕ":{"ha":889,"x_min":0,"x_max":0,"o":"m 106 993 l 494 993 b 821 713 706 993 821 894 b 636 463 821 581 744 490 l 636 460 b 839 8 864 414 785 25 l 839 0 l 731 0 b 510 413 685 42 775 413 l 207 413 l 207 0 l 106 0 m 469 501 b 719 711 628 501 719 572 b 476 904 719 838 647 904 l 207 904 l 207 501 m 471 1292 l 579 1292 l 460 1108 l 385 1108 "},"ŕ":{"ha":451,"x_min":0,"x_max":0,"o":"m 174 0 l 83 0 l 83 708 l 174 708 l 174 564 l 176 564 b 378 725 213 657 278 725 b 439 721 403 725 422 724 l 439 632 b 396 636 425 635 410 636 b 174 396 268 636 174 533 m 306 1007 l 414 1007 l 294 824 l 219 824 "},"Ŗ":{"ha":889,"x_min":0,"x_max":0,"o":"m 106 993 l 494 993 b 821 713 706 993 821 894 b 636 463 821 581 744 490 l 636 460 b 839 8 864 414 785 25 l 839 0 l 731 0 b 510 413 685 42 775 413 l 207 413 l 207 0 l 106 0 m 469 501 b 719 711 628 501 719 572 b 476 904 719 838 647 904 l 207 904 l 207 501 m 401 -260 b 458 -165 446 -246 458 -224 l 401 -165 l 401 -67 l 518 -67 l 518 -165 b 401 -310 518 -233 496 -285 "},"ŗ":{"ha":451,"x_min":0,"x_max":0,"o":"m 174 0 l 83 0 l 83 708 l 174 708 l 174 564 l 176 564 b 378 725 213 657 278 725 b 439 721 403 725 422 724 l 439 632 b 396 636 425 635 410 636 b 174 396 268 636 174 533 m 71 -260 b 128 -165 115 -246 128 -224 l 71 -165 l 71 -67 l 188 -67 l 188 -165 b 71 -310 188 -233 165 -285 "},"Ř":{"ha":889,"x_min":0,"x_max":0,"o":"m 106 993 l 494 993 b 821 713 706 993 821 894 b 636 463 821 581 744 490 l 636 460 b 839 8 864 414 785 25 l 839 0 l 731 0 b 510 413 685 42 775 413 l 207 413 l 207 0 l 106 0 m 469 501 b 719 711 628 501 719 572 b 476 904 719 838 647 904 l 207 904 l 207 501 m 349 1290 l 431 1161 l 433 1161 l 515 1290 l 608 1290 l 483 1110 l 381 1110 l 254 1290 "},"ř":{"ha":451,"x_min":0,"x_max":0,"o":"m 174 0 l 83 0 l 83 708 l 174 708 l 174 564 l 176 564 b 378 725 213 657 278 725 b 439 721 403 725 422 724 l 439 632 b 396 636 425 635 410 636 b 174 396 268 636 174 533 m 183 1006 l 265 876 l 268 876 l 350 1006 l 443 1006 l 318 825 l 215 825 l 89 1006 "},"Ś":{"ha":856,"x_min":0,"x_max":0,"o":"m 463 -18 b 38 329 224 -18 51 106 l 143 329 b 458 71 157 175 251 71 b 704 268 642 71 704 158 b 399 486 706 415 603 440 b 79 756 236 524 79 574 b 410 1011 79 914 206 1011 b 776 707 625 1011 761 901 l 671 707 b 410 922 654 844 578 922 b 185 760 264 922 185 863 b 449 567 185 626 303 599 b 810 271 653 522 810 472 b 463 -18 810 110 699 -18 m 458 1292 l 567 1292 l 447 1108 l 372 1108 "},"ś":{"ha":656,"x_min":0,"x_max":0,"o":"m 344 -18 b 33 232 146 -18 38 90 l 128 232 b 346 61 133 135 197 61 b 526 193 481 61 526 124 b 322 332 526 297 421 308 b 60 535 192 365 60 397 b 311 725 60 650 151 725 b 594 510 496 725 582 626 l 500 510 b 313 646 488 572 450 646 b 154 540 211 646 154 607 b 357 413 154 451 250 439 b 622 196 490 381 622 343 b 344 -18 622 67 519 -18 m 367 1007 l 475 1007 l 356 824 l 281 824 "},"Ŝ":{"ha":856,"x_min":0,"x_max":0,"o":"m 463 -18 b 38 329 224 -18 51 106 l 143 329 b 458 71 157 175 251 71 b 704 268 642 71 704 158 b 399 486 706 415 603 440 b 79 756 236 524 79 574 b 410 1011 79 914 206 1011 b 776 707 625 1011 761 901 l 671 707 b 410 922 654 844 578 922 b 185 760 264 922 185 863 b 449 567 185 626 303 599 b 810 271 653 522 810 472 b 463 -18 810 110 699 -18 m 368 1292 l 471 1292 l 596 1111 l 501 1111 l 419 1240 l 418 1240 l 336 1111 l 242 1111 "},"ŝ":{"ha":656,"x_min":0,"x_max":0,"o":"m 344 -18 b 33 232 146 -18 38 90 l 128 232 b 346 61 133 135 197 61 b 526 193 481 61 526 124 b 322 332 526 297 421 308 b 60 535 192 365 60 397 b 311 725 60 650 151 725 b 594 510 496 725 582 626 l 500 510 b 313 646 488 572 450 646 b 154 540 211 646 154 607 b 357 413 154 451 250 439 b 622 196 490 381 622 343 b 344 -18 622 67 519 -18 m 276 1007 l 379 1007 l 504 826 l 410 826 l 328 956 l 326 956 l 244 826 l 150 826 "},"Ş":{"ha":856,"x_min":0,"x_max":0,"o":"m 438 -269 b 294 -228 383 -269 332 -251 l 321 -197 b 421 -219 353 -211 383 -219 b 497 -164 471 -219 497 -199 b 439 -118 497 -131 475 -118 b 381 -129 419 -118 394 -122 l 364 -104 l 435 -18 b 38 329 210 -8 51 114 l 143 329 b 458 71 157 175 251 71 b 704 268 642 71 704 158 b 399 486 706 415 603 440 b 79 756 236 524 79 574 b 410 1011 79 914 206 1011 b 776 707 625 1011 761 901 l 671 707 b 410 922 654 844 578 922 b 185 760 264 922 185 863 b 449 567 185 626 303 599 b 810 271 653 522 810 472 b 496 -17 810 118 708 -6 l 447 -75 l 447 -78 b 578 -165 510 -67 578 -92 b 438 -269 578 -239 511 -269 "},"ş":{"ha":656,"x_min":0,"x_max":0,"o":"m 301 -269 b 158 -228 247 -269 196 -251 l 185 -197 b 285 -219 217 -211 247 -219 b 361 -164 335 -219 361 -199 b 303 -118 361 -131 339 -118 b 244 -129 283 -118 258 -122 l 228 -104 l 300 -17 b 33 232 129 -1 38 101 l 128 232 b 346 61 133 135 197 61 b 526 193 481 61 526 124 b 322 332 526 297 421 308 b 60 535 192 365 60 397 b 311 725 60 650 151 725 b 594 510 496 725 582 626 l 500 510 b 313 646 488 572 450 646 b 154 540 211 646 154 607 b 357 413 154 451 250 439 b 622 196 490 381 622 343 b 358 -18 622 71 525 -14 l 311 -75 l 311 -78 b 442 -165 374 -67 442 -92 b 301 -269 442 -239 375 -269 "},"Š":{"ha":856,"x_min":0,"x_max":0,"o":"m 463 -18 b 38 329 224 -18 51 106 l 143 329 b 458 71 157 175 251 71 b 704 268 642 71 704 158 b 399 486 706 415 603 440 b 79 756 236 524 79 574 b 410 1011 79 914 206 1011 b 776 707 625 1011 761 901 l 671 707 b 410 922 654 844 578 922 b 185 760 264 922 185 863 b 449 567 185 626 303 599 b 810 271 653 522 810 472 b 463 -18 810 110 699 -18 m 336 1290 l 418 1161 l 421 1161 l 503 1290 l 596 1290 l 471 1110 l 368 1110 l 242 1290 "},"š":{"ha":656,"x_min":0,"x_max":0,"o":"m 344 -18 b 33 232 146 -18 38 90 l 128 232 b 346 61 133 135 197 61 b 526 193 481 61 526 124 b 322 332 526 297 421 308 b 60 535 192 365 60 397 b 311 725 60 650 151 725 b 594 510 496 725 582 626 l 500 510 b 313 646 488 572 450 646 b 154 540 211 646 154 607 b 357 413 154 451 250 439 b 622 196 490 381 622 343 b 344 -18 622 67 519 -18 m 244 1006 l 326 876 l 329 876 l 411 1006 l 504 1006 l 379 825 l 276 825 l 150 1006 "},"Ţ":{"ha":817,"x_min":0,"x_max":0,"o":"m 358 904 l 21 904 l 21 993 l 797 993 l 797 904 l 458 904 l 458 0 l 446 0 l 383 -75 l 383 -78 b 514 -165 446 -67 514 -92 b 374 -269 514 -239 447 -269 b 231 -228 319 -269 268 -251 l 257 -197 b 357 -219 289 -211 319 -219 b 433 -164 407 -219 433 -199 b 375 -118 433 -131 411 -118 b 317 -129 356 -118 331 -122 l 300 -104 l 385 0 l 358 0 "},"ţ":{"ha":389,"x_min":0,"x_max":0,"o":"m 282 -6 l 239 -57 l 239 -60 b 369 -147 301 -49 369 -74 b 229 -251 369 -221 303 -251 b 86 -210 175 -251 124 -233 l 113 -179 b 213 -201 144 -193 175 -201 b 289 -146 263 -201 289 -181 b 231 -100 289 -112 267 -100 b 172 -111 211 -100 186 -104 l 156 -86 l 226 0 b 122 183 161 15 122 64 l 122 629 l 18 629 l 18 708 l 122 708 l 122 944 l 213 944 l 213 708 l 356 708 l 356 629 l 213 629 l 213 182 b 301 74 213 94 232 74 b 356 76 324 74 335 75 l 356 0 b 289 -6 328 -4 311 -6 "},"Ť":{"ha":817,"x_min":0,"x_max":0,"o":"m 358 904 l 21 904 l 21 993 l 797 993 l 797 904 l 458 904 l 458 0 l 358 0 m 325 1290 l 407 1161 l 410 1161 l 492 1290 l 585 1290 l 460 1110 l 357 1110 l 231 1290 "},"ť":{"ha":389,"x_min":0,"x_max":0,"o":"m 289 -6 b 122 183 186 -6 122 29 l 122 629 l 18 629 l 18 708 l 122 708 l 122 944 l 213 944 l 213 708 l 356 708 l 356 629 l 213 629 l 213 182 b 301 74 213 94 232 74 b 356 76 324 74 335 75 l 356 0 b 289 -6 328 -4 311 -6 m 311 993 l 418 993 l 349 783 l 279 783 "},"Ŧ":{"ha":817,"x_min":0,"x_max":0,"o":"m 358 474 l 144 474 l 144 554 l 358 554 l 358 904 l 21 904 l 21 993 l 797 993 l 797 904 l 458 904 l 458 554 l 711 554 l 711 474 l 458 474 l 458 0 l 358 0 "},"ŧ":{"ha":400,"x_min":0,"x_max":0,"o":"m 22 481 l 128 481 l 128 629 l 24 629 l 24 708 l 128 708 l 128 944 l 218 944 l 218 708 l 361 708 l 361 629 l 218 629 l 218 481 l 361 481 l 361 401 l 218 401 l 218 182 b 307 74 218 94 238 74 b 361 76 329 74 340 75 l 361 0 b 294 -6 333 -4 317 -6 b 128 183 192 -6 128 29 l 128 401 l 22 401 "},"Ũ":{"ha":944,"x_min":0,"x_max":0,"o":"m 472 -18 b 99 335 213 -18 99 124 l 99 993 l 200 993 l 200 335 b 472 71 200 157 289 71 b 744 335 656 71 744 157 l 744 993 l 846 993 l 846 335 b 472 -18 846 124 732 -18 m 281 1118 b 381 1243 282 1206 328 1243 b 553 1186 451 1243 510 1186 b 590 1240 582 1186 589 1213 l 661 1240 b 561 1117 660 1151 614 1117 b 389 1174 492 1117 432 1174 b 351 1118 360 1174 353 1144 l 281 1118 "},"ũ":{"ha":729,"x_min":0,"x_max":0,"o":"m 310 -17 b 78 211 183 -17 78 54 l 78 708 l 168 708 l 168 231 b 332 63 168 140 210 63 b 556 261 467 63 556 157 l 556 708 l 646 708 l 646 0 l 556 0 l 556 100 l 553 100 b 310 -17 513 42 436 -17 m 160 833 b 260 958 161 921 207 958 b 432 901 331 958 389 901 b 469 956 461 901 468 928 l 540 956 b 440 832 539 867 493 832 b 268 889 371 832 311 889 b 231 833 239 889 232 860 l 160 833 "},"Ū":{"ha":944,"x_min":0,"x_max":0,"o":"m 472 -18 b 99 335 213 -18 99 124 l 99 993 l 200 993 l 200 335 b 472 71 200 157 289 71 b 744 335 656 71 744 157 l 744 993 l 846 993 l 846 335 b 472 -18 846 124 732 -18 m 300 1221 l 646 1221 l 646 1142 l 300 1142 "},"ū":{"ha":729,"x_min":0,"x_max":0,"o":"m 310 -17 b 78 211 183 -17 78 54 l 78 708 l 168 708 l 168 231 b 332 63 168 140 210 63 b 556 261 467 63 556 157 l 556 708 l 646 708 l 646 0 l 556 0 l 556 100 l 553 100 b 310 -17 513 42 436 -17 m 178 936 l 524 936 l 524 857 l 178 857 "},"Ŭ":{"ha":944,"x_min":0,"x_max":0,"o":"m 472 -18 b 99 335 213 -18 99 124 l 99 993 l 200 993 l 200 335 b 472 71 200 157 289 71 b 744 335 656 71 744 157 l 744 993 l 846 993 l 846 335 b 472 -18 846 124 732 -18 m 369 1278 b 472 1169 376 1208 408 1169 b 574 1278 536 1169 568 1208 l 644 1278 b 472 1101 639 1165 572 1101 b 300 1278 374 1101 304 1163 "},"ŭ":{"ha":729,"x_min":0,"x_max":0,"o":"m 310 -17 b 78 211 183 -17 78 54 l 78 708 l 168 708 l 168 231 b 332 63 168 140 210 63 b 556 261 467 63 556 157 l 556 708 l 646 708 l 646 0 l 556 0 l 556 100 l 553 100 b 310 -17 513 42 436 -17 m 249 993 b 351 885 256 924 288 885 b 453 993 415 885 447 924 l 524 993 b 351 817 518 881 451 817 b 179 993 253 817 183 878 "},"Ů":{"ha":944,"x_min":0,"x_max":0,"o":"m 472 -18 b 99 335 213 -18 99 124 l 99 993 l 200 993 l 200 335 b 472 71 200 157 289 71 b 744 335 656 71 744 157 l 744 993 l 846 993 l 846 335 b 472 -18 846 124 732 -18 m 351 1182 b 471 1300 351 1253 401 1300 b 590 1182 540 1300 590 1253 b 471 1064 590 1113 540 1064 b 351 1182 401 1064 351 1113 m 403 1182 b 471 1111 403 1140 429 1111 b 540 1182 513 1111 540 1140 b 471 1253 540 1222 513 1253 b 403 1182 429 1253 403 1222 "},"ů":{"ha":729,"x_min":0,"x_max":0,"o":"m 310 -17 b 78 211 183 -17 78 54 l 78 708 l 168 708 l 168 231 b 332 63 168 140 210 63 b 556 261 467 63 556 157 l 556 708 l 646 708 l 646 0 l 556 0 l 556 100 l 553 100 b 310 -17 513 42 436 -17 m 231 897 b 350 1015 231 968 281 1015 b 469 897 419 1015 469 968 b 350 779 469 828 419 779 b 231 897 281 779 231 828 m 282 897 b 350 826 282 856 308 826 b 419 897 392 826 419 856 b 350 968 419 938 392 968 b 282 897 308 968 282 938 "},"Ű":{"ha":944,"x_min":0,"x_max":0,"o":"m 472 -18 b 99 335 213 -18 99 124 l 99 993 l 200 993 l 200 335 b 472 71 200 157 289 71 b 744 335 656 71 744 157 l 744 993 l 846 993 l 846 335 b 472 -18 846 124 732 -18 m 419 1290 l 528 1290 l 408 1107 l 333 1107 m 610 1290 l 719 1290 l 599 1107 l 524 1107 "},"ű":{"ha":729,"x_min":0,"x_max":0,"o":"m 310 -17 b 78 211 183 -17 78 54 l 78 708 l 168 708 l 168 231 b 332 63 168 140 210 63 b 556 261 467 63 556 157 l 556 708 l 646 708 l 646 0 l 556 0 l 556 100 l 553 100 b 310 -17 513 42 436 -17 m 299 1006 l 407 1006 l 288 822 l 213 822 m 489 1006 l 599 1006 l 478 822 l 403 822 "},"Ų":{"ha":944,"x_min":0,"x_max":0,"o":"m 472 -18 b 99 335 213 -18 99 124 l 99 993 l 200 993 l 200 335 b 472 71 200 157 289 71 b 744 335 656 71 744 157 l 744 993 l 846 993 l 846 335 b 599 -4 846 163 769 36 b 506 -124 538 -49 506 -89 b 568 -175 506 -156 531 -175 b 638 -161 594 -175 615 -171 l 638 -229 b 551 -244 614 -237 583 -244 b 425 -140 467 -244 425 -201 b 504 -17 425 -90 463 -46 b 472 -18 494 -18 483 -18 "},"ų":{"ha":729,"x_min":0,"x_max":0,"o":"m 310 -17 b 78 211 183 -17 78 54 l 78 708 l 168 708 l 168 231 b 332 63 168 140 210 63 b 556 261 467 63 556 157 l 556 708 l 646 708 l 646 0 l 626 0 b 526 -124 561 -46 526 -87 b 589 -175 526 -156 551 -175 b 658 -161 615 -175 636 -171 l 658 -229 b 572 -244 635 -237 604 -244 b 446 -140 488 -244 446 -201 b 556 0 446 -78 503 -25 l 556 100 l 553 100 b 310 -17 513 42 436 -17 "},"Ŵ":{"ha":1251,"x_min":0,"x_max":0,"o":"m 24 993 l 131 993 l 333 144 l 336 144 l 569 993 l 682 993 l 915 144 l 919 144 l 1122 993 l 1228 993 l 979 0 l 867 0 l 628 874 l 624 874 l 385 0 l 274 0 m 575 1292 l 678 1292 l 803 1111 l 708 1111 l 626 1240 l 625 1240 l 543 1111 l 449 1111 "},"ŵ":{"ha":1024,"x_min":0,"x_max":0,"o":"m 18 708 l 118 708 l 294 103 l 297 103 l 463 708 l 564 708 l 729 103 l 732 103 l 910 708 l 1007 708 l 781 0 l 679 0 l 513 599 l 510 599 l 343 0 l 243 0 m 461 1007 l 564 1007 l 689 826 l 594 826 l 513 956 l 511 956 l 429 826 l 335 826 "},"Ŷ":{"ha":858,"x_min":0,"x_max":0,"o":"m 378 407 l 15 993 l 125 993 l 428 486 l 431 486 l 735 993 l 843 993 l 479 407 l 479 0 l 378 0 m 379 1292 l 482 1292 l 607 1111 l 513 1111 l 431 1240 l 429 1240 l 347 1111 l 253 1111 "},"ŷ":{"ha":668,"x_min":0,"x_max":0,"o":"m 146 -249 b 78 -243 124 -249 107 -247 l 78 -165 b 132 -169 99 -168 110 -169 b 292 4 199 -169 253 -126 l 6 708 l 106 708 l 336 118 l 339 118 l 558 708 l 656 708 l 372 -21 b 146 -249 303 -197 240 -249 m 281 1007 l 383 1007 l 508 826 l 414 826 l 332 956 l 331 956 l 249 826 l 154 826 "},"Ÿ":{"ha":858,"x_min":0,"x_max":0,"o":"m 378 407 l 15 993 l 125 993 l 428 486 l 431 486 l 735 993 l 843 993 l 479 407 l 479 0 l 378 0 m 268 1251 l 385 1251 l 385 1135 l 268 1135 m 475 1251 l 592 1251 l 592 1135 l 475 1135 "},"Ź":{"ha":817,"x_min":0,"x_max":0,"o":"m 25 89 l 649 901 l 649 904 l 53 904 l 53 993 l 772 993 l 772 904 l 149 92 l 149 89 l 786 89 l 786 0 l 25 0 m 450 1292 l 558 1292 l 439 1108 l 364 1108 "},"ź":{"ha":613,"x_min":0,"x_max":0,"o":"m 25 69 l 446 626 l 446 629 l 47 629 l 47 708 l 571 708 l 571 651 l 142 82 l 142 79 l 586 79 l 586 0 l 25 0 m 344 1007 l 453 1007 l 333 824 l 258 824 "},"Ż":{"ha":817,"x_min":0,"x_max":0,"o":"m 25 89 l 649 901 l 649 904 l 53 904 l 53 993 l 772 993 l 772 904 l 149 92 l 149 89 l 786 89 l 786 0 l 25 0 m 351 1251 l 468 1251 l 468 1135 l 351 1135 "},"ż":{"ha":613,"x_min":0,"x_max":0,"o":"m 25 69 l 446 626 l 446 629 l 47 629 l 47 708 l 571 708 l 571 651 l 142 82 l 142 79 l 586 79 l 586 0 l 25 0 m 246 967 l 363 967 l 363 850 l 246 850 "},"Ž":{"ha":817,"x_min":0,"x_max":0,"o":"m 25 89 l 649 901 l 649 904 l 53 904 l 53 993 l 772 993 l 772 904 l 149 92 l 149 89 l 786 89 l 786 0 l 25 0 m 326 1290 l 408 1161 l 411 1161 l 493 1290 l 586 1290 l 461 1110 l 358 1110 l 232 1290 "},"ž":{"ha":613,"x_min":0,"x_max":0,"o":"m 25 69 l 446 626 l 446 629 l 47 629 l 47 708 l 571 708 l 571 651 l 142 82 l 142 79 l 586 79 l 586 0 l 25 0 m 222 1006 l 304 876 l 307 876 l 389 1006 l 482 1006 l 357 825 l 254 825 l 128 1006 "},"ƒ":{"ha":631,"x_min":0,"x_max":0,"o":"m 96 -137 b 29 -129 75 -137 58 -136 l 25 -53 b 86 -58 51 -57 68 -58 b 189 51 158 -58 172 -33 l 290 560 l 175 560 l 178 639 l 306 639 l 340 813 b 539 1001 369 967 438 1001 b 608 996 560 1001 578 1000 l 592 919 b 536 922 567 921 556 922 b 428 807 464 922 444 896 l 394 639 l 536 639 l 533 560 l 379 560 l 279 53 b 96 -137 249 -103 189 -137 "},"Ș":{"ha":856,"x_min":0,"x_max":0,"o":"m 463 -18 b 38 329 224 -18 51 106 l 143 329 b 458 71 157 175 251 71 b 704 268 642 71 704 158 b 399 486 706 415 603 440 b 79 756 236 524 79 574 b 410 1011 79 914 206 1011 b 776 707 625 1011 761 901 l 671 707 b 410 922 654 844 578 922 b 185 760 264 922 185 863 b 449 567 185 626 303 599 b 810 271 653 522 810 472 b 463 -18 810 110 699 -18 m 415 -260 b 472 -165 460 -246 472 -224 l 415 -165 l 415 -67 l 532 -67 l 532 -165 b 415 -310 532 -233 510 -285 "},"ș":{"ha":656,"x_min":0,"x_max":0,"o":"m 344 -18 b 33 232 146 -18 38 90 l 128 232 b 346 61 133 135 197 61 b 526 193 481 61 526 124 b 322 332 526 297 421 308 b 60 535 192 365 60 397 b 311 725 60 650 151 725 b 594 510 496 725 582 626 l 500 510 b 313 646 488 572 450 646 b 154 540 211 646 154 607 b 357 413 154 451 250 439 b 622 196 490 381 622 343 b 344 -18 622 67 519 -18 m 279 -260 b 336 -165 324 -246 336 -224 l 279 -165 l 279 -67 l 396 -67 l 396 -165 b 279 -310 396 -233 374 -285 "},"Ț":{"ha":817,"x_min":0,"x_max":0,"o":"m 358 904 l 21 904 l 21 993 l 797 993 l 797 904 l 458 904 l 458 0 l 358 0 m 350 -260 b 407 -165 394 -246 407 -224 l 350 -165 l 350 -67 l 467 -67 l 467 -165 b 350 -310 467 -233 444 -285 "},"ț":{"ha":389,"x_min":0,"x_max":0,"o":"m 289 -6 b 122 183 186 -6 122 29 l 122 629 l 18 629 l 18 708 l 122 708 l 122 944 l 213 944 l 213 708 l 356 708 l 356 629 l 213 629 l 213 182 b 301 74 213 94 232 74 b 356 76 324 74 335 75 l 356 0 b 289 -6 328 -4 311 -6 m 206 -242 b 263 -147 250 -228 263 -206 l 206 -147 l 206 -49 l 322 -49 l 322 -147 b 206 -292 322 -215 300 -267 "},"ȷ":{"ha":257,"x_min":0,"x_max":0,"o":"m 35 -250 b -33 -244 11 -250 -6 -249 l -33 -167 b 19 -171 -12 -169 -1 -171 b 83 -61 65 -171 83 -144 l 83 708 l 174 708 l 174 -68 b 35 -250 174 -206 110 -250 "},"ˆ":{"ha":465,"x_min":0,"x_max":0,"o":"m 182 1007 l 285 1007 l 410 826 l 315 826 l 233 956 l 232 956 l 150 826 l 56 826 "},"ˇ":{"ha":465,"x_min":0,"x_max":0,"o":"m 56 1007 l 150 1007 l 232 878 l 235 878 l 317 1007 l 410 1007 l 285 826 l 182 826 "},"˘":{"ha":456,"x_min":0,"x_max":0,"o":"m 228 817 b 56 993 129 817 60 878 l 125 993 b 228 885 132 924 164 885 b 329 993 292 885 324 924 l 400 993 b 228 817 394 881 328 817 "},"˙":{"ha":226,"x_min":0,"x_max":0,"o":"m 54 967 l 171 967 l 171 850 l 54 850 "},"˚":{"ha":349,"x_min":0,"x_max":0,"o":"m 174 769 b 54 888 104 769 54 818 b 174 1006 54 958 104 1006 b 293 888 243 1006 293 958 b 174 769 293 818 243 769 m 106 888 b 174 817 106 846 132 817 b 243 888 215 817 243 846 b 174 958 243 928 215 958 b 106 888 132 958 106 928 "},"˛":{"ha":324,"x_min":0,"x_max":0,"o":"m 182 -244 b 56 -140 97 -244 56 -201 b 165 0 56 -78 113 -25 l 236 0 b 136 -124 171 -46 136 -87 b 199 -175 136 -156 161 -175 b 268 -161 225 -175 246 -171 l 268 -229 b 182 -244 244 -237 214 -244 "},"˜":{"ha":492,"x_min":0,"x_max":0,"o":"m 56 835 b 156 960 57 922 103 960 b 328 903 226 960 285 903 b 365 957 357 903 364 929 l 436 957 b 336 833 435 868 389 833 b 164 890 267 833 207 890 b 126 835 135 890 128 861 l 56 835 "},"˝":{"ha":482,"x_min":0,"x_max":0,"o":"m 324 1007 l 433 1007 l 313 824 l 238 824 m 133 1007 l 242 1007 l 122 824 l 47 824 "},"̀":{"ha":0,"x_min":0,"x_max":0,"o":"m 49 1007 l 158 1007 l 235 824 l 160 824 "},"́":{"ha":0,"x_min":0,"x_max":0,"o":"m 133 1007 l 242 1007 l 122 824 l 47 824 "},"̂":{"ha":0,"x_min":0,"x_max":0,"o":"m 182 1007 l 285 1007 l 410 826 l 315 826 l 233 956 l 232 956 l 150 826 l 56 826 "},"̃":{"ha":0,"x_min":0,"x_max":0,"o":"m 56 835 b 156 960 57 922 103 960 b 328 903 226 960 285 903 b 365 957 357 903 364 929 l 436 957 b 336 833 435 868 389 833 b 164 890 267 833 207 890 b 126 835 135 890 128 861 l 56 835 "},"̄":{"ha":0,"x_min":0,"x_max":0,"o":"m 56 938 l 401 938 l 401 858 l 56 858 "},"̆":{"ha":0,"x_min":0,"x_max":0,"o":"m 228 817 b 56 993 129 817 60 878 l 125 993 b 228 885 132 924 164 885 b 329 993 292 885 324 924 l 400 993 b 228 817 394 881 328 817 "},"̇":{"ha":0,"x_min":0,"x_max":0,"o":"m 54 967 l 171 967 l 171 850 l 54 850 "},"̈":{"ha":0,"x_min":0,"x_max":0,"o":"m 264 967 l 381 967 l 381 850 l 264 850 m 57 967 l 174 967 l 174 850 l 57 850 "},"̊":{"ha":0,"x_min":0,"x_max":0,"o":"m 174 779 b 54 897 104 779 54 828 b 174 1015 54 968 104 1015 b 293 897 243 1015 293 968 b 174 779 293 828 243 779 m 106 897 b 174 826 106 856 132 826 b 243 897 215 826 243 856 b 174 968 243 938 215 968 b 106 897 132 968 106 938 "},"̋":{"ha":0,"x_min":0,"x_max":0,"o":"m 324 1007 l 433 1007 l 313 824 l 238 824 m 133 1007 l 242 1007 l 122 824 l 47 824 "},"̌":{"ha":0,"x_min":0,"x_max":0,"o":"m 56 1007 l 150 1007 l 232 878 l 235 878 l 317 1007 l 410 1007 l 285 826 l 182 826 "},"̒":{"ha":0,"x_min":0,"x_max":0,"o":"m 54 938 b 171 1090 54 1007 76 1063 l 171 1035 b 114 938 126 1019 113 996 l 171 938 l 171 829 l 54 829 l 54 938 "},"̦":{"ha":0,"x_min":0,"x_max":0,"o":"m 56 -260 b 113 -165 100 -246 113 -224 l 56 -165 l 56 -67 l 172 -67 l 172 -165 b 56 -310 172 -233 150 -285 l 56 -260 "},"̧":{"ha":0,"x_min":0,"x_max":0,"o":"m 199 -269 b 56 -228 144 -269 93 -251 l 82 -197 b 182 -219 114 -211 144 -219 b 258 -164 232 -219 258 -199 b 200 -118 258 -131 236 -118 b 142 -129 181 -118 156 -122 l 125 -104 l 210 0 l 271 0 l 208 -75 l 208 -78 b 339 -165 271 -67 339 -92 b 199 -269 339 -239 272 -269 "},"̨":{"ha":0,"x_min":0,"x_max":0,"o":"m 182 -244 b 56 -140 97 -244 56 -201 b 165 0 56 -78 113 -25 l 236 0 b 136 -124 171 -46 136 -87 b 199 -175 136 -156 161 -175 b 268 -161 225 -175 246 -171 l 268 -229 b 182 -244 244 -237 214 -244 "},"̵":{"ha":0,"x_min":0,"x_max":0,"o":"m 56 554 l 622 554 l 622 474 l 56 474 "},"̶":{"ha":0,"x_min":0,"x_max":0,"o":"m 56 550 l 750 550 l 750 450 l 56 450 "},"̷":{"ha":0,"x_min":0,"x_max":0,"o":"m 56 31 l 735 724 l 778 681 l 97 -12 "},"̸":{"ha":0,"x_min":0,"x_max":0,"o":"m 56 31 l 735 724 l 778 681 l 97 -12 "},"Δ":{"ha":876,"x_min":0,"x_max":0,"o":"m 28 88 l 376 993 l 499 993 l 849 88 l 849 0 l 28 0 m 742 89 l 443 897 l 433 897 l 132 89 "},"Ω":{"ha":1089,"x_min":0,"x_max":0,"o":"m 53 89 l 285 89 b 74 515 160 175 74 325 b 544 1011 74 793 263 1011 b 1015 515 826 1011 1015 793 b 806 89 1015 325 931 175 l 1036 89 l 1036 0 l 642 0 l 643 72 b 910 499 793 153 910 269 b 544 919 910 751 769 919 b 179 499 321 919 179 751 b 446 72 179 269 296 153 l 447 0 l 53 0 "},"μ":{"ha":735,"x_min":0,"x_max":0,"o":"m 83 708 l 174 708 l 174 231 b 339 63 174 140 214 63 b 561 261 471 63 561 157 l 561 708 l 651 708 l 651 0 l 561 0 l 561 100 l 558 100 b 326 -17 519 42 446 -17 b 174 35 268 -17 214 0 l 174 -246 l 83 -246 "},"π":{"ha":743,"x_min":0,"x_max":0,"o":"m 129 629 l 21 629 l 21 708 l 704 708 l 704 629 l 601 629 l 601 163 b 665 74 601 93 615 74 b 701 76 679 74 689 75 l 701 0 b 636 -7 685 -6 657 -7 b 511 163 551 -7 511 26 l 511 629 l 219 629 l 219 0 l 129 0 "},"Ẁ":{"ha":1251,"x_min":0,"x_max":0,"o":"m 24 993 l 131 993 l 333 144 l 336 144 l 569 993 l 682 993 l 915 144 l 919 144 l 1122 993 l 1228 993 l 979 0 l 867 0 l 628 874 l 624 874 l 385 0 l 274 0 m 582 1292 l 658 1108 l 583 1108 l 472 1292 "},"ẁ":{"ha":1024,"x_min":0,"x_max":0,"o":"m 18 708 l 118 708 l 294 103 l 297 103 l 463 708 l 564 708 l 729 103 l 732 103 l 910 708 l 1007 708 l 781 0 l 679 0 l 513 599 l 510 599 l 343 0 l 243 0 m 468 1007 l 544 824 l 469 824 l 358 1007 "},"Ẃ":{"ha":1251,"x_min":0,"x_max":0,"o":"m 24 993 l 131 993 l 333 144 l 336 144 l 569 993 l 682 993 l 915 144 l 919 144 l 1122 993 l 1228 993 l 979 0 l 867 0 l 628 874 l 624 874 l 385 0 l 274 0 m 665 1292 l 774 1292 l 654 1108 l 579 1108 "},"ẃ":{"ha":1024,"x_min":0,"x_max":0,"o":"m 18 708 l 118 708 l 294 103 l 297 103 l 463 708 l 564 708 l 729 103 l 732 103 l 910 708 l 1007 708 l 781 0 l 679 0 l 513 599 l 510 599 l 343 0 l 243 0 m 551 1007 l 660 1007 l 540 824 l 465 824 "},"Ẅ":{"ha":1251,"x_min":0,"x_max":0,"o":"m 24 993 l 131 993 l 333 144 l 336 144 l 569 993 l 682 993 l 915 144 l 919 144 l 1122 993 l 1228 993 l 979 0 l 867 0 l 628 874 l 624 874 l 385 0 l 274 0 m 464 1251 l 581 1251 l 581 1135 l 464 1135 m 671 1251 l 788 1251 l 788 1135 l 671 1135 "},"ẅ":{"ha":1024,"x_min":0,"x_max":0,"o":"m 18 708 l 118 708 l 294 103 l 297 103 l 463 708 l 564 708 l 729 103 l 732 103 l 910 708 l 1007 708 l 781 0 l 679 0 l 513 599 l 510 599 l 343 0 l 243 0 m 351 967 l 468 967 l 468 850 l 351 850 m 558 967 l 675 967 l 675 850 l 558 850 "},"Ỳ":{"ha":858,"x_min":0,"x_max":0,"o":"m 378 407 l 15 993 l 125 993 l 428 486 l 431 486 l 735 993 l 843 993 l 479 407 l 479 0 l 378 0 m 386 1292 l 463 1108 l 388 1108 l 276 1292 "},"ỳ":{"ha":668,"x_min":0,"x_max":0,"o":"m 146 -249 b 78 -243 124 -249 107 -247 l 78 -165 b 132 -169 99 -168 110 -169 b 292 4 199 -169 253 -126 l 6 708 l 106 708 l 336 118 l 339 118 l 558 708 l 656 708 l 372 -21 b 146 -249 303 -197 240 -249 m 288 1007 l 364 824 l 289 824 l 178 1007 "}," ":{"ha":694,"x_min":0,"x_max":0,"o":""}," ":{"ha":1389,"x_min":0,"x_max":0,"o":""}," ":{"ha":694,"x_min":0,"x_max":0,"o":""}," ":{"ha":1389,"x_min":0,"x_max":0,"o":""}," ":{"ha":463,"x_min":0,"x_max":0,"o":""}," ":{"ha":347,"x_min":0,"x_max":0,"o":""}," ":{"ha":232,"x_min":0,"x_max":0,"o":""}," ":{"ha":931,"x_min":0,"x_max":0,"o":""}," ":{"ha":254,"x_min":0,"x_max":0,"o":""}," ":{"ha":174,"x_min":0,"x_max":0,"o":""}," ":{"ha":58,"x_min":0,"x_max":0,"o":""},"​":{"ha":0,"x_min":0,"x_max":0,"o":""},"–":{"ha":810,"x_min":0,"x_max":0,"o":"m 57 399 l 751 399 l 751 310 l 57 310 "},"—":{"ha":1501,"x_min":0,"x_max":0,"o":"m 57 399 l 1446 399 l 1446 308 l 57 308 "},"‘":{"ha":246,"x_min":0,"x_max":0,"o":"m 63 825 b 179 993 63 904 85 964 l 179 933 b 122 825 135 918 121 892 l 179 825 l 179 708 l 63 708 l 63 825 "},"’":{"ha":236,"x_min":0,"x_max":0,"o":"m 68 768 b 125 876 113 785 126 810 l 68 876 l 68 993 l 185 993 l 185 876 b 68 708 185 799 163 738 l 68 768 "},"‚":{"ha":253,"x_min":0,"x_max":0,"o":"m 68 -108 b 125 0 113 -92 126 -67 l 68 0 l 68 117 l 185 117 l 185 0 b 68 -168 185 -78 163 -139 l 68 -108 "},"“":{"ha":432,"x_min":0,"x_max":0,"o":"m 249 825 b 364 993 249 904 269 964 l 364 933 b 307 825 319 918 307 892 l 365 825 l 365 708 l 249 708 l 249 825 m 63 825 b 179 993 63 904 85 964 l 179 933 b 122 825 135 918 121 892 l 179 825 l 179 708 l 63 708 "},"”":{"ha":421,"x_min":0,"x_max":0,"o":"m 68 768 b 125 876 113 785 126 810 l 68 876 l 68 993 l 185 993 l 185 876 b 68 708 185 799 163 738 l 68 768 m 253 768 b 310 876 297 785 311 810 l 253 876 l 253 993 l 369 993 l 369 876 b 253 708 369 799 347 738 "},"„":{"ha":440,"x_min":0,"x_max":0,"o":"m 254 -108 b 311 0 299 -92 313 -67 l 254 0 l 254 117 l 371 117 l 371 0 b 254 -168 371 -78 349 -139 l 254 -108 m 68 -108 b 125 0 113 -92 126 -67 l 68 0 l 68 117 l 185 117 l 185 0 b 68 -168 185 -78 163 -139 "},"†":{"ha":649,"x_min":0,"x_max":0,"o":"m 275 611 l 18 611 l 18 700 l 275 700 l 275 993 l 375 993 l 375 700 l 631 700 l 631 611 l 375 611 l 375 -246 l 275 -246 "},"‡":{"ha":703,"x_min":0,"x_max":0,"o":"m 300 167 l 46 167 l 46 256 l 300 256 l 300 611 l 44 611 l 44 700 l 300 700 l 300 993 l 401 993 l 401 700 l 656 700 l 656 611 l 401 611 l 401 256 l 658 256 l 658 167 l 401 167 l 401 -246 l 300 -246 "},"•":{"ha":485,"x_min":0,"x_max":0,"o":"m 111 549 l 375 549 l 375 285 l 111 285 "},"…":{"ha":765,"x_min":0,"x_max":0,"o":"m 68 117 l 185 117 l 185 0 l 68 0 m 324 117 l 440 117 l 440 0 l 324 0 m 579 117 l 696 117 l 696 0 l 579 0 "},"‰":{"ha":1578,"x_min":0,"x_max":0,"o":"m 1329 -18 b 1111 251 1182 -18 1111 106 b 1329 521 1111 397 1179 521 b 1547 251 1478 521 1547 397 b 1329 -18 1547 106 1479 -18 m 33 703 b 251 972 33 850 101 972 b 468 703 399 972 468 850 b 251 435 468 557 401 435 b 33 703 103 435 33 557 m 117 703 b 251 511 117 596 157 511 b 385 703 344 511 385 596 b 251 896 385 811 344 896 b 117 703 157 896 117 811 m 771 957 l 863 957 l 318 0 l 225 0 m 621 251 b 839 521 621 397 689 521 b 1057 251 986 521 1057 397 b 839 -18 1057 106 989 -18 b 621 251 690 -18 621 106 m 706 251 b 839 58 706 143 744 58 b 972 251 933 58 972 143 b 839 443 972 358 933 443 b 706 251 744 443 706 358 m 1196 251 b 1329 58 1196 143 1235 58 b 1463 251 1424 58 1463 143 b 1329 443 1463 358 1424 443 b 1196 251 1235 443 1196 358 "},"‹":{"ha":407,"x_min":0,"x_max":0,"o":"m 61 307 l 61 415 l 333 638 l 333 533 l 115 363 l 115 360 l 333 189 l 333 83 "},"›":{"ha":407,"x_min":0,"x_max":0,"o":"m 74 188 l 292 360 l 292 363 l 74 533 l 74 638 l 346 415 l 346 306 l 74 83 "},"⁄":{"ha":261,"x_min":0,"x_max":0,"o":"m 392 993 l 494 993 l -135 0 l -237 0 "},"⁰":{"ha":536,"x_min":0,"x_max":0,"o":"m 268 501 b 40 794 111 501 40 636 b 268 1088 40 953 111 1088 b 496 794 426 1088 496 951 b 268 501 496 638 426 501 m 132 794 b 268 574 132 671 167 574 b 404 794 369 574 404 669 b 268 1017 404 919 369 1017 b 132 794 167 1017 132 917 "},"⁴":{"ha":496,"x_min":0,"x_max":0,"o":"m 297 636 l 29 636 l 29 719 l 297 1069 l 385 1069 l 385 710 l 467 710 l 467 636 l 385 636 l 385 506 l 297 506 m 297 710 l 297 964 l 104 710 "},"⁵":{"ha":488,"x_min":0,"x_max":0,"o":"m 246 494 b 32 669 110 494 35 571 l 122 669 b 240 567 126 610 167 567 b 360 697 311 567 360 611 b 244 817 360 778 314 817 b 129 764 197 817 156 797 l 44 764 l 104 1069 l 422 1069 l 422 997 l 171 997 l 138 836 l 138 835 b 268 885 169 867 213 885 b 450 696 378 885 450 807 b 246 494 450 569 363 494 "},"⁶":{"ha":507,"x_min":0,"x_max":0,"o":"m 265 499 b 43 785 103 499 43 618 b 265 1086 43 981 126 1086 b 451 933 368 1086 440 1021 l 361 933 b 265 1015 356 983 322 1015 b 132 814 175 1015 132 946 l 132 801 l 133 801 b 281 883 161 854 217 883 b 468 694 393 883 468 804 b 265 499 468 583 390 499 m 142 688 b 261 569 142 622 185 569 b 381 690 338 569 381 621 b 265 813 381 765 336 813 b 142 688 194 813 142 765 "},"⁷":{"ha":426,"x_min":0,"x_max":0,"o":"m 101 506 b 308 996 101 683 189 893 l 308 997 l 10 997 l 10 1069 l 406 1069 l 406 1004 b 193 506 263 889 193 682 l 101 506 "},"⁸":{"ha":508,"x_min":0,"x_max":0,"o":"m 254 501 b 38 671 136 501 38 560 b 147 815 38 751 92 793 l 147 817 b 64 939 101 839 64 876 b 254 1089 64 1033 147 1089 b 444 939 363 1089 444 1033 b 363 817 444 874 403 838 l 363 815 b 471 671 421 790 471 747 b 254 501 471 560 374 501 m 126 678 b 254 571 126 613 178 571 b 382 678 332 571 382 614 b 254 782 382 740 332 782 b 126 678 178 782 126 742 m 147 933 b 254 846 147 878 189 846 b 360 933 319 846 360 878 b 254 1022 360 989 318 1022 b 147 933 189 1022 147 989 "},"⁹":{"ha":504,"x_min":0,"x_max":0,"o":"m 240 503 b 54 656 139 503 67 568 l 144 656 b 240 572 150 611 179 572 b 375 771 342 572 375 660 l 375 788 l 374 788 b 225 704 346 735 289 704 b 39 893 114 704 39 783 b 242 1090 39 1006 115 1090 b 463 804 400 1090 463 969 b 240 503 463 610 379 503 m 126 897 b 240 775 126 824 171 775 b 367 901 313 775 367 824 b 244 1019 367 967 322 1019 b 126 897 168 1019 126 969 "},"₀":{"ha":536,"x_min":0,"x_max":0,"o":"m 268 -150 b 40 143 111 -150 40 -15 b 268 436 40 301 111 436 b 496 143 426 436 496 300 b 268 -150 496 -14 426 -150 m 132 143 b 268 -78 132 19 167 -78 b 404 143 369 -78 404 18 b 268 365 404 268 369 365 b 132 143 167 365 132 265 "},"₁":{"ha":292,"x_min":0,"x_max":0,"o":"m 135 282 b 17 254 108 257 63 254 l 17 325 b 150 425 104 326 147 356 l 224 425 l 224 -139 l 135 -139 l 135 282 "},"₂":{"ha":474,"x_min":0,"x_max":0,"o":"m 29 -139 b 169 83 29 -37 85 26 b 343 267 261 144 343 178 b 246 364 343 318 317 364 b 129 231 165 364 129 310 l 43 231 b 249 438 43 343 110 438 b 435 272 358 438 435 378 b 275 63 435 165 356 115 b 146 -64 218 28 160 -7 l 146 -67 l 431 -67 l 431 -139 l 29 -139 "},"₃":{"ha":501,"x_min":0,"x_max":0,"o":"m 258 -150 b 32 54 114 -150 32 -75 l 119 54 b 253 -78 119 -26 158 -78 b 369 21 333 -78 369 -40 b 254 121 369 94 315 121 l 206 121 l 206 189 l 251 189 b 351 275 313 189 351 217 b 253 364 351 326 321 364 b 136 257 167 364 136 317 l 49 257 b 257 438 49 360 121 438 b 442 283 354 438 442 382 b 356 160 442 225 413 183 l 356 158 b 461 18 429 135 461 85 b 258 -150 461 -90 378 -150 "},"₄":{"ha":496,"x_min":0,"x_max":0,"o":"m 297 -8 l 29 -8 l 29 75 l 297 425 l 385 425 l 385 65 l 467 65 l 467 -8 l 385 -8 l 385 -139 l 297 -139 m 297 65 l 297 319 l 104 65 "},"₅":{"ha":488,"x_min":0,"x_max":0,"o":"m 246 -150 b 32 25 110 -150 35 -74 l 122 25 b 240 -78 126 -35 167 -78 b 360 53 311 -78 360 -33 b 244 172 360 133 314 172 b 129 119 197 172 156 153 l 44 119 l 104 425 l 422 425 l 422 353 l 171 353 l 138 192 l 138 190 b 268 240 169 222 213 240 b 450 51 378 240 450 163 b 246 -150 450 -75 363 -150 "},"₆":{"ha":507,"x_min":0,"x_max":0,"o":"m 265 -150 b 43 136 103 -150 43 -31 b 265 438 43 332 126 438 b 451 285 368 438 440 372 l 361 285 b 265 367 356 335 322 367 b 132 165 175 367 132 297 l 132 153 l 133 153 b 281 235 161 206 217 235 b 468 46 393 235 468 156 b 265 -150 468 -65 390 -150 m 142 39 b 261 -79 142 -26 185 -79 b 381 42 338 -79 381 -28 b 265 164 381 117 336 164 b 142 39 194 164 142 117 "},"₇":{"ha":426,"x_min":0,"x_max":0,"o":"m 101 -139 b 308 351 101 39 189 249 l 308 353 l 10 353 l 10 425 l 406 425 l 406 360 b 193 -139 263 244 193 38 l 101 -139 "},"₈":{"ha":508,"x_min":0,"x_max":0,"o":"m 254 -150 b 38 19 136 -150 38 -92 b 147 164 38 100 92 142 l 147 165 b 64 288 101 188 64 225 b 254 438 64 382 147 438 b 444 288 363 438 444 382 b 363 165 444 222 403 186 l 363 164 b 471 19 421 139 471 96 b 254 -150 471 -92 374 -150 m 126 26 b 254 -81 126 -39 178 -81 b 382 26 332 -81 382 -37 b 254 131 382 89 332 131 b 126 26 178 131 126 90 m 147 282 b 254 194 147 226 189 194 b 360 282 319 194 360 226 b 254 371 360 338 318 371 b 147 282 189 371 147 338 "},"₉":{"ha":504,"x_min":0,"x_max":0,"o":"m 240 -150 b 54 3 139 -150 67 -85 l 144 3 b 240 -81 150 -42 179 -81 b 375 118 342 -81 375 7 l 375 135 l 374 135 b 225 51 346 82 289 51 b 39 240 114 51 39 131 b 242 438 39 353 115 438 b 463 151 400 438 463 317 b 240 -150 463 -43 379 -150 m 126 244 b 240 122 126 171 171 122 b 367 249 313 122 367 171 b 244 367 367 314 322 367 b 126 244 168 367 126 317 "},"€":{"ha":906,"x_min":0,"x_max":0,"o":"m 517 -18 b 160 358 322 -18 192 126 l 71 358 l 71 428 l 153 428 b 151 476 151 443 151 460 b 153 522 151 492 151 507 l 71 522 l 71 592 l 158 592 b 517 969 190 824 321 969 b 846 646 715 969 824 826 l 746 646 b 517 881 728 751 674 881 b 261 592 364 881 285 757 l 556 592 l 556 522 l 254 522 b 253 476 253 507 253 492 b 254 428 253 460 253 443 l 556 428 l 556 358 l 261 358 b 517 71 285 193 365 71 b 746 340 675 71 738 203 l 846 340 b 517 -18 825 125 717 -18 "},"™":{"ha":910,"x_min":0,"x_max":0,"o":"m 411 993 l 518 993 l 615 697 l 617 697 l 717 993 l 822 993 l 822 606 l 751 606 l 751 906 l 749 906 l 651 606 l 582 606 l 485 906 l 482 906 l 482 606 l 411 606 m 28 993 l 357 993 l 357 929 l 229 929 l 229 606 l 156 606 l 156 929 l 28 929 "},"Ω":{"ha":1089,"x_min":0,"x_max":0,"o":"m 53 89 l 285 89 b 74 515 160 175 74 325 b 544 1011 74 793 263 1011 b 1015 515 826 1011 1015 793 b 806 89 1015 325 931 175 l 1036 89 l 1036 0 l 642 0 l 643 72 b 910 499 793 153 910 269 b 544 919 910 751 769 919 b 179 499 321 919 179 751 b 446 72 179 269 296 153 l 447 0 l 53 0 "},"⅛":{"ha":1031,"x_min":0,"x_max":0,"o":"m 147 850 b 29 822 121 825 75 822 l 29 893 b 163 993 117 894 160 924 l 236 993 l 236 429 l 147 429 l 147 850 m 711 993 l 814 993 l 185 0 l 82 0 m 564 158 b 674 303 564 239 618 281 l 674 304 b 590 426 628 326 590 364 b 781 576 590 521 674 576 b 971 426 889 576 971 521 b 889 304 971 361 929 325 l 889 303 b 997 158 947 278 997 235 b 781 -11 997 47 900 -11 b 564 158 663 -11 564 47 m 653 165 b 781 58 653 100 704 58 b 908 165 858 58 908 101 b 781 269 908 228 858 269 b 653 165 704 269 653 229 m 674 421 b 781 333 674 365 715 333 b 886 421 846 333 886 365 b 781 510 886 476 844 510 b 674 421 715 510 674 476 "},"⅜":{"ha":1221,"x_min":0,"x_max":0,"o":"m 269 419 b 43 624 125 419 43 494 l 131 624 b 264 492 131 543 169 492 b 381 590 344 492 381 529 b 265 690 381 664 326 690 l 217 690 l 217 758 l 263 758 b 363 844 324 758 363 786 b 264 933 363 896 332 933 b 147 826 178 933 147 886 l 60 826 b 268 1007 60 929 132 1007 b 453 853 365 1007 453 951 b 367 729 453 794 424 753 l 367 728 b 472 588 440 704 472 654 b 269 419 472 479 389 419 m 900 993 l 1003 993 l 374 0 l 271 0 m 749 158 b 858 303 749 239 803 281 l 858 304 b 775 426 813 326 775 364 b 965 576 775 521 858 576 b 1156 426 1074 576 1156 521 b 1074 304 1156 361 1114 325 l 1074 303 b 1182 158 1132 278 1182 235 b 965 -11 1182 47 1085 -11 b 749 158 847 -11 749 47 m 838 165 b 965 58 838 100 889 58 b 1093 165 1043 58 1093 101 b 965 269 1093 228 1043 269 b 838 165 889 269 838 229 m 858 421 b 965 333 858 365 900 333 b 1071 421 1031 333 1071 365 b 965 510 1071 476 1029 510 b 858 421 900 510 858 476 "},"⅝":{"ha":1188,"x_min":0,"x_max":0,"o":"m 247 418 b 33 593 111 418 36 494 l 124 593 b 242 490 128 533 168 490 b 361 621 313 490 361 535 b 246 740 361 701 315 740 b 131 688 199 740 157 721 l 46 688 l 106 993 l 424 993 l 424 921 l 172 921 l 139 760 l 139 758 b 269 808 171 790 214 808 b 451 619 379 808 451 731 b 247 418 451 493 364 418 m 871 993 l 974 993 l 344 0 l 242 0 m 721 158 b 831 303 721 239 775 281 l 831 304 b 747 426 785 326 747 364 b 938 576 747 521 831 576 b 1128 426 1046 576 1128 521 b 1046 304 1128 361 1086 325 l 1046 303 b 1154 158 1104 278 1154 235 b 938 -11 1154 47 1057 -11 b 721 158 819 -11 721 47 m 810 165 b 938 58 810 100 861 58 b 1065 165 1015 58 1065 101 b 938 269 1065 228 1015 269 b 810 165 861 269 810 229 m 831 421 b 938 333 831 365 872 333 b 1043 421 1003 333 1043 365 b 938 510 1043 476 1001 510 b 831 421 872 510 831 476 "},"⅞":{"ha":1082,"x_min":0,"x_max":0,"o":"m 117 429 b 324 919 117 607 204 817 l 324 921 l 25 921 l 25 993 l 421 993 l 421 928 b 208 429 278 813 208 606 l 117 429 m 736 993 l 839 993 l 210 0 l 107 0 m 614 158 b 724 303 614 239 668 281 l 724 304 b 640 426 678 326 640 364 b 831 576 640 521 724 576 b 1021 426 939 576 1021 521 b 939 304 1021 361 979 325 l 939 303 b 1047 158 997 278 1047 235 b 831 -11 1047 47 950 -11 b 614 158 713 -11 614 47 m 703 165 b 831 58 703 100 754 58 b 958 165 908 58 958 101 b 831 269 958 228 908 269 b 703 165 754 269 703 229 m 724 421 b 831 333 724 365 765 333 b 936 421 896 333 936 365 b 831 510 936 476 894 510 b 724 421 765 510 724 476 "},"←":{"ha":1086,"x_min":0,"x_max":0,"o":"m 61 444 l 408 819 l 469 763 l 211 485 l 1021 485 l 1021 403 l 211 403 l 469 125 l 408 69 "},"↑":{"ha":804,"x_min":0,"x_max":0,"o":"m 361 811 l 83 551 l 28 613 l 403 960 l 778 613 l 721 551 l 443 811 l 443 0 l 361 0 "},"→":{"ha":1086,"x_min":0,"x_max":0,"o":"m 617 125 l 875 403 l 65 403 l 65 485 l 875 485 l 617 763 l 678 819 l 1025 444 l 678 69 "},"↓":{"ha":806,"x_min":0,"x_max":0,"o":"m 28 292 l 85 353 l 363 93 l 363 904 l 443 904 l 443 93 l 722 353 l 778 292 l 403 -56 "},"↔":{"ha":1600,"x_min":0,"x_max":0,"o":"m 60 444 l 407 819 l 468 763 l 210 485 l 1390 485 l 1131 763 l 1192 819 l 1539 444 l 1192 69 l 1131 125 l 1390 403 l 210 403 l 468 125 l 407 69 "},"↕":{"ha":822,"x_min":0,"x_max":0,"o":"m 36 101 l 93 163 l 371 -97 l 371 943 l 93 683 l 36 744 l 411 1092 l 786 744 l 729 683 l 451 943 l 451 -97 l 729 163 l 786 101 l 411 -246 "},"↖":{"ha":818,"x_min":0,"x_max":0,"o":"m 151 683 l 153 308 l 71 308 l 71 822 l 586 822 l 586 742 l 208 742 l 781 169 l 724 111 "},"↗":{"ha":818,"x_min":0,"x_max":0,"o":"m 36 169 l 610 742 l 232 742 l 232 822 l 746 822 l 746 308 l 665 308 l 665 683 l 93 111 "},"↘":{"ha":826,"x_min":0,"x_max":0,"o":"m 232 154 l 610 154 l 36 726 l 94 783 l 667 211 l 665 586 l 747 586 l 747 74 l 232 74 "},"↙":{"ha":826,"x_min":0,"x_max":0,"o":"m 81 586 l 161 586 l 161 211 l 733 783 l 790 726 l 217 154 l 594 154 l 594 74 l 81 74 "},"∂":{"ha":715,"x_min":0,"x_max":0,"o":"m 313 -18 b 32 296 143 -18 32 106 b 347 653 32 486 161 653 b 567 521 450 653 524 607 b 190 915 531 746 417 869 l 190 994 b 658 431 524 938 658 711 b 313 -18 658 196 553 -18 m 122 288 b 324 63 122 153 204 63 b 565 346 483 63 565 203 b 361 572 565 471 492 572 b 122 288 215 572 122 446 "},"∅":{"ha":1167,"x_min":0,"x_max":0,"o":"m 585 -18 b 246 99 454 -18 335 24 l 156 8 l 113 51 l 201 140 b 74 479 121 225 74 342 b 585 978 74 776 299 978 b 922 861 715 978 833 936 l 1014 953 l 1057 908 l 968 819 b 1094 479 1047 733 1094 617 b 585 -18 1094 182 871 -18 m 135 479 b 244 183 135 361 176 260 l 878 817 b 585 918 800 882 697 918 b 135 479 333 918 135 739 m 289 142 b 585 42 368 78 471 42 b 1032 479 835 42 1032 219 b 924 775 1032 597 992 699 l 289 142 "},"∆":{"ha":874,"x_min":0,"x_max":0,"o":"m 26 88 l 375 993 l 497 993 l 847 88 l 847 0 l 26 0 m 740 89 l 442 897 l 432 897 l 131 89 "},"∏":{"ha":974,"x_min":0,"x_max":0,"o":"m 106 993 l 868 993 l 868 -139 l 767 -139 l 767 904 l 207 904 l 207 -139 l 106 -139 "},"∑":{"ha":814,"x_min":0,"x_max":0,"o":"m 42 -46 l 442 442 l 442 443 l 42 901 l 42 993 l 764 993 l 764 904 l 161 904 l 161 901 l 528 474 l 528 417 l 153 -47 l 153 -50 l 776 -50 l 776 -139 l 42 -139 "},"−":{"ha":753,"x_min":0,"x_max":0,"o":"m 69 497 l 685 497 l 685 408 l 69 408 "},"∙":{"ha":403,"x_min":0,"x_max":0,"o":"m 143 540 l 260 540 l 260 424 l 143 424 "},"√":{"ha":849,"x_min":0,"x_max":0,"o":"m 168 340 l 61 340 l 61 429 l 232 429 l 388 -11 l 390 -11 l 719 993 l 821 993 l 435 -139 l 344 -139 "},"∞":{"ha":1024,"x_min":0,"x_max":0,"o":"m 265 185 b 65 422 153 185 65 274 b 265 661 65 572 151 661 b 514 493 386 661 460 569 b 758 661 571 574 639 661 b 957 422 869 661 957 576 b 760 185 957 271 869 185 b 514 361 639 185 569 285 b 265 185 454 278 386 185 m 157 424 b 282 275 157 332 203 275 b 467 422 364 275 419 353 b 282 572 422 490 364 572 b 157 424 201 572 157 515 m 560 424 b 743 275 606 357 661 275 b 867 424 821 275 867 332 b 742 572 867 517 821 572 b 560 424 660 572 607 492 "},"∫":{"ha":500,"x_min":0,"x_max":0,"o":"m 119 -242 b 22 -228 81 -242 43 -235 l 22 -139 b 83 -146 46 -143 67 -146 b 200 24 172 -146 200 -90 l 200 793 b 381 1025 200 925 250 1025 b 476 1011 419 1025 457 1018 l 476 922 b 415 929 454 926 433 929 b 300 760 328 929 300 865 l 300 -10 b 119 -242 300 -142 250 -242 "},"≈":{"ha":801,"x_min":0,"x_max":0,"o":"m 85 457 b 236 604 88 528 124 604 b 558 550 339 604 457 550 b 640 618 618 550 639 568 l 722 618 b 569 471 719 546 683 471 b 247 524 465 471 343 524 b 167 457 188 524 168 504 l 85 457 m 85 246 b 236 393 88 318 124 393 b 558 340 339 393 457 340 b 640 408 618 340 639 358 l 722 408 b 569 261 719 336 683 261 b 247 314 465 261 343 314 b 167 246 188 314 168 294 l 85 246 "},"≠":{"ha":750,"x_min":0,"x_max":0,"o":"m 271 311 l 76 311 l 76 400 l 314 400 l 364 507 l 76 507 l 76 596 l 407 596 l 482 756 l 563 756 l 488 596 l 683 596 l 683 507 l 446 507 l 394 400 l 683 400 l 683 311 l 353 311 l 278 151 l 196 151 "},"≤":{"ha":694,"x_min":0,"x_max":0,"o":"m 63 385 l 63 489 l 622 719 l 622 628 l 140 439 l 140 436 l 622 247 l 622 157 m 63 79 l 622 79 l 622 0 l 63 0 "},"≥":{"ha":693,"x_min":0,"x_max":0,"o":"m 72 249 l 551 436 l 551 439 l 72 628 l 72 719 l 631 488 l 631 388 l 72 157 m 72 79 l 631 79 l 631 0 l 72 0 "},"≦":{"ha":771,"x_min":0,"x_max":0,"o":"m 78 553 l 78 665 l 685 890 l 685 796 l 165 611 l 165 608 l 685 425 l 685 331 m 78 89 l 685 89 l 685 0 l 78 0 m 78 285 l 685 285 l 685 196 l 78 196 "},"≧":{"ha":771,"x_min":0,"x_max":0,"o":"m 86 425 l 604 608 l 604 611 l 86 796 l 86 890 l 692 665 l 692 553 l 86 331 m 86 89 l 692 89 l 692 0 l 86 0 m 86 285 l 692 285 l 692 196 l 86 196 "},"①":{"ha":1175,"x_min":0,"x_max":0,"o":"m 589 -18 b 71 496 276 -18 71 185 b 589 1011 71 808 276 1011 b 1106 496 900 1011 1106 808 b 589 -18 1106 185 900 -18 m 161 496 b 589 61 161 233 331 61 b 1015 496 844 61 1015 233 b 589 932 1015 760 844 932 b 161 496 331 932 161 760 m 439 679 b 572 779 526 681 569 710 l 646 779 l 646 215 l 557 215 l 557 636 b 439 608 531 611 485 608 "},"②":{"ha":1175,"x_min":0,"x_max":0,"o":"m 589 -18 b 71 496 276 -18 71 185 b 589 1011 71 808 276 1011 b 1106 496 900 1011 1106 808 b 589 -18 1106 185 900 -18 m 161 496 b 589 61 161 233 331 61 b 1015 496 844 61 1015 233 b 589 932 1015 760 844 932 b 161 496 331 932 161 760 m 382 215 b 522 438 382 317 438 381 b 696 621 614 499 696 532 b 599 718 696 672 669 718 b 482 585 518 718 482 664 l 396 585 b 601 792 396 697 463 792 b 788 626 711 792 788 732 b 628 417 788 519 708 469 b 499 290 571 382 513 347 l 499 288 l 783 288 l 783 215 l 382 215 "},"③":{"ha":1175,"x_min":0,"x_max":0,"o":"m 589 -18 b 71 496 276 -18 71 185 b 589 1011 71 808 276 1011 b 1106 496 900 1011 1106 808 b 589 -18 1106 185 900 -18 m 161 496 b 589 61 161 233 331 61 b 1015 496 844 61 1015 233 b 589 932 1015 760 844 932 b 161 496 331 932 161 760 m 460 407 b 593 275 460 326 499 275 b 710 374 674 275 710 313 b 594 474 710 447 656 474 l 546 474 l 546 542 l 592 542 b 692 628 653 542 692 569 b 593 717 692 679 661 717 b 476 610 507 717 476 669 l 389 610 b 597 790 389 713 461 790 b 782 636 694 790 782 735 b 696 513 782 578 753 536 l 696 511 b 801 371 769 488 801 438 b 599 203 801 263 718 203 b 372 407 454 203 372 278 "},"④":{"ha":1175,"x_min":0,"x_max":0,"o":"m 589 -18 b 71 496 276 -18 71 185 b 589 1011 71 808 276 1011 b 1106 496 900 1011 1106 808 b 589 -18 1106 185 900 -18 m 161 496 b 589 61 161 233 331 61 b 1015 496 844 61 1015 233 b 589 932 1015 760 844 932 b 161 496 331 932 161 760 m 347 428 l 615 778 l 703 778 l 703 418 l 785 418 l 785 344 l 703 344 l 703 214 l 615 214 l 615 344 l 347 344 m 615 418 l 615 672 l 422 418 "},"⑤":{"ha":1175,"x_min":0,"x_max":0,"o":"m 589 -18 b 71 496 276 -18 71 185 b 589 1011 71 808 276 1011 b 1106 496 900 1011 1106 808 b 589 -18 1106 185 900 -18 m 161 496 b 589 61 161 233 331 61 b 1015 496 844 61 1015 233 b 589 932 1015 760 844 932 b 161 496 331 932 161 760 m 469 378 b 588 275 474 318 514 275 b 707 406 658 275 707 319 b 592 525 707 486 661 525 b 476 472 544 525 503 506 l 392 472 l 451 778 l 769 778 l 769 706 l 518 706 l 485 544 l 485 543 b 615 593 517 575 560 593 b 797 404 725 593 797 515 b 593 203 797 278 710 203 b 379 378 457 203 382 279 "},"⑥":{"ha":1175,"x_min":0,"x_max":0,"o":"m 589 -18 b 71 496 276 -18 71 185 b 589 1011 71 808 276 1011 b 1106 496 900 1011 1106 808 b 589 -18 1106 185 900 -18 m 161 496 b 589 61 161 233 331 61 b 1015 496 844 61 1015 233 b 589 932 1015 760 844 932 b 161 496 331 932 161 760 m 376 489 b 599 790 376 685 460 790 b 785 638 701 790 774 725 l 694 638 b 599 719 689 688 656 719 b 465 518 508 719 465 650 l 465 506 l 467 506 b 614 588 494 558 550 588 b 801 399 726 588 801 508 b 599 203 801 288 724 203 b 376 489 436 203 376 322 m 475 392 b 594 274 475 326 518 274 b 714 394 671 274 714 325 b 599 517 714 469 669 517 b 475 392 528 517 475 469 "},"⑦":{"ha":1175,"x_min":0,"x_max":0,"o":"m 589 -18 b 71 496 276 -18 71 185 b 589 1011 71 808 276 1011 b 1106 496 900 1011 1106 808 b 589 -18 1106 185 900 -18 m 161 496 b 589 61 161 233 331 61 b 1015 496 844 61 1015 233 b 589 932 1015 760 844 932 b 161 496 331 932 161 760 m 389 763 l 785 763 l 785 697 b 572 199 642 582 572 375 l 481 199 b 688 689 481 376 568 586 l 688 690 l 389 690 "},"⑧":{"ha":1175,"x_min":0,"x_max":0,"o":"m 589 -18 b 71 496 276 -18 71 185 b 589 1011 71 808 276 1011 b 1106 496 900 1011 1106 808 b 589 -18 1106 185 900 -18 m 161 496 b 589 61 161 233 331 61 b 1015 496 844 61 1015 233 b 589 932 1015 760 844 932 b 161 496 331 932 161 760 m 371 372 b 481 517 371 453 425 494 l 481 518 b 397 640 435 540 397 578 b 588 790 397 735 481 790 b 778 640 696 790 778 735 b 696 518 778 575 736 539 l 696 517 b 804 372 754 492 804 449 b 588 203 804 261 707 203 b 371 372 469 203 371 261 m 460 379 b 588 272 460 314 511 272 b 715 379 665 272 715 315 b 588 483 715 442 665 483 b 460 379 511 483 460 443 m 481 635 b 588 547 481 579 522 547 b 693 635 653 547 693 579 b 588 724 693 690 651 724 b 481 635 522 724 481 690 "},"⑨":{"ha":1175,"x_min":0,"x_max":0,"o":"m 589 -18 b 71 496 276 -18 71 185 b 589 1011 71 808 276 1011 b 1106 496 900 1011 1106 808 b 589 -18 1106 185 900 -18 m 161 496 b 589 61 161 233 331 61 b 1015 496 844 61 1015 233 b 589 932 1015 760 844 932 b 161 496 331 932 161 760 m 375 593 b 578 790 375 706 451 790 b 799 504 736 790 799 669 b 576 203 799 310 715 203 b 390 356 475 203 403 268 l 481 356 b 576 272 486 311 515 272 b 711 471 678 272 711 360 l 711 488 l 710 488 b 561 404 682 435 625 404 b 375 593 450 404 375 483 m 463 597 b 576 475 463 524 507 475 b 703 601 649 475 703 524 b 581 719 703 667 658 719 b 463 597 504 719 463 669 "},"⓪":{"ha":1175,"x_min":0,"x_max":0,"o":"m 589 -18 b 71 496 276 -18 71 185 b 589 1011 71 808 276 1011 b 1106 496 900 1011 1106 808 b 589 -18 1106 185 900 -18 m 161 496 b 589 61 161 233 331 61 b 1015 496 844 61 1015 233 b 589 932 1015 760 844 932 b 161 496 331 932 161 760 m 361 496 b 589 789 361 654 432 789 b 817 496 747 789 817 653 b 589 203 817 339 747 203 b 361 496 432 203 361 338 m 453 496 b 589 275 453 372 488 275 b 725 496 690 275 725 371 b 589 718 725 621 690 718 b 453 496 488 718 453 618 "},"▀":{"ha":1171,"x_min":0,"x_max":0,"o":"m 89 993 l 1082 993 l 1082 496 l 89 496 "},"▄":{"ha":1174,"x_min":0,"x_max":0,"o":"m 90 497 l 1083 497 l 1083 0 l 90 0 "},"█":{"ha":1206,"x_min":0,"x_max":0,"o":"m 106 993 l 1099 993 l 1099 0 l 106 0 "},"■":{"ha":1206,"x_min":0,"x_max":0,"o":"m 106 993 l 1099 993 l 1099 0 l 106 0 "},"□":{"ha":1206,"x_min":0,"x_max":0,"o":"m 106 993 l 1099 993 l 1099 0 l 106 0 m 1008 90 l 1008 903 l 196 903 l 196 90 "},"▪":{"ha":428,"x_min":0,"x_max":0,"o":"m 82 576 l 346 576 l 346 313 l 82 313 "},"▫":{"ha":497,"x_min":0,"x_max":0,"o":"m 85 608 l 413 608 l 413 281 l 85 281 m 322 371 l 322 518 l 175 518 l 175 371 "},"▲":{"ha":1149,"x_min":0,"x_max":0,"o":"m 575 993 l 1131 0 l 19 0 "},"►":{"ha":1167,"x_min":0,"x_max":0,"o":"m 122 1051 l 1115 496 l 122 -60 "},"▼":{"ha":1151,"x_min":0,"x_max":0,"o":"m 19 993 l 1131 993 l 575 0 "},"◄":{"ha":1167,"x_min":0,"x_max":0,"o":"m 51 496 l 1044 1051 l 1044 -60 "},"◊":{"ha":779,"x_min":0,"x_max":0,"o":"m 58 497 l 339 993 l 442 993 l 722 496 l 443 0 l 339 0 m 390 90 l 393 90 l 621 493 l 390 903 l 388 903 l 158 499 "},"○":{"ha":1175,"x_min":0,"x_max":0,"o":"m 589 -18 b 71 496 276 -18 71 185 b 589 1011 71 808 276 1011 b 1106 496 900 1011 1106 808 b 589 -18 1106 185 900 -18 m 161 496 b 589 61 161 233 331 61 b 1015 496 844 61 1015 233 b 589 932 1015 760 844 932 b 161 496 331 932 161 760 "},"●":{"ha":1168,"x_min":0,"x_max":0,"o":"m 585 -18 b 69 496 300 -18 69 213 b 585 1011 69 779 300 1011 b 1099 496 868 1011 1099 779 b 585 -18 1099 213 868 -18 "},"⬎":{"ha":894,"x_min":0,"x_max":0,"o":"m 90 349 l 147 410 l 419 154 l 419 629 l 35 629 l 35 711 l 511 711 l 511 154 l 785 410 l 840 349 l 465 1 "},"⬏":{"ha":899,"x_min":0,"x_max":0,"o":"m 38 82 l 424 82 l 424 557 l 150 301 l 93 363 l 468 710 l 843 363 l 788 301 l 514 557 l 514 0 l 38 0 "},"⬐":{"ha":899,"x_min":0,"x_max":0,"o":"m 54 343 l 110 404 l 383 149 l 383 706 l 860 706 l 860 624 l 475 624 l 475 149 l 747 404 l 804 343 l 429 -4 "},"⬑":{"ha":896,"x_min":0,"x_max":0,"o":"m 383 554 l 110 299 l 54 360 l 429 707 l 804 360 l 747 299 l 474 554 l 474 79 l 860 79 l 860 -3 l 383 -3 "},"⮠":{"ha":838,"x_min":0,"x_max":0,"o":"m 53 351 l 400 726 l 461 671 l 206 397 l 681 397 l 681 782 l 763 782 l 763 307 l 206 307 l 461 33 l 400 -24 "},"⮡":{"ha":838,"x_min":0,"x_max":0,"o":"m 375 38 l 631 311 l 74 311 l 74 786 l 156 786 l 156 401 l 631 401 l 375 675 l 436 731 l 783 356 l 436 -19 "},"⮢":{"ha":839,"x_min":0,"x_max":0,"o":"m 56 369 l 403 744 l 464 688 l 208 415 l 765 415 l 765 -61 l 683 -61 l 683 324 l 208 324 l 464 50 l 403 -6 "},"⮣":{"ha":839,"x_min":0,"x_max":0,"o":"m 375 50 l 631 324 l 154 324 l 154 -61 l 74 -61 l 74 415 l 631 415 l 375 688 l 436 744 l 783 369 l 436 -6 "},"⮤":{"ha":896,"x_min":0,"x_max":0,"o":"m 383 554 l 110 299 l 54 360 l 429 707 l 804 360 l 747 299 l 474 554 l 474 79 l 860 79 l 860 -3 l 383 -3 "},"⮥":{"ha":899,"x_min":0,"x_max":0,"o":"m 38 82 l 424 82 l 424 557 l 150 301 l 93 363 l 468 710 l 843 363 l 788 301 l 514 557 l 514 0 l 38 0 "},"⮦":{"ha":899,"x_min":0,"x_max":0,"o":"m 54 343 l 110 404 l 383 149 l 383 706 l 860 706 l 860 624 l 475 624 l 475 149 l 747 404 l 804 343 l 429 -4 "},"⮧":{"ha":894,"x_min":0,"x_max":0,"o":"m 90 349 l 147 410 l 419 154 l 419 629 l 35 629 l 35 711 l 511 711 l 511 154 l 785 410 l 840 349 l 465 1 "},"ﬁ":{"ha":621,"x_min":0,"x_max":0,"o":"m 126 813 b 289 1001 126 967 188 1001 b 357 996 308 1001 325 1000 l 357 919 b 301 922 332 921 321 922 b 217 814 233 922 217 901 l 217 708 l 357 708 l 357 629 l 217 629 l 217 0 l 126 0 l 126 629 l 26 629 l 26 708 l 126 708 l 126 813 m 433 967 l 550 967 l 550 850 l 433 850 m 447 708 l 538 708 l 538 0 l 447 0 "},"ﬂ":{"ha":621,"x_min":0,"x_max":0,"o":"m 126 813 b 289 1001 126 967 188 1001 b 357 996 308 1001 325 1000 l 357 919 b 301 922 332 921 321 922 b 217 814 233 922 217 901 l 217 708 l 357 708 l 357 629 l 217 629 l 217 0 l 126 0 l 126 629 l 26 629 l 26 708 l 126 708 l 126 813 m 447 993 l 538 993 l 538 0 l 447 0 "},"﻿":{"ha":0,"x_min":0,"x_max":0,"o":""},"А":{"ha":882,"x_min":0,"x_max":0,"o":"m 383 993 l 497 993 l 871 0 l 763 0 l 663 275 l 217 275 l 117 0 l 13 0 m 631 365 l 442 897 l 439 897 l 250 365 "},"Б":{"ha":863,"x_min":0,"x_max":0,"o":"m 106 993 l 750 993 l 750 904 l 207 904 l 207 608 l 508 608 b 824 311 706 608 824 501 b 496 0 824 121 700 0 l 106 0 m 500 89 b 718 311 636 89 718 175 b 514 519 718 439 642 519 l 207 519 l 207 89 "},"В":{"ha":908,"x_min":0,"x_max":0,"o":"m 106 993 l 501 993 b 815 743 697 993 815 899 b 658 533 815 625 747 564 l 658 531 b 856 285 769 510 856 428 b 528 0 856 97 725 0 l 106 0 m 532 89 b 750 285 689 89 750 169 b 557 478 750 401 675 478 l 207 478 l 207 89 m 521 567 b 710 733 658 567 710 635 b 521 904 710 835 649 904 l 207 904 l 207 567 "},"Г":{"ha":669,"x_min":0,"x_max":0,"o":"m 106 993 l 649 993 l 649 904 l 207 904 l 207 0 l 106 0 "},"Ѓ":{"ha":669,"x_min":0,"x_max":0,"o":"m 106 993 l 649 993 l 649 904 l 207 904 l 207 0 l 106 0 m 414 1292 l 522 1292 l 403 1108 l 328 1108 "},"Ґ":{"ha":669,"x_min":0,"x_max":0,"o":"m 106 993 l 554 993 l 554 1131 l 649 1131 l 649 904 l 207 904 l 207 0 l 106 0 "},"Ғ":{"ha":735,"x_min":0,"x_max":0,"o":"m 4 525 l 168 525 l 168 993 l 711 993 l 711 904 l 269 904 l 269 525 l 568 525 l 568 446 l 269 446 l 269 0 l 168 0 l 168 446 l 4 446 "},"Д":{"ha":929,"x_min":0,"x_max":0,"o":"m 6 88 l 76 88 b 192 338 156 88 182 158 l 224 993 l 785 993 l 785 88 l 889 88 l 889 -181 l 794 -181 l 794 -1 l 101 -1 l 101 -181 l 6 -181 m 683 88 l 683 904 l 324 904 l 292 281 b 231 90 288 183 265 128 l 231 88 "},"Е":{"ha":838,"x_min":0,"x_max":0,"o":"m 106 993 l 779 993 l 779 904 l 207 904 l 207 563 l 718 563 l 718 474 l 207 474 l 207 89 l 794 89 l 794 0 l 106 0 "},"Ѐ":{"ha":838,"x_min":0,"x_max":0,"o":"m 106 993 l 779 993 l 779 904 l 207 904 l 207 563 l 718 563 l 718 474 l 207 474 l 207 89 l 794 89 l 794 0 l 106 0 m 404 1292 l 481 1108 l 406 1108 l 294 1292 "},"Ё":{"ha":838,"x_min":0,"x_max":0,"o":"m 106 993 l 779 993 l 779 904 l 207 904 l 207 563 l 718 563 l 718 474 l 207 474 l 207 89 l 794 89 l 794 0 l 106 0 m 286 1251 l 403 1251 l 403 1135 l 286 1135 m 493 1251 l 610 1251 l 610 1135 l 493 1135 "},"Ж":{"ha":1256,"x_min":0,"x_max":0,"o":"m 376 490 l 19 993 l 128 993 l 457 528 l 578 528 l 578 993 l 678 993 l 678 528 l 801 528 l 1132 993 l 1238 993 l 881 490 l 1261 0 l 1139 0 l 799 440 l 678 440 l 678 0 l 578 0 l 578 440 l 457 440 l 117 0 l -6 0 "},"З":{"ha":801,"x_min":0,"x_max":0,"o":"m 407 -19 b 40 269 174 -19 40 82 l 146 269 b 397 69 146 138 243 69 b 639 274 542 69 639 150 b 431 456 639 383 556 456 l 308 456 l 308 544 l 425 544 b 611 735 542 544 611 621 b 388 918 611 846 518 918 b 157 728 243 918 157 840 l 51 728 b 388 1007 51 894 179 1007 b 717 735 582 1007 717 901 b 563 503 717 631 661 543 l 563 500 b 744 274 672 467 744 388 b 407 -19 744 104 610 -19 "},"И":{"ha":1004,"x_min":0,"x_max":0,"o":"m 106 993 l 207 993 l 207 154 l 210 154 l 797 993 l 897 993 l 897 0 l 797 0 l 797 838 l 794 838 l 207 0 l 106 0 "},"Й":{"ha":1004,"x_min":0,"x_max":0,"o":"m 106 993 l 207 993 l 207 154 l 210 154 l 797 993 l 897 993 l 897 0 l 797 0 l 797 838 l 794 838 l 207 0 l 106 0 m 403 1278 b 506 1169 410 1208 442 1169 b 607 1278 569 1169 601 1208 l 678 1278 b 506 1101 672 1165 606 1101 b 333 1278 407 1101 338 1163 "},"Ѝ":{"ha":1004,"x_min":0,"x_max":0,"o":"m 106 993 l 207 993 l 207 154 l 210 154 l 797 993 l 897 993 l 897 0 l 797 0 l 797 838 l 794 838 l 207 0 l 106 0 m 463 1292 l 539 1108 l 464 1108 l 353 1292 "},"К":{"ha":853,"x_min":0,"x_max":0,"o":"m 350 440 l 207 440 l 207 0 l 106 0 l 106 993 l 207 993 l 207 528 l 353 528 l 732 993 l 843 993 l 433 489 l 868 0 l 740 0 "},"Ќ":{"ha":853,"x_min":0,"x_max":0,"o":"m 350 440 l 207 440 l 207 0 l 106 0 l 106 993 l 207 993 l 207 528 l 353 528 l 732 993 l 843 993 l 433 489 l 868 0 l 740 0 m 478 1292 l 586 1292 l 467 1108 l 392 1108 "},"Л":{"ha":893,"x_min":0,"x_max":0,"o":"m 89 -21 b 1 -4 60 -21 22 -15 l 1 83 b 81 69 21 76 51 69 b 197 224 151 69 193 103 l 225 993 l 788 993 l 788 0 l 686 0 l 686 904 l 325 904 l 297 228 b 89 -21 289 42 217 -21 "},"М":{"ha":1165,"x_min":0,"x_max":0,"o":"m 106 993 l 246 993 l 581 136 l 583 136 l 919 993 l 1060 993 l 1060 0 l 958 0 l 958 850 l 956 850 l 628 0 l 536 0 l 210 850 l 207 850 l 207 0 l 106 0 "},"Н":{"ha":976,"x_min":0,"x_max":0,"o":"m 106 993 l 207 993 l 207 564 l 769 564 l 769 993 l 869 993 l 869 0 l 769 0 l 769 475 l 207 475 l 207 0 l 106 0 "},"О":{"ha":1065,"x_min":0,"x_max":0,"o":"m 533 -18 b 56 497 246 -18 56 199 b 533 1011 56 796 246 1011 b 1010 497 819 1011 1010 796 b 533 -18 1010 199 819 -18 m 161 497 b 533 71 161 263 288 71 b 904 497 778 71 904 263 b 533 922 904 732 778 922 b 161 497 288 922 161 732 "},"П":{"ha":949,"x_min":0,"x_max":0,"o":"m 106 993 l 842 993 l 842 0 l 742 0 l 742 904 l 207 904 l 207 0 l 106 0 "},"Р":{"ha":840,"x_min":0,"x_max":0,"o":"m 106 993 l 488 993 b 808 707 671 993 808 915 b 488 419 808 499 671 419 l 207 419 l 207 0 l 106 0 m 497 508 b 703 707 632 508 703 571 b 497 904 703 842 632 904 l 207 904 l 207 508 "},"С":{"ha":968,"x_min":0,"x_max":0,"o":"m 511 -18 b 56 496 242 -18 56 194 b 513 1011 56 796 240 1011 b 921 676 744 1011 896 863 l 815 676 b 511 922 796 788 714 922 b 161 496 271 922 161 718 b 511 71 161 274 272 71 b 819 353 721 71 808 215 l 925 353 b 511 -18 901 136 747 -18 "},"Т":{"ha":817,"x_min":0,"x_max":0,"o":"m 358 904 l 21 904 l 21 993 l 797 993 l 797 904 l 458 904 l 458 0 l 358 0 "},"У":{"ha":803,"x_min":0,"x_max":0,"o":"m 344 283 l 21 993 l 129 993 l 397 396 l 400 396 l 682 993 l 786 993 l 313 0 l 211 0 "},"Ў":{"ha":803,"x_min":0,"x_max":0,"o":"m 344 283 l 21 993 l 129 993 l 397 396 l 400 396 l 682 993 l 786 993 l 313 0 l 211 0 m 307 1278 b 410 1169 314 1208 346 1169 b 511 1278 474 1169 506 1208 l 582 1278 b 410 1101 576 1165 510 1101 b 238 1278 311 1101 242 1163 "},"Ф":{"ha":989,"x_min":0,"x_max":0,"o":"m 442 129 b 49 490 199 147 49 283 b 442 854 49 699 199 836 l 442 993 l 542 993 l 542 854 b 940 490 788 839 940 701 b 542 129 940 281 788 144 l 542 0 l 442 0 m 149 490 b 442 210 149 332 260 226 l 442 774 b 149 490 260 757 149 650 m 542 208 b 840 490 726 224 840 331 b 542 775 840 651 726 760 l 542 208 "},"Х":{"ha":796,"x_min":0,"x_max":0,"o":"m 342 510 l 22 993 l 136 993 l 400 582 l 401 582 l 665 993 l 778 993 l 457 508 l 794 0 l 675 0 l 394 435 l 393 435 l 119 0 l -1 0 "},"Ч":{"ha":811,"x_min":0,"x_max":0,"o":"m 604 444 l 601 444 b 351 324 553 379 460 324 b 64 628 182 324 64 431 l 64 993 l 164 993 l 164 628 b 371 413 164 490 242 413 b 604 542 489 413 546 464 l 604 993 l 706 993 l 706 0 l 604 0 "},"Ц":{"ha":969,"x_min":0,"x_max":0,"o":"m 829 -1 l 106 -1 l 106 992 l 207 992 l 207 89 l 728 89 l 728 992 l 828 992 l 828 89 l 925 89 l 925 -181 l 829 -181 "},"Ш":{"ha":1176,"x_min":0,"x_max":0,"o":"m 106 992 l 207 992 l 207 89 l 538 89 l 538 992 l 639 992 l 639 89 l 969 89 l 969 992 l 1069 992 l 1069 -1 l 106 -1 "},"Щ":{"ha":1210,"x_min":0,"x_max":0,"o":"m 1071 -1 l 106 -1 l 106 992 l 207 992 l 207 89 l 538 89 l 538 992 l 639 992 l 639 89 l 969 89 l 969 992 l 1069 992 l 1069 89 l 1165 89 l 1165 -181 l 1071 -181 "},"Џ":{"ha":935,"x_min":0,"x_max":0,"o":"m 421 -1 l 106 -1 l 106 992 l 207 992 l 207 89 l 728 89 l 728 992 l 828 992 l 828 -1 l 515 -1 l 515 -181 l 421 -181 "},"Ь":{"ha":829,"x_min":0,"x_max":0,"o":"m 106 993 l 207 993 l 207 608 l 481 608 b 796 308 678 608 796 500 b 468 0 796 118 672 0 l 106 0 m 472 89 b 690 308 608 89 690 174 b 486 519 690 436 614 519 l 207 519 l 207 89 "},"Ы":{"ha":1085,"x_min":0,"x_max":0,"o":"m 106 993 l 207 993 l 207 608 l 433 608 b 749 308 631 608 749 500 b 421 0 749 118 625 0 l 106 0 m 425 89 b 643 308 561 89 643 174 b 439 519 643 436 567 519 l 207 519 l 207 89 m 878 993 l 979 993 l 979 0 l 878 0 "},"Ъ":{"ha":908,"x_min":0,"x_max":0,"o":"m 185 904 l 13 904 l 13 993 l 286 993 l 286 608 l 560 608 b 875 308 756 608 875 500 b 547 0 875 118 751 0 l 185 0 m 551 89 b 769 308 688 89 769 174 b 565 519 769 436 693 519 l 286 519 l 286 89 "},"Љ":{"ha":1264,"x_min":0,"x_max":0,"o":"m 89 -21 b 1 -4 60 -21 22 -15 l 1 83 b 81 69 21 76 51 69 b 197 224 151 69 193 103 l 225 993 l 722 993 l 722 608 l 915 608 b 1231 308 1111 608 1231 500 b 903 0 1231 118 1106 0 l 621 0 l 621 904 l 325 904 l 297 228 b 89 -21 289 42 217 -21 m 906 89 b 1125 308 1043 89 1125 174 b 921 519 1125 436 1049 519 l 722 519 l 722 89 "},"Њ":{"ha":1306,"x_min":0,"x_max":0,"o":"m 106 993 l 207 993 l 207 583 l 664 583 l 664 993 l 765 993 l 765 583 l 958 583 b 1274 296 1154 583 1274 476 b 946 0 1274 106 1149 0 l 664 0 l 664 494 l 207 494 l 207 0 l 106 0 m 949 89 b 1168 296 1086 89 1168 160 b 964 494 1168 424 1092 494 l 765 494 l 765 89 "},"Ѕ":{"ha":856,"x_min":0,"x_max":0,"o":"m 463 -18 b 38 329 224 -18 51 106 l 143 329 b 458 71 157 175 251 71 b 704 268 642 71 704 158 b 399 486 706 415 603 440 b 79 756 236 524 79 574 b 410 1011 79 914 206 1011 b 776 707 625 1011 761 901 l 671 707 b 410 922 654 844 578 922 b 185 760 264 922 185 863 b 449 567 185 626 303 599 b 810 271 653 522 810 472 b 463 -18 810 110 699 -18 "},"Є":{"ha":951,"x_min":0,"x_max":0,"o":"m 506 -18 b 57 500 238 -18 57 172 b 510 1011 57 818 240 1011 b 904 714 731 1011 878 889 l 799 714 b 510 922 774 833 676 922 b 164 540 315 922 178 776 l 564 540 l 564 451 l 164 451 b 506 71 181 213 314 71 b 803 315 681 71 790 176 l 908 315 b 506 -18 894 122 743 -18 "},"Э":{"ha":950,"x_min":0,"x_max":0,"o":"m 449 -18 b 42 315 211 -18 56 122 l 147 315 b 449 71 160 176 274 71 b 786 451 640 71 771 213 l 386 451 l 386 540 l 786 540 b 440 922 772 776 636 922 b 151 714 274 922 176 833 l 46 714 b 442 1011 72 889 221 1011 b 893 500 711 1011 893 818 b 449 -18 893 172 717 -18 "},"І":{"ha":313,"x_min":0,"x_max":0,"o":"m 106 993 l 207 993 l 207 0 l 106 0 "},"Ї":{"ha":313,"x_min":0,"x_max":0,"o":"m 106 993 l 207 993 l 207 0 l 106 0 m -6 1251 l 111 1251 l 111 1135 l -6 1135 m 201 1251 l 318 1251 l 318 1135 l 201 1135 "},"Ј":{"ha":689,"x_min":0,"x_max":0,"o":"m 307 -18 b 28 288 99 -18 28 129 l 28 319 l 129 319 l 129 288 b 307 71 129 161 168 71 b 488 288 447 71 488 161 l 488 993 l 589 993 l 589 288 b 307 -18 589 129 515 -18 "},"Ћ":{"ha":971,"x_min":0,"x_max":0,"o":"m 267 904 l 22 904 l 22 993 l 668 993 l 668 904 l 368 904 l 368 521 l 371 521 b 631 642 419 586 506 642 b 908 353 801 642 908 540 l 908 0 l 808 0 l 808 338 b 611 553 808 475 740 553 b 368 308 461 553 368 464 l 368 0 l 267 0 "},"Ю":{"ha":1286,"x_min":0,"x_max":0,"o":"m 810 -18 b 393 456 564 -18 407 164 l 207 456 l 207 0 l 106 0 l 106 993 l 207 993 l 207 544 l 393 544 b 810 1011 408 832 565 1011 b 1228 497 1067 1011 1228 813 b 810 -18 1228 182 1067 -18 m 497 497 b 810 71 497 235 618 71 b 1122 497 1001 71 1122 235 b 810 922 1122 760 1001 922 b 497 497 618 922 497 760 "},"Я":{"ha":865,"x_min":0,"x_max":0,"o":"m 47 8 b 260 472 96 47 32 429 l 260 475 b 75 708 150 504 75 588 b 413 993 75 893 201 993 l 760 993 l 760 0 l 658 0 l 658 425 l 379 425 b 157 0 128 425 196 68 l 47 0 l 47 8 m 178 713 b 424 514 178 586 268 514 l 658 514 l 658 904 l 415 904 b 178 713 250 904 178 839 "},"Ђ":{"ha":974,"x_min":0,"x_max":0,"o":"m 757 -253 b 675 -244 722 -253 696 -250 l 675 -157 b 743 -165 697 -162 722 -165 b 808 -81 782 -165 808 -144 l 808 365 b 611 581 808 503 740 581 b 368 336 461 581 368 492 l 368 0 l 267 0 l 267 904 l 22 904 l 22 993 l 668 993 l 668 904 l 368 904 l 368 549 l 371 549 b 631 669 419 614 506 669 b 908 381 801 669 908 568 l 908 -96 b 757 -253 908 -208 842 -253 "},"Җ":{"ha":1256,"x_min":0,"x_max":0,"o":"m 376 490 l 19 993 l 128 993 l 457 528 l 578 528 l 578 993 l 678 993 l 678 528 l 801 528 l 1132 993 l 1238 993 l 881 490 l 1210 65 l 1278 65 l 1278 -181 l 1182 -181 l 1182 0 l 1139 0 l 799 440 l 678 440 l 678 0 l 578 0 l 578 440 l 457 440 l 117 0 l -6 0 "},"Қ":{"ha":853,"x_min":0,"x_max":0,"o":"m 350 440 l 207 440 l 207 0 l 106 0 l 106 993 l 207 993 l 207 528 l 353 528 l 732 993 l 843 993 l 433 489 l 810 65 l 883 65 l 883 -181 l 788 -181 l 788 0 l 740 0 "},"Ң":{"ha":976,"x_min":0,"x_max":0,"o":"m 106 993 l 207 993 l 207 564 l 769 564 l 769 993 l 869 993 l 869 65 l 915 65 l 915 -181 l 819 -181 l 819 0 l 769 0 l 769 475 l 207 475 l 207 0 l 106 0 "},"Ү":{"ha":858,"x_min":0,"x_max":0,"o":"m 378 407 l 15 993 l 125 993 l 428 486 l 431 486 l 735 993 l 843 993 l 479 407 l 479 0 l 378 0 "},"Ұ":{"ha":853,"x_min":0,"x_max":0,"o":"m 142 354 l 376 354 l 376 407 l 14 993 l 124 993 l 426 486 l 429 486 l 733 993 l 842 993 l 478 407 l 478 354 l 706 354 l 706 275 l 478 275 l 478 0 l 376 0 l 376 275 l 142 275 "},"Ҳ":{"ha":796,"x_min":0,"x_max":0,"o":"m 342 510 l 22 993 l 136 993 l 400 582 l 401 582 l 665 993 l 778 993 l 457 508 l 751 65 l 815 65 l 815 -181 l 719 -181 l 719 0 l 675 0 l 394 435 l 393 435 l 119 0 l -1 0 "},"Ҷ":{"ha":811,"x_min":0,"x_max":0,"o":"m 604 444 l 601 444 b 351 324 553 379 460 324 b 64 628 182 324 64 431 l 64 993 l 164 993 l 164 628 b 371 413 164 490 242 413 b 604 542 489 413 546 464 l 604 993 l 706 993 l 706 65 l 760 65 l 760 -181 l 664 -181 l 664 0 l 604 0 "},"Һ":{"ha":826,"x_min":0,"x_max":0,"o":"m 106 994 l 207 994 l 207 563 l 210 563 b 469 683 258 628 344 683 b 761 394 654 683 761 582 l 761 0 l 661 0 l 661 379 b 450 594 661 517 593 594 b 207 350 300 594 207 506 l 207 0 l 106 0 "},"Ә":{"ha":1000,"x_min":0,"x_max":0,"o":"m 497 -19 b 54 453 233 -19 54 179 b 57 522 54 476 54 500 l 839 522 b 494 922 831 764 692 922 b 183 703 328 922 206 826 l 78 703 b 506 1011 110 888 289 1011 b 944 499 767 1011 944 792 b 497 -19 944 192 763 -19 m 161 433 b 503 69 161 219 289 69 b 836 433 694 69 815 217 l 161 433 "},"Ӣ":{"ha":1004,"x_min":0,"x_max":0,"o":"m 106 993 l 207 993 l 207 154 l 210 154 l 797 993 l 897 993 l 897 0 l 797 0 l 797 838 l 794 838 l 207 0 l 106 0 m 333 1221 l 679 1221 l 679 1142 l 333 1142 "},"Ө":{"ha":1065,"x_min":0,"x_max":0,"o":"m 533 -18 b 56 497 246 -18 56 199 b 533 1011 56 796 246 1011 b 1010 497 819 1011 1010 796 b 533 -18 1010 199 819 -18 m 163 453 b 533 71 178 239 303 71 b 903 453 763 71 888 239 l 163 453 m 903 542 b 533 922 888 756 763 922 b 163 542 303 922 178 756 "},"Ӯ":{"ha":803,"x_min":0,"x_max":0,"o":"m 344 283 l 21 993 l 129 993 l 397 396 l 400 396 l 682 993 l 786 993 l 313 0 l 211 0 m 238 1221 l 583 1221 l 583 1142 l 238 1142 "},"а":{"ha":714,"x_min":0,"x_max":0,"o":"m 278 -18 b 46 179 136 -18 46 61 b 338 413 46 332 154 381 b 529 526 454 433 529 442 b 368 647 529 599 482 647 b 175 494 231 647 182 599 l 79 494 b 371 726 86 619 165 726 b 617 501 501 726 617 671 l 617 147 b 657 64 617 90 625 64 b 676 65 663 64 668 64 l 676 0 b 629 -6 661 -3 646 -6 b 529 107 569 -6 535 18 l 526 107 b 278 -18 478 26 393 -18 m 140 188 b 289 61 140 106 186 61 b 529 265 433 61 529 138 l 529 397 b 349 338 508 368 433 351 b 140 188 211 313 140 278 "},"б":{"ha":746,"x_min":0,"x_max":0,"o":"m 385 -19 b 60 406 185 -19 60 124 b 324 896 60 656 118 857 l 463 924 b 582 994 549 940 582 969 l 681 994 b 525 850 681 913 614 868 l 338 811 b 146 567 217 786 165 682 l 149 567 b 411 726 188 647 276 726 b 700 361 594 726 700 583 b 385 -19 700 146 590 -19 m 165 363 b 385 60 165 189 238 60 b 606 361 531 60 606 190 b 388 647 606 529 531 647 b 165 363 242 647 165 515 "},"в":{"ha":663,"x_min":0,"x_max":0,"o":"m 83 708 l 371 708 b 589 525 513 708 589 636 b 465 369 589 450 533 389 l 465 367 b 619 199 554 353 619 290 b 392 0 619 75 532 0 l 83 0 m 383 79 b 525 200 475 79 525 124 b 388 324 525 279 467 324 l 174 324 l 174 79 m 374 397 b 494 518 443 397 494 453 b 365 629 494 589 447 629 l 174 629 l 174 397 "},"г":{"ha":538,"x_min":0,"x_max":0,"o":"m 83 708 l 521 708 l 521 629 l 174 629 l 174 0 l 83 0 "},"ѓ":{"ha":538,"x_min":0,"x_max":0,"o":"m 83 708 l 521 708 l 521 629 l 174 629 l 174 0 l 83 0 m 342 1007 l 450 1007 l 331 824 l 256 824 "},"ґ":{"ha":538,"x_min":0,"x_max":0,"o":"m 83 708 l 442 708 l 442 861 l 521 861 l 521 629 l 174 629 l 174 0 l 83 0 "},"ғ":{"ha":575,"x_min":0,"x_max":0,"o":"m 4 393 l 121 393 l 121 708 l 558 708 l 558 629 l 211 629 l 211 393 l 447 393 l 447 325 l 211 325 l 211 0 l 121 0 l 121 325 l 4 325 "},"д":{"ha":736,"x_min":0,"x_max":0,"o":"m 10 79 l 57 79 b 135 201 100 79 129 133 l 167 708 l 617 708 l 617 79 l 703 79 l 703 -181 l 625 -181 l 625 0 l 89 0 l 89 -181 l 10 -181 m 528 79 l 528 629 l 250 629 l 224 207 b 182 82 221 150 207 108 l 182 79 "},"е":{"ha":746,"x_min":0,"x_max":0,"o":"m 383 -19 b 46 354 167 -19 46 139 b 383 726 46 581 179 726 b 703 386 588 726 703 583 b 701 336 703 367 703 347 l 140 336 b 385 58 142 193 218 58 b 601 217 531 58 588 158 l 693 217 b 383 -19 658 88 561 -19 m 607 415 b 379 649 607 542 525 649 b 140 415 242 649 147 547 "},"ѐ":{"ha":746,"x_min":0,"x_max":0,"o":"m 383 -19 b 46 354 167 -19 46 139 b 383 726 46 581 179 726 b 703 386 588 726 703 583 b 701 336 703 367 703 347 l 140 336 b 385 58 142 193 218 58 b 601 217 531 58 588 158 l 693 217 b 383 -19 658 88 561 -19 m 607 415 b 379 649 607 542 525 649 b 140 415 242 649 147 547 m 333 1010 l 410 826 l 335 826 l 224 1010 "},"ё":{"ha":746,"x_min":0,"x_max":0,"o":"m 383 -19 b 46 354 167 -19 46 139 b 383 726 46 581 179 726 b 703 386 588 726 703 583 b 701 336 703 367 703 347 l 140 336 b 385 58 142 193 218 58 b 601 217 531 58 588 158 l 693 217 b 383 -19 658 88 561 -19 m 607 415 b 379 649 607 542 525 649 b 140 415 242 649 147 547 m 215 969 l 332 969 l 332 853 l 215 853 m 422 969 l 539 969 l 539 853 l 422 853 "},"ж":{"ha":890,"x_min":0,"x_max":0,"o":"m 247 353 l 6 708 l 107 708 l 322 389 l 400 389 l 400 708 l 490 708 l 490 389 l 568 389 l 783 708 l 883 708 l 643 353 l 883 0 l 772 0 l 564 310 l 490 310 l 490 0 l 400 0 l 400 310 l 324 310 l 115 0 l 7 0 "},"з":{"ha":621,"x_min":0,"x_max":0,"o":"m 299 -18 b 35 206 136 -18 35 71 l 125 206 b 311 60 125 119 194 60 b 481 199 418 60 481 111 b 338 318 481 274 422 318 l 239 318 l 239 397 l 333 397 b 464 522 417 397 464 444 b 303 647 464 603 404 647 b 133 510 196 647 133 590 l 42 510 b 303 726 42 640 147 726 b 556 526 453 726 556 653 b 440 361 556 449 508 388 l 440 360 b 576 199 519 339 576 276 b 299 -18 576 63 469 -18 "},"и":{"ha":772,"x_min":0,"x_max":0,"o":"m 83 708 l 174 708 l 174 131 l 599 708 l 689 708 l 689 0 l 599 0 l 599 578 l 174 0 l 83 0 "},"й":{"ha":772,"x_min":0,"x_max":0,"o":"m 83 708 l 174 708 l 174 131 l 599 708 l 689 708 l 689 0 l 599 0 l 599 578 l 174 0 l 83 0 m 289 993 b 392 885 296 924 328 885 b 493 993 456 885 488 924 l 564 993 b 392 817 558 881 492 817 b 219 993 293 817 224 878 "},"ѝ":{"ha":772,"x_min":0,"x_max":0,"o":"m 83 708 l 174 708 l 174 131 l 599 708 l 689 708 l 689 0 l 599 0 l 599 578 l 174 0 l 83 0 m 347 1007 l 424 824 l 349 824 l 238 1007 "},"к":{"ha":632,"x_min":0,"x_max":0,"o":"m 279 310 l 174 310 l 174 0 l 83 0 l 83 708 l 174 708 l 174 389 l 283 389 l 526 708 l 632 708 l 360 351 l 640 0 l 525 0 "},"ќ":{"ha":632,"x_min":0,"x_max":0,"o":"m 279 310 l 174 310 l 174 0 l 83 0 l 83 708 l 174 708 l 174 389 l 283 389 l 526 708 l 632 708 l 360 351 l 640 0 l 525 0 m 378 1007 l 486 1007 l 367 824 l 292 824 "},"л":{"ha":690,"x_min":0,"x_max":0,"o":"m 79 -19 b 7 -8 53 -19 26 -15 l 7 69 b 65 60 26 63 42 60 b 126 154 106 60 122 85 l 154 708 l 607 708 l 607 0 l 517 0 l 517 629 l 240 629 l 215 143 b 79 -19 210 25 153 -19 "},"м":{"ha":913,"x_min":0,"x_max":0,"o":"m 83 708 l 201 708 l 457 129 l 460 129 l 715 708 l 829 708 l 829 0 l 739 0 l 739 554 l 736 554 l 493 1 l 417 1 l 176 554 l 174 554 l 174 0 l 83 0 "},"н":{"ha":749,"x_min":0,"x_max":0,"o":"m 575 321 l 174 321 l 174 0 l 83 0 l 83 708 l 174 708 l 174 400 l 575 400 l 575 708 l 665 708 l 665 0 l 575 0 "},"о":{"ha":769,"x_min":0,"x_max":0,"o":"m 385 -19 b 44 353 172 -19 44 133 b 385 726 44 574 172 726 b 725 353 597 726 725 574 b 385 -19 725 133 597 -19 m 139 353 b 385 60 139 190 219 60 b 631 353 550 60 631 190 b 385 647 631 517 550 647 b 139 353 219 647 139 517 "},"п":{"ha":735,"x_min":0,"x_max":0,"o":"m 83 708 l 651 708 l 651 0 l 561 0 l 561 629 l 174 629 l 174 0 l 83 0 "},"р":{"ha":774,"x_min":0,"x_max":0,"o":"m 415 -17 b 176 119 292 -17 218 44 l 174 119 l 174 -246 l 83 -246 l 83 708 l 174 708 l 174 594 l 176 594 b 415 726 218 663 292 726 b 728 354 589 726 728 588 b 415 -17 728 122 589 -17 m 174 354 b 406 63 174 176 269 63 b 633 354 553 63 633 196 b 406 647 633 514 553 647 b 174 354 269 647 174 533 "},"с":{"ha":725,"x_min":0,"x_max":0,"o":"m 383 -18 b 44 354 181 -18 44 132 b 383 725 44 575 181 725 b 688 460 556 725 672 610 l 593 460 b 383 646 588 539 531 646 b 139 354 210 646 139 499 b 383 60 139 208 210 60 b 593 253 532 60 588 167 l 688 253 b 383 -18 678 100 556 -18 "},"т":{"ha":606,"x_min":0,"x_max":0,"o":"m 258 629 l 17 629 l 17 708 l 589 708 l 589 629 l 349 629 l 349 0 l 258 0 "},"у":{"ha":668,"x_min":0,"x_max":0,"o":"m 146 -249 b 78 -243 124 -249 107 -247 l 78 -165 b 132 -169 99 -168 110 -169 b 292 4 199 -169 253 -126 l 6 708 l 106 708 l 336 118 l 339 118 l 558 708 l 656 708 l 372 -21 b 146 -249 303 -197 240 -249 "},"ў":{"ha":668,"x_min":0,"x_max":0,"o":"m 146 -249 b 78 -243 124 -249 107 -247 l 78 -165 b 132 -169 99 -168 110 -169 b 292 4 199 -169 253 -126 l 6 708 l 106 708 l 336 118 l 339 118 l 558 708 l 656 708 l 372 -21 b 146 -249 303 -197 240 -249 m 228 993 b 331 885 235 924 267 885 b 432 993 394 885 426 924 l 503 993 b 331 817 497 881 431 817 b 158 993 232 817 163 878 "},"ф":{"ha":872,"x_min":0,"x_max":0,"o":"m 389 -18 b 44 354 181 0 44 140 b 389 725 44 568 181 707 l 389 993 l 479 993 l 479 725 b 828 354 689 707 828 568 b 479 -18 828 140 689 0 l 479 -246 l 389 -246 m 139 354 b 389 63 139 190 239 81 l 389 644 b 139 354 239 626 139 518 m 479 63 b 732 354 632 79 732 189 b 479 644 732 519 632 628 l 479 63 "},"х":{"ha":649,"x_min":0,"x_max":0,"o":"m 269 363 l 14 708 l 124 708 l 324 426 l 326 426 l 525 708 l 633 708 l 379 363 l 658 0 l 549 0 l 325 301 l 322 301 l 100 0 l -8 0 "},"ч":{"ha":669,"x_min":0,"x_max":0,"o":"m 496 326 l 493 326 b 286 222 454 276 382 222 b 47 476 161 222 47 286 l 47 708 l 138 708 l 138 496 b 308 301 138 353 201 301 b 496 414 403 301 463 361 l 496 708 l 586 708 l 586 0 l 496 0 "},"ц":{"ha":754,"x_min":0,"x_max":0,"o":"m 638 0 l 83 0 l 83 708 l 174 708 l 174 79 l 547 79 l 547 708 l 638 708 l 638 79 l 718 79 l 718 -181 l 638 -181 "},"ш":{"ha":971,"x_min":0,"x_max":0,"o":"m 83 708 l 174 708 l 174 79 l 440 79 l 440 708 l 531 708 l 531 79 l 797 79 l 797 708 l 888 708 l 888 0 l 83 0 "},"щ":{"ha":1004,"x_min":0,"x_max":0,"o":"m 888 0 l 83 0 l 83 708 l 174 708 l 174 79 l 440 79 l 440 708 l 531 708 l 531 79 l 797 79 l 797 708 l 888 708 l 888 79 l 968 79 l 968 -181 l 888 -181 "},"џ":{"ha":721,"x_min":0,"x_max":0,"o":"m 322 0 l 83 0 l 83 708 l 174 708 l 174 79 l 547 79 l 547 708 l 638 708 l 638 0 l 403 0 l 403 -181 l 322 -181 "},"ь":{"ha":611,"x_min":0,"x_max":0,"o":"m 83 708 l 174 708 l 174 432 l 356 432 b 583 215 499 432 583 347 b 354 0 583 85 494 0 l 83 0 m 356 79 b 489 215 438 79 489 131 b 354 353 489 300 443 353 l 174 353 l 174 79 "},"ы":{"ha":810,"x_min":0,"x_max":0,"o":"m 83 708 l 174 708 l 174 432 l 318 432 b 546 215 461 432 546 347 b 317 0 546 85 457 0 l 83 0 m 318 79 b 451 215 400 79 451 131 b 317 353 451 300 406 353 l 174 353 l 174 79 m 636 708 l 726 708 l 726 0 l 636 0 "},"ъ":{"ha":675,"x_min":0,"x_max":0,"o":"m 147 628 l 13 628 l 13 708 l 238 708 l 238 432 l 419 432 b 649 215 563 432 649 347 b 418 0 649 85 558 0 l 147 0 m 419 79 b 553 215 503 79 553 131 b 418 353 553 300 507 353 l 238 353 l 238 79 "},"љ":{"ha":949,"x_min":0,"x_max":0,"o":"m 79 -19 b 7 -8 53 -19 26 -15 l 7 69 b 65 60 26 63 42 60 b 126 154 106 60 122 85 l 154 708 l 549 708 l 549 432 l 693 432 b 921 215 836 432 921 347 b 692 0 921 85 832 0 l 458 0 l 458 629 l 240 629 l 215 143 b 79 -19 210 25 153 -19 m 693 79 b 826 215 775 79 826 131 b 692 353 826 300 781 353 l 549 353 l 549 79 "},"њ":{"ha":967,"x_min":0,"x_max":0,"o":"m 476 339 l 174 339 l 174 0 l 83 0 l 83 708 l 174 708 l 174 418 l 476 418 l 476 708 l 567 708 l 567 418 l 711 418 b 939 208 854 418 939 340 b 710 0 939 78 850 0 l 476 0 m 711 79 b 844 208 793 79 844 125 b 710 339 844 293 799 339 l 567 339 l 567 79 "},"ѕ":{"ha":656,"x_min":0,"x_max":0,"o":"m 344 -18 b 33 232 146 -18 38 90 l 128 232 b 346 61 133 135 197 61 b 526 193 481 61 526 124 b 322 332 526 297 421 308 b 60 535 192 365 60 397 b 311 725 60 650 151 725 b 594 510 496 725 582 626 l 500 510 b 313 646 488 572 450 646 b 154 540 211 646 154 607 b 357 413 154 451 250 439 b 622 196 490 381 622 343 b 344 -18 622 67 519 -18 "},"є":{"ha":700,"x_min":0,"x_max":0,"o":"m 369 -18 b 44 351 165 -18 44 142 b 376 725 44 572 172 725 b 665 494 542 725 647 631 l 571 494 b 376 646 557 581 492 646 b 140 392 238 646 153 553 l 419 392 l 419 313 l 140 313 b 369 60 151 158 232 60 b 569 217 488 60 557 126 l 665 217 b 369 -18 650 76 539 -18 "},"э":{"ha":701,"x_min":0,"x_max":0,"o":"m 342 -18 b 36 217 167 -18 49 76 l 131 217 b 342 60 144 126 221 60 b 560 313 472 60 550 156 l 281 313 l 281 392 l 560 392 b 332 646 549 556 468 646 b 129 494 218 646 143 581 l 35 494 b 332 725 53 631 169 725 b 656 350 539 725 656 574 b 342 -18 656 139 539 -18 "},"і":{"ha":257,"x_min":0,"x_max":0,"o":"m 83 708 l 174 708 l 174 0 l 83 0 m 69 967 l 186 967 l 186 850 l 69 850 "},"ї":{"ha":257,"x_min":0,"x_max":0,"o":"m 146 967 l 263 967 l 263 850 l 146 850 m -4 967 l 113 967 l 113 850 l -4 850 m 83 708 l 174 708 l 174 0 l 83 0 "},"ј":{"ha":257,"x_min":0,"x_max":0,"o":"m 35 -250 b -33 -244 11 -250 -6 -249 l -33 -167 b 19 -171 -12 -169 -1 -171 b 83 -61 65 -171 83 -144 l 83 708 l 174 708 l 174 -68 b 35 -250 174 -206 110 -250 m 69 967 l 186 967 l 186 850 l 69 850 "},"ћ":{"ha":729,"x_min":0,"x_max":0,"o":"m -4 893 l 83 893 l 83 993 l 174 993 l 174 893 l 393 893 l 393 824 l 174 824 l 174 607 l 176 607 b 419 725 217 665 293 725 b 651 497 546 725 651 654 l 651 0 l 561 0 l 561 478 b 397 646 561 568 519 646 b 174 447 263 646 174 551 l 174 0 l 83 0 l 83 824 l -4 824 "},"ю":{"ha":950,"x_min":0,"x_max":0,"o":"m 610 -19 b 317 315 440 -19 329 108 l 174 315 l 174 0 l 83 0 l 83 708 l 174 708 l 174 393 l 317 393 b 610 728 329 601 439 728 b 904 354 792 728 904 585 b 610 -19 904 125 792 -19 m 410 354 b 610 60 410 174 488 60 b 810 354 732 60 810 174 b 610 649 810 536 732 649 b 410 354 488 649 410 536 "},"я":{"ha":651,"x_min":0,"x_max":0,"o":"m 36 6 b 188 326 65 31 28 296 l 188 328 b 57 499 111 346 57 410 b 313 708 57 626 144 708 l 568 708 l 568 0 l 478 0 l 478 286 l 293 286 b 136 0 114 286 161 40 l 36 0 l 36 6 m 151 504 b 297 365 151 432 193 365 l 478 365 l 478 629 l 307 629 b 151 504 193 629 151 571 "},"ђ":{"ha":729,"x_min":0,"x_max":0,"o":"m 503 -250 b 415 -242 469 -250 440 -246 l 415 -164 b 490 -171 438 -168 464 -171 b 561 -61 538 -171 561 -144 l 561 478 b 397 646 561 568 519 646 b 174 447 263 646 174 551 l 174 0 l 83 0 l 83 824 l -4 824 l -4 893 l 83 893 l 83 993 l 174 993 l 174 893 l 393 893 l 393 824 l 174 824 l 174 607 l 176 607 b 419 725 217 665 293 725 b 651 497 546 725 651 654 l 651 -69 b 503 -250 651 -206 583 -250 "},"җ":{"ha":890,"x_min":0,"x_max":0,"o":"m 247 353 l 6 708 l 107 708 l 322 389 l 400 389 l 400 708 l 490 708 l 490 389 l 568 389 l 783 708 l 883 708 l 643 353 l 835 71 l 899 71 l 899 -181 l 819 -181 l 819 0 l 772 0 l 564 310 l 490 310 l 490 0 l 400 0 l 400 310 l 324 310 l 115 0 l 7 0 "},"қ":{"ha":632,"x_min":0,"x_max":0,"o":"m 279 310 l 174 310 l 174 0 l 83 0 l 83 708 l 174 708 l 174 389 l 283 389 l 526 708 l 632 708 l 360 351 l 583 71 l 644 71 l 644 -181 l 565 -181 l 565 0 l 525 0 "},"ң":{"ha":749,"x_min":0,"x_max":0,"o":"m 575 321 l 174 321 l 174 0 l 83 0 l 83 708 l 174 708 l 174 400 l 575 400 l 575 708 l 665 708 l 665 71 l 706 71 l 706 -181 l 626 -181 l 626 0 l 575 0 "},"ү":{"ha":664,"x_min":0,"x_max":0,"o":"m 292 51 l 4 708 l 106 708 l 338 164 l 340 164 l 558 708 l 656 708 l 382 51 l 382 -246 l 292 -246 "},"ұ":{"ha":664,"x_min":0,"x_max":0,"o":"m 107 -26 l 292 -26 l 292 51 l 4 708 l 106 708 l 338 164 l 340 164 l 558 708 l 656 708 l 382 51 l 382 -26 l 567 -26 l 567 -94 l 382 -94 l 382 -246 l 292 -246 l 292 -94 l 107 -94 "},"ҳ":{"ha":649,"x_min":0,"x_max":0,"o":"m 269 363 l 14 708 l 124 708 l 324 426 l 326 426 l 525 708 l 633 708 l 379 363 l 604 71 l 667 71 l 667 -181 l 588 -181 l 588 0 l 549 0 l 325 301 l 322 301 l 100 0 l -8 0 "},"ҷ":{"ha":669,"x_min":0,"x_max":0,"o":"m 496 326 l 493 326 b 286 222 454 276 382 222 b 47 476 161 222 47 286 l 47 708 l 138 708 l 138 496 b 308 301 138 353 201 301 b 496 414 403 301 463 361 l 496 708 l 586 708 l 586 71 l 615 71 l 615 -181 l 536 -181 l 536 0 l 496 0 "},"һ":{"ha":729,"x_min":0,"x_max":0,"o":"m 561 478 b 397 646 561 568 519 646 b 174 447 263 646 174 551 l 174 0 l 83 0 l 83 993 l 174 993 l 174 607 l 176 607 b 419 725 217 665 293 725 b 651 497 546 725 651 654 l 651 0 l 561 0 l 561 478 "},"ә":{"ha":725,"x_min":0,"x_max":0,"o":"m 363 -18 b 44 331 167 -18 44 128 b 49 388 44 347 46 364 l 583 388 b 363 646 574 556 486 646 b 149 506 246 646 168 592 l 54 506 b 363 725 81 638 200 725 b 681 354 563 725 681 575 b 363 -18 681 131 561 -18 m 139 308 b 363 60 139 174 213 60 b 583 308 492 60 571 144 l 139 308 "},"ӣ":{"ha":772,"x_min":0,"x_max":0,"o":"m 83 708 l 174 708 l 174 131 l 599 708 l 689 708 l 689 0 l 599 0 l 599 578 l 174 0 l 83 0 m 218 936 l 564 936 l 564 857 l 218 857 "},"ө":{"ha":769,"x_min":0,"x_max":0,"o":"m 385 -19 b 44 353 172 -19 44 133 b 385 726 44 574 172 726 b 725 353 597 726 725 574 b 385 -19 725 133 597 -19 m 140 314 b 385 60 153 169 233 60 b 629 314 536 60 617 169 l 140 314 m 629 393 b 385 647 617 538 536 647 b 140 393 233 647 153 538 "},"ӯ":{"ha":668,"x_min":0,"x_max":0,"o":"m 146 -249 b 78 -243 124 -249 107 -247 l 78 -165 b 132 -169 99 -168 110 -169 b 292 4 199 -169 253 -126 l 6 708 l 106 708 l 336 118 l 339 118 l 558 708 l 656 708 l 372 -21 b 146 -249 303 -197 240 -249 m 158 936 l 504 936 l 504 857 l 158 857 "},"᎚":{"ha":915,"x_min":0,"x_max":0,"o":""}}}
